<svg viewBox="0 0 139.512 259.752" xmlns="http://www.w3.org/2000/svg">
<rect fill="transparent" height="259.752" stroke="transparent" width="139.512" x="0" y="0"/>
<defs>
<filter height="300%" id="red-glow" width="300%" x="-100%" y="-100%">
<feFlood flood-color="red" flood-opacity="0.5" in="SourceGraphic"/>
<feComposite in2="SourceGraphic" operator="in"/>
<feGaussianBlur stdDeviation="5"/>
<feComponentTransfer result="glow1">
<feFuncA intercept="0" slope="4" type="linear"/>
</feComponentTransfer>
<feMerge>
<feMergeNode in="glow1"/>
<feMergeNode in="SourceGraphic"/>
</feMerge>
</filter>
<filter height="300%" id="green-glow" width="300%" x="-100%" y="-100%">
<feFlood flood-color="green" flood-opacity="0.5" in="SourceGraphic"/>
<feComposite in2="SourceGraphic" operator="in"/>
<feGaussianBlur stdDeviation="5"/>
<feComponentTransfer result="glow1">
<feFuncA intercept="0" slope="4" type="linear"/>
</feComponentTransfer>
<feMerge>
<feMergeNode in="glow1"/>
<feMergeNode in="SourceGraphic"/>
</feMerge>
</filter>
<filter height="300%" id="orange-glow" width="300%" x="-100%" y="-100%">
<feFlood flood-color="orange" flood-opacity="0.5" in="SourceGraphic"/>
<feComposite in2="SourceGraphic" operator="in"/>
<feGaussianBlur stdDeviation="5"/>
<feComponentTransfer result="glow1">
<feFuncA intercept="0" slope="4" type="linear"/>
</feComponentTransfer>
<feMerge>
<feMergeNode in="glow1"/>
<feMergeNode in="SourceGraphic"/>
</feMerge>
</filter>
</defs>
<g>
<path d="M53.483044,47.792 C44.72203,58.24,27.2,68.688,27.2,79.136 C27.2,89.584,27.2,100.032,27.2,110.479996" fill="none" stroke="black" stroke-width="1">
<title>Modified -&gt; B</title>
</path>
<polygon fill="black" points="27.2,110.479996 31.199999,100.479996 23.199999,100.479996 27.2,110.479996" stroke="black" stroke-width="1">
<title>Modified -&gt; B</title>
</polygon>
</g>
<g>
<path d="M85.17296,47.792 C93.93397,58.24,111.45599,68.688,111.45599,79.136 C111.45599,89.584,111.45599,100.032,111.45599,110.479996" fill="none" stroke="black" stroke-width="1">
<title>Modified -&gt; C</title>
</path>
<polygon fill="black" points="111.45599,110.479996 115.45599,100.479996 107.45599,100.479996 111.45599,110.479996" stroke="black" stroke-width="1">
<title>Modified -&gt; C</title>
</polygon>
</g>
<g filter="url(#green-glow)">
<path d="M27.2,148.27199 C27.2,158.71999,27.2,169.168,27.2,179.616 C27.2,190.064,44.72203,200.51201,53.483047,210.96" fill="none" stroke="black" stroke-width="1">
<title>B -&gt; D</title>
</path>
<polygon fill="black" points="53.483047,210.96 49.330677,201.02231 43.622578,206.62744 53.483047,210.96" stroke="black" stroke-width="1">
<title>B -&gt; D</title>
</polygon>
</g>
<g filter="url(#green-glow)">
<path d="M111.45599,148.27199 C111.45599,158.71999,111.45599,169.168,111.45599,179.616 C111.45599,190.064,93.93397,200.51201,85.17295,210.96" fill="none" stroke="black" stroke-width="1">
<title>C -&gt; D</title>
</path>
<polygon fill="black" points="85.17295,210.96 95.03343,206.62746 89.32533,201.02232 85.17295,210.96" stroke="black" stroke-width="1">
<title>C -&gt; D</title>
</polygon>
</g>
<g filter="url(#orange-glow)">
<rect fill="white" height="37.792" stroke="black" stroke-width="1" width="90.656006" x="24" y="10">
<title>Modified</title>
</rect>
<path d="M42.59375,35.104 L38.828125,25.088375 L38.765625,25.088375 Q38.796875,25.400875,38.8125,25.900875 Q38.84375,26.400875,38.859375,26.994625 Q38.875,27.57275,38.875,28.182125 L38.875,35.104 L37.546875,35.104 L37.546875,23.682125 L39.6875,23.682125 L43.203125,33.0415 L43.265625,33.0415 L46.84375,23.682125 L48.953125,23.682125 L48.953125,35.104 L47.53125,35.104 L47.53125,28.07275 Q47.53125,27.525875,47.546875,26.979 Q47.5625,26.4165,47.59375,25.932125 Q47.625,25.44775,47.640625,25.104 L47.578125,25.104 L43.78125,35.104 ZM59.3245,30.807125 Q59.3245,31.869625,59.04325,32.69775 Q58.762,33.525875,58.246376,34.104 Q57.73075,34.6665,56.98075,34.963375 Q56.246376,35.26025,55.3245,35.26025 Q54.48075,35.26025,53.762,34.963375 Q53.04325,34.6665,52.512,34.104 Q51.98075,33.525875,51.683876,32.69775 Q51.387,31.869625,51.387,30.807125 Q51.387,29.369625,51.871376,28.38525 Q52.35575,27.400875,53.246376,26.88525 Q54.137,26.369625,55.371376,26.369625 Q56.54325,26.369625,57.433876,26.88525 Q58.3245,27.400875,58.8245,28.38525 Q59.3245,29.369625,59.3245,30.807125 ZM52.85575,30.807125 Q52.85575,31.807125,53.10575,32.557125 Q53.371376,33.2915,53.933876,33.69775 Q54.496376,34.088375,55.35575,34.088375 Q56.23075,34.088375,56.777626,33.69775 Q57.340126,33.2915,57.60575,32.557125 Q57.871376,31.807125,57.871376,30.807125 Q57.871376,29.775875,57.590126,29.057125 Q57.3245,28.338375,56.777626,27.94775 Q56.23075,27.557125,55.340126,27.557125 Q54.027626,27.557125,53.433876,28.4165 Q52.85575,29.275875,52.85575,30.807125 ZM64.59825,35.26025 Q62.988876,35.26025,62.020126,34.150875 Q61.067,33.0415,61.067,30.838375 Q61.067,28.619625,62.03575,27.494625 Q63.0045,26.369625,64.61388,26.369625 Q65.28575,26.369625,65.77013,26.5415 Q66.27013,26.69775,66.6295,26.994625 Q67.0045,27.275875,67.27013,27.63525 L67.36388,27.63525 Q67.34825,27.4165,67.30138,27.01025 Q67.27013,26.604,67.27013,26.369625 L67.27013,22.94775 L68.67638,22.94775 L68.67638,35.104 L67.53575,35.104 L67.33263,33.94775 L67.27013,33.94775 Q67.0045,34.32275,66.6295,34.619625 Q66.27013,34.9165,65.77013,35.088375 Q65.27013,35.26025,64.59825,35.26025 ZM64.817,34.088375 Q66.17638,34.088375,66.72325,33.354 Q67.28575,32.604,67.28575,31.104 L67.28575,30.854 Q67.28575,29.244625,66.7545,28.400875 Q66.22325,27.5415,64.80138,27.5415 Q63.66075,27.5415,63.09825,28.44775 Q62.53575,29.338375,62.53575,30.869625 Q62.53575,32.400875,63.09825,33.244625 Q63.66075,34.088375,64.817,34.088375 ZM72.79762,26.525875 L72.79762,35.104 L71.39137,35.104 L71.39137,26.525875 ZM72.11012,23.307125 Q72.43825,23.307125,72.67262,23.525875 Q72.92262,23.744625,72.92262,24.213375 Q72.92262,24.650875,72.67262,24.88525 Q72.43825,25.104,72.11012,25.104 Q71.76637,25.104,71.51637,24.88525 Q71.282,24.650875,71.282,24.213375 Q71.282,23.744625,71.51637,23.525875 Q71.76637,23.307125,72.11012,23.307125 ZM79.472496,27.619625 L77.316246,27.619625 L77.316246,35.104 L75.909996,35.104 L75.909996,27.619625 L74.39437,27.619625 L74.39437,26.963375 L75.909996,26.479 L75.909996,25.979 Q75.909996,24.88525,76.23812,24.19775 Q76.566246,23.51025,77.17562,23.19775 Q77.80062,22.869625,78.691246,22.869625 Q79.20687,22.869625,79.628746,22.963375 Q80.05062,23.0415,80.347496,23.150875 L79.98812,24.26025 Q79.722496,24.182125,79.378746,24.104 Q79.05062,24.01025,78.70687,24.01025 Q78.003746,24.01025,77.659996,24.494625 Q77.316246,24.963375,77.316246,25.963375 L77.316246,26.525875 L79.472496,26.525875 ZM82.42562,26.525875 L82.42562,35.104 L81.01937,35.104 L81.01937,26.525875 ZM81.73812,23.307125 Q82.066246,23.307125,82.30062,23.525875 Q82.55062,23.744625,82.55062,24.213375 Q82.55062,24.650875,82.30062,24.88525 Q82.066246,25.104,81.73812,25.104 Q81.39437,25.104,81.14437,24.88525 Q80.909996,24.650875,80.909996,24.213375 Q80.909996,23.744625,81.14437,23.525875 Q81.39437,23.307125,81.73812,23.307125 ZM88.463875,26.369625 Q89.57325,26.369625,90.3545,26.854 Q91.151375,27.32275,91.57325,28.19775 Q91.995125,29.07275,91.995125,30.244625 L91.995125,31.088375 L86.13575,31.088375 Q86.167,32.5415,86.870125,33.307125 Q87.588875,34.057125,88.870125,34.057125 Q89.682625,34.057125,90.307625,33.9165 Q90.94825,33.76025,91.620125,33.479 L91.620125,34.69775 Q90.963875,34.994625,90.32325,35.119625 Q89.682625,35.26025,88.807625,35.26025 Q87.588875,35.26025,86.651375,34.775875 Q85.713875,34.275875,85.182625,33.2915 Q84.667,32.307125,84.667,30.88525 Q84.667,29.479,85.13575,28.479 Q85.620125,27.463375,86.463875,26.9165 Q87.32325,26.369625,88.463875,26.369625 ZM88.44825,27.525875 Q87.432625,27.525875,86.8545,28.182125 Q86.276375,28.82275,86.167,29.963375 L90.526375,29.963375 Q90.526375,29.229,90.292,28.69775 Q90.07325,28.150875,89.620125,27.838375 Q89.167,27.525875,88.44825,27.525875 ZM97.22225,35.26025 Q95.61288,35.26025,94.64413,34.150875 Q93.691,33.0415,93.691,30.838375 Q93.691,28.619625,94.65975,27.494625 Q95.6285,26.369625,97.23788,26.369625 Q97.90975,26.369625,98.39413,26.5415 Q98.89413,26.69775,99.2535,26.994625 Q99.6285,27.275875,99.89413,27.63525 L99.98788,27.63525 Q99.97225,27.4165,99.92538,27.01025 Q99.89413,26.604,99.89413,26.369625 L99.89413,22.94775 L101.30038,22.94775 L101.30038,35.104 L100.15975,35.104 L99.95663,33.94775 L99.89413,33.94775 Q99.6285,34.32275,99.2535,34.619625 Q98.89413,34.9165,98.39413,35.088375 Q97.89413,35.26025,97.22225,35.26025 ZM97.441,34.088375 Q98.80038,34.088375,99.34725,33.354 Q99.90975,32.604,99.90975,31.104 L99.90975,30.854 Q99.90975,29.244625,99.3785,28.400875 Q98.84725,27.5415,97.42538,27.5415 Q96.28475,27.5415,95.72225,28.44775 Q95.15975,29.338375,95.15975,30.869625 Q95.15975,32.400875,95.72225,33.244625 Q96.28475,34.088375,97.441,34.088375 Z" fill="black">
<title>Modified</title>
</path>
</g>
<g>
<rect fill="white" height="37.792" stroke="black" stroke-width="1" width="34.4" x="10" y="110.479996">
<title>B</title>
</rect>
<path d="M26.8125,124.162125 Q28.953125,124.162125,30.046875,124.80275 Q31.15625,125.42775,31.15625,126.99025 Q31.15625,127.662125,30.90625,128.19337 Q30.65625,128.709,30.171875,129.05275 Q29.6875,129.3965,28.96875,129.5215 L28.96875,129.59962 Q29.703125,129.709,30.28125,130.0215 Q30.859375,130.31837,31.1875,130.88087 Q31.53125,131.44337,31.53125,132.334 Q31.53125,133.38087,31.046875,134.11525 Q30.578125,134.834,29.6875,135.209 Q28.796875,135.584,27.5625,135.584 L23.546875,135.584 L23.546875,124.162125 ZM27.109375,129.0215 Q28.578125,129.0215,29.109375,128.55275 Q29.65625,128.084,29.65625,127.1465 Q29.65625,126.209,29,125.80275 Q28.34375,125.3965,26.875,125.3965 L24.984375,125.3965 L24.984375,129.0215 ZM24.984375,130.22462 L24.984375,134.36525 L27.296875,134.36525 Q28.8125,134.36525,29.40625,133.7715 Q30,133.17775,30,132.22462 Q30,131.61525,29.734375,131.17775 Q29.46875,130.72462,28.84375,130.47462 Q28.234375,130.22462,27.1875,130.22462 Z" fill="black">
<title>B</title>
</path>
</g>
<g>
<rect fill="white" height="37.792" stroke="black" stroke-width="1" width="34.112" x="94.399994" y="110.479996">
<title>C</title>
</rect>
<path d="M112.85312,125.2715 Q111.931244,125.2715,111.19687,125.584 Q110.462494,125.880875,109.94687,126.49025 Q109.44687,127.084,109.16562,127.943375 Q108.899994,128.80275,108.899994,129.86525 Q108.899994,131.28712,109.337494,132.334 Q109.774994,133.36525,110.649994,133.92775 Q111.524994,134.47462,112.837494,134.47462 Q113.587494,134.47462,114.25937,134.34962 Q114.931244,134.22462,115.57187,134.03712 L115.57187,135.28712 Q114.931244,135.5215,114.243744,135.63087 Q113.57187,135.74025,112.618744,135.74025 Q110.88437,135.74025,109.712494,135.0215 Q108.54062,134.30275,107.94687,132.97462 Q107.368744,131.6465,107.368744,129.84962 Q107.368744,128.55275,107.72812,127.49025 Q108.10312,126.412125,108.79062,125.630875 Q109.493744,124.849625,110.50937,124.42775 Q111.54062,124.005875,112.868744,124.005875 Q113.743744,124.005875,114.556244,124.17775 Q115.368744,124.349625,116.00937,124.67775 L115.44687,125.880875 Q114.91562,125.6465,114.25937,125.459 Q113.618744,125.2715,112.85312,125.2715 Z" fill="black">
<title>C</title>
</path>
</g>
<g filter="url(#green-glow)">
<rect fill="white" height="37.792" stroke="black" stroke-width="1" width="35.68" x="51.488003" y="210.96">
<title>D</title>
</rect>
<path d="M74.19113,230.23589 Q74.19113,232.15776,73.47238,233.45464 Q72.76926,234.75151,71.44113,235.40776 Q70.11301,236.06401,68.22238,236.06401 L65.03488,236.06401 L65.03488,224.64214 L68.56613,224.64214 Q70.28488,224.64214,71.55051,225.28276 Q72.81613,225.92339,73.50363,227.17339 Q74.19113,228.40776,74.19113,230.23589 ZM72.67551,230.28276 Q72.67551,228.76714,72.15988,227.79839 Q71.65988,226.81401,70.69113,226.34526 Q69.72238,225.87651,68.34738,225.87651 L66.47238,225.87651 L66.47238,234.82964 L68.03488,234.82964 Q70.34738,234.82964,71.50363,233.68901 Q72.67551,232.54839,72.67551,230.28276 Z" fill="black">
<title>D</title>
</path>
</g>
</svg>