<svg viewBox="0 0 139.512 259.752" xmlns="http://www.w3.org/2000/svg">
<rect fill="transparent" height="259.752" stroke="transparent" width="139.512" x="0" y="0"/>
<defs>
<filter height="300%" id="red-glow" width="300%" x="-100%" y="-100%">
<feFlood flood-color="red" flood-opacity="0.5" in="SourceGraphic"/>
<feComposite in2="SourceGraphic" operator="in"/>
<feGaussianBlur stdDeviation="5"/>
<feComponentTransfer result="glow1">
<feFuncA intercept="0" slope="4" type="linear"/>
</feComponentTransfer>
<feMerge>
<feMergeNode in="glow1"/>
<feMergeNode in="SourceGraphic"/>
</feMerge>
</filter>
<filter height="300%" id="green-glow" width="300%" x="-100%" y="-100%">
<feFlood flood-color="green" flood-opacity="0.5" in="SourceGraphic"/>
<feComposite in2="SourceGraphic" operator="in"/>
<feGaussianBlur stdDeviation="5"/>
<feComponentTransfer result="glow1">
<feFuncA intercept="0" slope="4" type="linear"/>
</feComponentTransfer>
<feMerge>
<feMergeNode in="glow1"/>
<feMergeNode in="SourceGraphic"/>
</feMerge>
</filter>
<filter height="300%" id="orange-glow" width="300%" x="-100%" y="-100%">
<feFlood flood-color="orange" flood-opacity="0.5" in="SourceGraphic"/>
<feComposite in2="SourceGraphic" operator="in"/>
<feGaussianBlur stdDeviation="5"/>
<feComponentTransfer result="glow1">
<feFuncA intercept="0" slope="4" type="linear"/>
</feComponentTransfer>
<feMerge>
<feMergeNode in="glow1"/>
<feMergeNode in="SourceGraphic"/>
</feMerge>
</filter>
</defs>
<g>
<path d="M53.483044,47.792 C44.72203,58.24,27.2,68.688,27.2,79.136 C27.2,89.584,27.2,100.032,27.2,110.479996" fill="none" stroke="black" stroke-width="1">
<title>A -&gt; B</title>
</path>
<polygon fill="black" points="27.2,110.479996 31.199999,100.479996 23.199999,100.479996 27.2,110.479996" stroke="black" stroke-width="1">
<title>A -&gt; B</title>
</polygon>
</g>
<g>
<path d="M85.17296,47.792 C93.93397,58.24,111.45599,68.688,111.45599,79.136 C111.45599,89.584,111.45599,100.032,111.45599,110.479996" fill="none" stroke="black" stroke-width="1">
<title>A -&gt; C</title>
</path>
<polygon fill="black" points="111.45599,110.479996 115.45599,100.479996 107.45599,100.479996 111.45599,110.479996" stroke="black" stroke-width="1">
<title>A -&gt; C</title>
</polygon>
</g>
<g filter="url(#red-glow)">
<path d="M27.2,148.27199 C27.2,158.71999,27.2,169.168,27.2,179.616 C27.2,190.064,44.72203,200.51201,53.483047,210.96" fill="none" stroke="black" stroke-width="1">
<title>B -&gt; D</title>
</path>
<polygon fill="black" points="53.483047,210.96 49.330677,201.02231 43.622578,206.62744 53.483047,210.96" stroke="black" stroke-width="1">
<title>B -&gt; D</title>
</polygon>
</g>
<g filter="url(#red-glow)">
<path d="M111.45599,148.27199 C111.45599,158.71999,111.45599,169.168,111.45599,179.616 C111.45599,190.064,93.93397,200.51201,85.17295,210.96" fill="none" stroke="black" stroke-width="1">
<title>C -&gt; D</title>
</path>
<polygon fill="black" points="85.17295,210.96 95.03343,206.62746 89.32533,201.02232 85.17295,210.96" stroke="black" stroke-width="1">
<title>C -&gt; D</title>
</polygon>
</g>
<g filter="url(#orange-glow)">
<rect fill="white" height="37.792" stroke="black" stroke-width="1" width="34.224" x="52.216003" y="10">
<title>A</title>
</rect>
<path d="M72.93475,35.104 L71.55975,31.57275 L67.0285,31.57275 L65.66913,35.104 L64.216,35.104 L68.68475,23.63525 L69.98163,23.63525 L74.41913,35.104 ZM69.841,26.838375 Q69.79413,26.69775,69.68475,26.369625 Q69.57538,26.025875,69.466,25.6665 Q69.37225,25.307125,69.30975,25.119625 Q69.23163,25.44775,69.13788,25.775875 Q69.04413,26.088375,68.95038,26.369625 Q68.87225,26.63525,68.80975,26.838375 L67.51288,30.2915 L71.12225,30.2915 Z" fill="black">
<title>A</title>
</path>
</g>
<g>
<rect fill="white" height="37.792" stroke="black" stroke-width="1" width="34.4" x="10" y="110.479996">
<title>B</title>
</rect>
<path d="M26.8125,124.162125 Q28.953125,124.162125,30.046875,124.80275 Q31.15625,125.42775,31.15625,126.99025 Q31.15625,127.662125,30.90625,128.19337 Q30.65625,128.709,30.171875,129.05275 Q29.6875,129.3965,28.96875,129.5215 L28.96875,129.59962 Q29.703125,129.709,30.28125,130.0215 Q30.859375,130.31837,31.1875,130.88087 Q31.53125,131.44337,31.53125,132.334 Q31.53125,133.38087,31.046875,134.11525 Q30.578125,134.834,29.6875,135.209 Q28.796875,135.584,27.5625,135.584 L23.546875,135.584 L23.546875,124.162125 ZM27.109375,129.0215 Q28.578125,129.0215,29.109375,128.55275 Q29.65625,128.084,29.65625,127.1465 Q29.65625,126.209,29,125.80275 Q28.34375,125.3965,26.875,125.3965 L24.984375,125.3965 L24.984375,129.0215 ZM24.984375,130.22462 L24.984375,134.36525 L27.296875,134.36525 Q28.8125,134.36525,29.40625,133.7715 Q30,133.17775,30,132.22462 Q30,131.61525,29.734375,131.17775 Q29.46875,130.72462,28.84375,130.47462 Q28.234375,130.22462,27.1875,130.22462 Z" fill="black">
<title>B</title>
</path>
</g>
<g>
<rect fill="white" height="37.792" stroke="black" stroke-width="1" width="34.112" x="94.399994" y="110.479996">
<title>C</title>
</rect>
<path d="M112.85312,125.2715 Q111.931244,125.2715,111.19687,125.584 Q110.462494,125.880875,109.94687,126.49025 Q109.44687,127.084,109.16562,127.943375 Q108.899994,128.80275,108.899994,129.86525 Q108.899994,131.28712,109.337494,132.334 Q109.774994,133.36525,110.649994,133.92775 Q111.524994,134.47462,112.837494,134.47462 Q113.587494,134.47462,114.25937,134.34962 Q114.931244,134.22462,115.57187,134.03712 L115.57187,135.28712 Q114.931244,135.5215,114.243744,135.63087 Q113.57187,135.74025,112.618744,135.74025 Q110.88437,135.74025,109.712494,135.0215 Q108.54062,134.30275,107.94687,132.97462 Q107.368744,131.6465,107.368744,129.84962 Q107.368744,128.55275,107.72812,127.49025 Q108.10312,126.412125,108.79062,125.630875 Q109.493744,124.849625,110.50937,124.42775 Q111.54062,124.005875,112.868744,124.005875 Q113.743744,124.005875,114.556244,124.17775 Q115.368744,124.349625,116.00937,124.67775 L115.44687,125.880875 Q114.91562,125.6465,114.25937,125.459 Q113.618744,125.2715,112.85312,125.2715 Z" fill="black">
<title>C</title>
</path>
</g>
<g filter="url(#red-glow)">
<rect fill="white" height="37.792" stroke="black" stroke-width="1" width="35.68" x="51.488003" y="210.96">
<title>D</title>
</rect>
<path d="M74.19113,230.23589 Q74.19113,232.15776,73.47238,233.45464 Q72.76926,234.75151,71.44113,235.40776 Q70.11301,236.06401,68.22238,236.06401 L65.03488,236.06401 L65.03488,224.64214 L68.56613,224.64214 Q70.28488,224.64214,71.55051,225.28276 Q72.81613,225.92339,73.50363,227.17339 Q74.19113,228.40776,74.19113,230.23589 ZM72.67551,230.28276 Q72.67551,228.76714,72.15988,227.79839 Q71.65988,226.81401,70.69113,226.34526 Q69.72238,225.87651,68.34738,225.87651 L66.47238,225.87651 L66.47238,234.82964 L68.03488,234.82964 Q70.34738,234.82964,71.50363,233.68901 Q72.67551,232.54839,72.67551,230.28276 Z" fill="black">
<title>D</title>
</path>
</g>
</svg>