<svg height="234.37599" viewBox="0 0 139.512 234.37599" width="139.512" xmlns="http://www.w3.org/2000/svg" xmlns:ev="http://www.w3.org/2001/xml-events" xmlns:xlink="http://www.w3.org/1999/xlink">
<g class="graph" id="graph-0">
<g id="a-graph-0">
<a>
<rect fill="transparent" height="234.37599" stroke="transparent" width="139.512" x="0" y="0"/>
</a>
</g>
</g>
<defs>
<filter height="300%" id="red-glow" width="300%" x="-100%" y="-100%">
<feFlood flood-color="red" flood-opacity="0.5" in="SourceGraphic"/>
<feComposite in2="SourceGraphic" operator="in"/>
<feGaussianBlur stdDeviation="5"/>
<feComponentTransfer result="glow1">
<feFuncA intercept="0" slope="4" type="linear"/>
</feComponentTransfer>
<feMerge>
<feMergeNode in="glow1"/>
<feMergeNode in="SourceGraphic"/>
</feMerge>
</filter>
<filter height="300%" id="green-glow" width="300%" x="-100%" y="-100%">
<feFlood flood-color="green" flood-opacity="0.5" in="SourceGraphic"/>
<feComposite in2="SourceGraphic" operator="in"/>
<feGaussianBlur stdDeviation="5"/>
<feComponentTransfer result="glow1">
<feFuncA intercept="0" slope="4" type="linear"/>
</feComponentTransfer>
<feMerge>
<feMergeNode in="glow1"/>
<feMergeNode in="SourceGraphic"/>
</feMerge>
</filter>
<filter height="300%" id="orange-glow" width="300%" x="-100%" y="-100%">
<feFlood flood-color="orange" flood-opacity="0.5" in="SourceGraphic"/>
<feComposite in2="SourceGraphic" operator="in"/>
<feGaussianBlur stdDeviation="5"/>
<feComponentTransfer result="glow1">
<feFuncA intercept="0" slope="4" type="linear"/>
</feComponentTransfer>
<feMerge>
<feMergeNode in="glow1"/>
<feMergeNode in="SourceGraphic"/>
</feMerge>
</filter>
</defs>
<g class="edge" id="edge-0">
<title>A -&gt; B</title>
<g id="a-edge-0">
<a title="A -&gt; B" xlink:title="A -&gt; B">
<path d="M52.216003,46.726143 C43.877335,55.41476,27.2,64.10338,27.2,72.792 C27.2,81.125336,27.2,89.45867,27.2,97.79201" fill="none" stroke="black" stroke-width="1"/>
<polygon fill="black" points="27.2,97.79201 31.2,87.79201 23.2,87.79201 27.2,97.79201" stroke="black" stroke-width="1"/>
</a>
</g>
</g>
<g class="edge" id="edge-1">
<title>A -&gt; C</title>
<g id="a-edge-1">
<a title="A -&gt; C" xlink:title="A -&gt; C">
<path d="M86.44,46.726147 C94.77866,55.414764,111.45599,64.10338,111.45599,72.792 C111.45599,81.125336,111.45599,89.45867,111.45599,97.79201" fill="none" stroke="black" stroke-width="1"/>
<polygon fill="black" points="111.45599,97.79201 115.45599,87.79201 107.45599,87.79201 111.45599,97.79201" stroke="black" stroke-width="1"/>
</a>
</g>
</g>
<g class="edge" id="edge-2">
<title>B -&gt; D</title>
<g id="a-edge-2">
<a filter="url(#red-glow)" title="B -&gt; D" xlink:title="B -&gt; D">
<path d="M27.2,135.584 C27.2,143.91733,27.2,152.25067,27.2,160.584 C27.2,169.01976,43.392002,177.45554,51.488003,185.8913" fill="none" stroke="black" stroke-width="1"/>
<polygon fill="black" points="51.488003,185.8913 46.578506,176.30501 41.321617,182.33537 51.488003,185.8913" stroke="black" stroke-width="1"/>
</a>
</g>
</g>
<g class="edge" id="edge-3">
<title>C -&gt; D</title>
<g id="a-edge-3">
<a filter="url(#red-glow)" title="C -&gt; D" xlink:title="C -&gt; D">
<path d="M111.45599,135.584 C111.45599,143.91733,111.45599,152.25067,111.45599,160.584 C111.45599,169.01976,95.264,177.45554,87.168,185.8913" fill="none" stroke="black" stroke-width="1"/>
<polygon fill="black" points="87.168,185.8913 97.33438,182.33537 92.0775,176.30501 87.168,185.8913" stroke="black" stroke-width="1"/>
</a>
</g>
</g>
<g class="node" id="node-0">
<title>A</title>
<g id="a-node-0">
<a filter="url(#orange-glow)" title="A" xlink:title="A">
<rect fill="white" height="37.792" stroke="black" stroke-width="1" width="34.224" x="52.216003" y="10"/>
<path d="M72.93475,35.104 L71.55975,31.57275 L67.0285,31.57275 L65.66913,35.104 L64.216,35.104 L68.68475,23.63525 L69.98163,23.63525 L74.41913,35.104 ZM69.841,26.838375 Q69.79413,26.69775,69.68475,26.369625 Q69.57538,26.025875,69.466,25.6665 Q69.37225,25.307125,69.30975,25.119625 Q69.23163,25.44775,69.13788,25.775875 Q69.04413,26.088375,68.95038,26.369625 Q68.87225,26.63525,68.80975,26.838375 L67.51288,30.2915 L71.12225,30.2915 Z" fill="black"/>
</a>
</g>
</g>
<g class="node" id="node-1">
<title>B</title>
<g id="a-node-1">
<a title="B" xlink:title="B">
<rect fill="white" height="37.792" stroke="black" stroke-width="1" width="34.4" x="10" y="97.79201"/>
<path d="M26.8125,111.47414 Q28.953125,111.47414,30.046875,112.11476 Q31.15625,112.73976,31.15625,114.30226 Q31.15625,114.97414,30.90625,115.50539 Q30.65625,116.02101,30.171875,116.36476 Q29.6875,116.70851,28.96875,116.83351 L28.96875,116.91164 Q29.703125,117.02101,30.28125,117.33351 Q30.859375,117.63039,31.1875,118.19289 Q31.53125,118.75539,31.53125,119.64601 Q31.53125,120.69289,31.046875,121.42726 Q30.578125,122.14601,29.6875,122.52101 Q28.796875,122.89601,27.5625,122.89601 L23.546875,122.89601 L23.546875,111.47414 ZM27.109375,116.33351 Q28.578125,116.33351,29.109375,115.86476 Q29.65625,115.39601,29.65625,114.45851 Q29.65625,113.52101,29,113.11476 Q28.34375,112.70851,26.875,112.70851 L24.984375,112.70851 L24.984375,116.33351 ZM24.984375,117.53664 L24.984375,121.67726 L27.296875,121.67726 Q28.8125,121.67726,29.40625,121.08351 Q30,120.48976,30,119.53664 Q30,118.92726,29.734375,118.48976 Q29.46875,118.03664,28.84375,117.78664 Q28.234375,117.53664,27.1875,117.53664 Z" fill="black"/>
</a>
</g>
</g>
<g class="node" id="node-2">
<title>C</title>
<g id="a-node-2">
<a title="C" xlink:title="C">
<rect fill="white" height="37.792" stroke="black" stroke-width="1" width="34.112" x="94.399994" y="97.79201"/>
<path d="M112.85312,112.58351 Q111.931244,112.58351,111.19687,112.89601 Q110.462494,113.19289,109.94687,113.80226 Q109.44687,114.39601,109.16562,115.25539 Q108.899994,116.11476,108.899994,117.17726 Q108.899994,118.59914,109.337494,119.64601 Q109.774994,120.67726,110.649994,121.23976 Q111.524994,121.78664,112.837494,121.78664 Q113.587494,121.78664,114.25937,121.66164 Q114.931244,121.53664,115.57187,121.34914 L115.57187,122.59914 Q114.931244,122.83351,114.243744,122.94289 Q113.57187,123.05226,112.618744,123.05226 Q110.88437,123.05226,109.712494,122.33351 Q108.54062,121.61476,107.94687,120.28664 Q107.368744,118.95851,107.368744,117.16164 Q107.368744,115.86476,107.72812,114.80226 Q108.10312,113.72414,108.79062,112.94289 Q109.493744,112.16164,110.50937,111.73976 Q111.54062,111.31789,112.868744,111.31789 Q113.743744,111.31789,114.556244,111.48976 Q115.368744,111.66164,116.00937,111.98976 L115.44687,113.19289 Q114.91562,112.95851,114.25937,112.77101 Q113.618744,112.58351,112.85312,112.58351 Z" fill="black"/>
</a>
</g>
</g>
<g class="node" id="node-3">
<title>D</title>
<g id="a-node-3">
<a filter="url(#red-glow)" title="D" xlink:title="D">
<rect fill="white" height="37.792" stroke="black" stroke-width="1" width="35.68" x="51.488003" y="185.584"/>
<path d="M74.19113,204.85988 Q74.19113,206.78175,73.47238,208.07863 Q72.76926,209.3755,71.44113,210.03175 Q70.11301,210.688,68.22238,210.688 L65.03488,210.688 L65.03488,199.26613 L68.56613,199.26613 Q70.28488,199.26613,71.55051,199.90675 Q72.81613,200.54738,73.50363,201.79738 Q74.19113,203.03175,74.19113,204.85988 ZM72.67551,204.90675 Q72.67551,203.39113,72.15988,202.42238 Q71.65988,201.438,70.69113,200.96925 Q69.72238,200.5005,68.34738,200.5005 L66.47238,200.5005 L66.47238,209.45363 L68.03488,209.45363 Q70.34738,209.45363,71.50363,208.313 Q72.67551,207.17238,72.67551,204.90675 Z" fill="black"/>
</a>
</g>
</g>
</svg>