<svg height="747.69" viewBox="0 0 1821.9353 747.69" width="1821.9353" xmlns="http://www.w3.org/2000/svg" xmlns:ev="http://www.w3.org/2001/xml-events" xmlns:xlink="http://www.w3.org/1999/xlink">
<g class="graph" id="graph-0">
<g id="a-graph-0">
<a>
<rect fill="transparent" height="747.69" stroke="transparent" width="1821.9353" x="0" y="0"/>
</a>
</g>
</g>
<defs>
<filter height="300%" id="red-glow" width="300%" x="-100%" y="-100%">
<feFlood flood-color="red" flood-opacity="0.5" in="SourceGraphic"/>
<feComposite in2="SourceGraphic" operator="in"/>
<feGaussianBlur stdDeviation="5"/>
<feComponentTransfer result="glow1">
<feFuncA intercept="0" slope="4" type="linear"/>
</feComponentTransfer>
<feMerge>
<feMergeNode in="glow1"/>
<feMergeNode in="SourceGraphic"/>
</feMerge>
</filter>
<filter height="300%" id="green-glow" width="300%" x="-100%" y="-100%">
<feFlood flood-color="green" flood-opacity="0.5" in="SourceGraphic"/>
<feComposite in2="SourceGraphic" operator="in"/>
<feGaussianBlur stdDeviation="5"/>
<feComponentTransfer result="glow1">
<feFuncA intercept="0" slope="4" type="linear"/>
</feComponentTransfer>
<feMerge>
<feMergeNode in="glow1"/>
<feMergeNode in="SourceGraphic"/>
</feMerge>
</filter>
<filter height="300%" id="orange-glow" width="300%" x="-100%" y="-100%">
<feFlood flood-color="orange" flood-opacity="0.5" in="SourceGraphic"/>
<feComposite in2="SourceGraphic" operator="in"/>
<feGaussianBlur stdDeviation="5"/>
<feComponentTransfer result="glow1">
<feFuncA intercept="0" slope="4" type="linear"/>
</feComponentTransfer>
<feMerge>
<feMergeNode in="glow1"/>
<feMergeNode in="SourceGraphic"/>
</feMerge>
</filter>
</defs>
<g class="edge" id="edge-0">
<title>0 -&gt; 1</title>
<g id="a-edge-0">
<a title="0 -&gt; 1" xlink:title="0 -&gt; 1">
<path d="M883.9477,38.446396 Q454.05786,108.032005,454.05786,155.96179" fill="none" stroke="#00FFE7FF" stroke-width="2"/>
<polygon fill="#00FFE7FF" points="454.05786,155.96179 461.55234,148.22662 454.1503,145.19186 454.05786,155.96179" stroke="#00FFE7FF" stroke-width="2"/>
<line stroke="#00FFE7FF" stroke-width="2" x1="407.48187" x2="444.05786" y1="132.376" y2="132.376"/>
<path d="M421.81,117.344 L421.81,100.20338 L423.96625,100.20338 L423.96625,115.42213 L431.45062,115.42213 L431.45062,117.344 Z" fill="#111111"/>
</a>
</g>
</g>
<g class="edge" id="edge-1">
<title>0 -&gt; 2</title>
<g id="a-edge-1">
<a title="0 -&gt; 2" xlink:title="0 -&gt; 2">
<path d="M934.6357,38.446396 Q1364.5254,108.032005,1364.5254,166.45963" fill="none" stroke="#00FFE7FF" stroke-width="2"/>
<polygon fill="#00FFE7FF" points="1364.5254,166.45963 1365.5183,155.73515 1357.8481,158.00893 1364.5254,166.45963" stroke="#00FFE7FF" stroke-width="2"/>
<line stroke="#00FFE7FF" stroke-width="2" x1="1374.5254" x2="1413.4534" y1="132.376" y2="132.376"/>
<path d="M1393.5879,100.20338 Q1395.7129,100.20338,1397.0879,100.75025 Q1398.4785,101.2815,1399.1504,102.37525 Q1399.8223,103.45338,1399.8223,105.07838 Q1399.8223,106.45338,1399.3066,107.35963 Q1398.8066,108.26588,1398.0254,108.81275 Q1397.2598,109.35963,1396.3848,109.6565 L1401.0879,117.344 L1398.5723,117.344 L1394.416,110.26588 L1391.0098,110.26588 L1391.0098,117.344 L1388.8535,117.344 L1388.8535,100.20338 ZM1393.4629,102.07838 L1391.0098,102.07838 L1391.0098,108.43775 L1393.5879,108.43775 Q1395.666,108.43775,1396.6191,107.60963 Q1397.5879,106.7815,1397.5879,105.17213 Q1397.5879,104.04713,1397.1348,103.37525 Q1396.6973,102.70338,1395.791,102.39088 Q1394.8848,102.07838,1393.4629,102.07838 Z" fill="#111111"/>
</a>
</g>
</g>
<g class="edge" id="edge-2">
<title>1 -&gt; 3</title>
<g id="a-edge-2">
<a title="1 -&gt; 3" xlink:title="1 -&gt; 3">
<path d="M427.85843,201.446 Q226.44093,275.57523,226.44093,323.50504" fill="none" stroke="#A4FF00FF" stroke-width="2"/>
<polygon fill="#A4FF00FF" points="226.44093,323.50504 232.35408,314.5031 224.51463,312.9084 226.44093,323.50504" stroke="#A4FF00FF" stroke-width="2"/>
<line stroke="#A4FF00FF" stroke-width="2" x1="179.86494" x2="216.44093" y1="299.91922" y2="299.91922"/>
<path d="M194.19307,284.88724 L194.19307,267.7466 L196.34932,267.7466 L196.34932,282.96536 L203.8337,282.96536 L203.8337,284.88724 Z" fill="#111111"/>
</a>
</g>
</g>
<g class="edge" id="edge-3">
<title>1 -&gt; 4</title>
<g id="a-edge-3">
<a title="1 -&gt; 4" xlink:title="1 -&gt; 4">
<path d="M480.2573,201.446 Q681.67474,275.57523,681.67474,334.00287" fill="none" stroke="#A4FF00FF" stroke-width="2"/>
<polygon fill="#A4FF00FF" points="681.67474,334.00287 684.218,323.53714 676.2987,324.6702 681.67474,334.00287" stroke="#A4FF00FF" stroke-width="2"/>
<line stroke="#A4FF00FF" stroke-width="2" x1="691.67474" x2="730.6027" y1="299.91922" y2="299.91922"/>
<path d="M710.73724,267.7466 Q712.86224,267.7466,714.23724,268.2935 Q715.62787,268.82474,716.29974,269.9185 Q716.9716,270.9966,716.9716,272.6216 Q716.9716,273.9966,716.456,274.90286 Q715.956,275.8091,715.17474,276.356 Q714.4091,276.90286,713.5341,277.19974 L718.23724,284.88724 L715.7216,284.88724 L711.56537,277.8091 L708.1591,277.8091 L708.1591,284.88724 L706.00287,284.88724 L706.00287,267.7466 ZM710.61224,269.6216 L708.1591,269.6216 L708.1591,275.981 L710.73724,275.981 Q712.81537,275.981,713.7685,275.15286 Q714.73724,274.32474,714.73724,272.71536 Q714.73724,271.59036,714.2841,270.9185 Q713.8466,270.2466,712.94037,269.9341 Q712.0341,269.6216,710.61224,269.6216 Z" fill="#111111"/>
</a>
</g>
</g>
<g class="edge" id="edge-4">
<title>2 -&gt; 5</title>
<g id="a-edge-4">
<a title="2 -&gt; 5" xlink:title="2 -&gt; 5">
<path d="M1339.1814,201.13116 Q1136.9086,275.57523,1136.9086,323.50504" fill="none" stroke="#7300FFFF" stroke-width="2"/>
<polygon fill="#7300FFFF" points="1136.9086,323.50504 1142.8279,314.5071 1134.9895,312.90707 1136.9086,323.50504" stroke="#7300FFFF" stroke-width="2"/>
<line stroke="#7300FFFF" stroke-width="2" x1="1090.3326" x2="1126.9086" y1="299.91922" y2="299.91922"/>
<path d="M1104.6608,284.88724 L1104.6608,267.7466 L1106.817,267.7466 L1106.817,282.96536 L1114.3014,282.96536 L1114.3014,284.88724 Z" fill="#111111"/>
</a>
</g>
</g>
<g class="edge" id="edge-5">
<title>2 -&gt; 6</title>
<g id="a-edge-5">
<a title="2 -&gt; 6" xlink:title="2 -&gt; 6">
<path d="M1389.8694,201.13116 Q1592.1423,275.57523,1592.1423,334.00287" fill="none" stroke="#7300FFFF" stroke-width="2"/>
<polygon fill="#7300FFFF" points="1592.1423,334.00287 1594.6799,323.53577 1586.7612,324.67316 1592.1423,334.00287" stroke="#7300FFFF" stroke-width="2"/>
<line stroke="#7300FFFF" stroke-width="2" x1="1602.1423" x2="1641.0703" y1="299.91922" y2="299.91922"/>
<path d="M1621.2048,267.7466 Q1623.3298,267.7466,1624.7048,268.2935 Q1626.0955,268.82474,1626.7673,269.9185 Q1627.4392,270.9966,1627.4392,272.6216 Q1627.4392,273.9966,1626.9236,274.90286 Q1626.4236,275.8091,1625.6423,276.356 Q1624.8767,276.90286,1624.0017,277.19974 L1628.7048,284.88724 L1626.1892,284.88724 L1622.033,277.8091 L1618.6267,277.8091 L1618.6267,284.88724 L1616.4705,284.88724 L1616.4705,267.7466 ZM1621.0798,269.6216 L1618.6267,269.6216 L1618.6267,275.981 L1621.2048,275.981 Q1623.283,275.981,1624.2361,275.15286 Q1625.2048,274.32474,1625.2048,272.71536 Q1625.2048,271.59036,1624.7517,270.9185 Q1624.3142,270.2466,1623.408,269.9341 Q1622.5017,269.6216,1621.0798,269.6216 Z" fill="#111111"/>
</a>
</g>
</g>
<g class="edge" id="edge-6">
<title>3 -&gt; 7</title>
<g id="a-edge-6">
<a title="3 -&gt; 7" xlink:title="3 -&gt; 7">
<path d="M205.79561,374.54337 Q112.63246,443.11847,112.63246,493.00552" fill="none" stroke="#FF9400FF" stroke-width="2"/>
<polygon fill="#FF9400FF" points="112.63246,493.00552 117.51198,483.40396 109.54413,482.68747 112.63246,493.00552" stroke="#FF9400FF" stroke-width="2"/>
<line stroke="#FF9400FF" stroke-width="2" x1="66.05646" x2="102.63246" y1="467.46246" y2="467.46246"/>
<path d="M80.38458,452.43048 L80.38458,435.28986 L82.54083,435.28986 L82.54083,450.5086 L90.02521,450.5086 L90.02521,452.43048 Z" fill="#111111"/>
</a>
</g>
</g>
<g class="edge" id="edge-7">
<title>3 -&gt; 8</title>
<g id="a-edge-7">
<a title="3 -&gt; 8" xlink:title="3 -&gt; 8">
<path d="M247.08624,374.54337 Q340.2494,443.11847,340.2494,503.50336" fill="none" stroke="#FF9400FF" stroke-width="2"/>
<polygon fill="#FF9400FF" points="340.2494,503.50336 343.61328,493.27182 335.6291,493.77438 340.2494,503.50336" stroke="#FF9400FF" stroke-width="2"/>
<line stroke="#FF9400FF" stroke-width="2" x1="350.2494" x2="389.17737" y1="467.46246" y2="467.46246"/>
<path d="M369.3119,435.28986 Q371.4369,435.28986,372.8119,435.83673 Q374.2025,436.36798,374.8744,437.46173 Q375.54626,438.53986,375.54626,440.16486 Q375.54626,441.53986,375.03064,442.4461 Q374.53064,443.35236,373.7494,443.89923 Q372.98376,444.4461,372.10876,444.74298 L376.8119,452.43048 L374.29626,452.43048 L370.14,445.35236 L366.73376,445.35236 L366.73376,452.43048 L364.5775,452.43048 L364.5775,435.28986 ZM369.1869,437.16486 L366.73376,437.16486 L366.73376,443.52423 L369.3119,443.52423 Q371.39,443.52423,372.34314,442.6961 Q373.3119,441.86798,373.3119,440.2586 Q373.3119,439.1336,372.85876,438.46173 Q372.42126,437.78986,371.515,437.47736 Q370.60876,437.16486,369.1869,437.16486 Z" fill="#111111"/>
</a>
</g>
</g>
<g class="edge" id="edge-8">
<title>4 -&gt; 9</title>
<g id="a-edge-8">
<a title="4 -&gt; 9" xlink:title="4 -&gt; 9">
<path d="M656.33075,378.00195 Q567.8663,443.11847,567.8663,493.00552" fill="none" stroke="#00FF21FF" stroke-width="2"/>
<polygon fill="#00FF21FF" points="567.8663,493.00552 572.7075,483.38455 564.7368,482.69986 567.8663,493.00552" stroke="#00FF21FF" stroke-width="2"/>
<line stroke="#00FF21FF" stroke-width="2" x1="521.2902" x2="557.8663" y1="467.46246" y2="467.46246"/>
<path d="M535.61835,452.43048 L535.61835,435.28986 L537.7746,435.28986 L537.7746,450.5086 L545.259,450.5086 L545.259,452.43048 Z" fill="#111111"/>
</a>
</g>
</g>
<g class="edge" id="edge-9">
<title>4 -&gt; 10</title>
<g id="a-edge-9">
<a title="4 -&gt; 10" xlink:title="4 -&gt; 10">
<path d="M707.01874,378.00195 Q795.4832,443.11847,795.4832,502.11935" fill="none" stroke="#00FF21FF" stroke-width="2"/>
<polygon fill="#00FF21FF" points="795.4832,502.11935 798.84906,491.88846 790.8648,492.3895 795.4832,502.11935" stroke="#00FF21FF" stroke-width="2"/>
<line stroke="#00FF21FF" stroke-width="2" x1="805.4832" x2="844.4112" y1="467.46246" y2="467.46246"/>
<path d="M824.5457,435.28986 Q826.6707,435.28986,828.0457,435.83673 Q829.43634,436.36798,830.1082,437.46173 Q830.7801,438.53986,830.7801,440.16486 Q830.7801,441.53986,830.26447,442.4461 Q829.76447,443.35236,828.9832,443.89923 Q828.2176,444.4461,827.3426,444.74298 L832.0457,452.43048 L829.5301,452.43048 L825.37384,445.35236 L821.9676,445.35236 L821.9676,452.43048 L819.81134,452.43048 L819.81134,435.28986 ZM824.4207,437.16486 L821.9676,437.16486 L821.9676,443.52423 L824.5457,443.52423 Q826.62384,443.52423,827.57697,442.6961 Q828.5457,441.86798,828.5457,440.2586 Q828.5457,439.1336,828.0926,438.46173 Q827.6551,437.78986,826.74884,437.47736 Q825.8426,437.16486,824.4207,437.16486 Z" fill="#111111"/>
</a>
</g>
</g>
<g class="edge" id="edge-10">
<title>5 -&gt; 11</title>
<g id="a-edge-10">
<a title="5 -&gt; 11" xlink:title="5 -&gt; 11">
<path d="M1116.2633,374.54337 Q1023.10016,443.11847,1023.10016,491.04825" fill="none" stroke="#0052FFFF" stroke-width="2"/>
<polygon fill="#0052FFFF" points="1023.10016,491.04825 1028.0448,481.48004 1020.08203,480.70947 1023.10016,491.04825" stroke="#0052FFFF" stroke-width="2"/>
<line stroke="#0052FFFF" stroke-width="2" x1="976.5241" x2="1013.10016" y1="467.46246" y2="467.46246"/>
<path d="M990.85223,452.43048 L990.85223,435.28986 L993.0085,435.28986 L993.0085,450.5086 L1000.49286,450.5086 L1000.49286,452.43048 Z" fill="#111111"/>
</a>
</g>
</g>
<g class="edge" id="edge-11">
<title>5 -&gt; 12</title>
<g id="a-edge-11">
<a title="5 -&gt; 12" xlink:title="5 -&gt; 12">
<path d="M1157.5538,374.54337 Q1250.717,443.11847,1250.717,502.11935" fill="none" stroke="#0052FFFF" stroke-width="2"/>
<polygon fill="#0052FFFF" points="1250.717,502.11935 1254.0522,491.87845 1246.0696,492.40335 1250.717,502.11935" stroke="#0052FFFF" stroke-width="2"/>
<line stroke="#0052FFFF" stroke-width="2" x1="1260.717" x2="1299.645" y1="467.46246" y2="467.46246"/>
<path d="M1279.7795,435.28986 Q1281.9045,435.28986,1283.2795,435.83673 Q1284.6702,436.36798,1285.342,437.46173 Q1286.0139,438.53986,1286.0139,440.16486 Q1286.0139,441.53986,1285.4983,442.4461 Q1284.9983,443.35236,1284.217,443.89923 Q1283.4514,444.4461,1282.5764,444.74298 L1287.2795,452.43048 L1284.7639,452.43048 L1280.6077,445.35236 L1277.2014,445.35236 L1277.2014,452.43048 L1275.0452,452.43048 L1275.0452,435.28986 ZM1279.6545,437.16486 L1277.2014,437.16486 L1277.2014,443.52423 L1279.7795,443.52423 Q1281.8577,443.52423,1282.8108,442.6961 Q1283.7795,441.86798,1283.7795,440.2586 Q1283.7795,439.1336,1283.3264,438.46173 Q1282.8889,437.78986,1281.9827,437.47736 Q1281.0764,437.16486,1279.6545,437.16486 Z" fill="#111111"/>
</a>
</g>
</g>
<g class="edge" id="edge-12">
<title>6 -&gt; 13</title>
<g id="a-edge-12">
<a title="6 -&gt; 13" xlink:title="6 -&gt; 13">
<path d="M1566.7983,378.00198 Q1478.334,443.11847,1478.334,491.04825" fill="none" stroke="#FF00C5FF" stroke-width="2"/>
<polygon fill="#FF00C5FF" points="1478.334,491.04825 1483.238,481.45914 1475.272,480.72238 1478.334,491.04825" stroke="#FF00C5FF" stroke-width="2"/>
<line stroke="#FF00C5FF" stroke-width="2" x1="1431.758" x2="1468.334" y1="467.46246" y2="467.46246"/>
<path d="M1446.0862,452.43048 L1446.0862,435.28986 L1448.2424,435.28986 L1448.2424,450.5086 L1455.7268,450.5086 L1455.7268,452.43048 Z" fill="#111111"/>
</a>
</g>
</g>
<g class="edge" id="edge-13">
<title>6 -&gt; 14</title>
<g id="a-edge-13">
<a title="6 -&gt; 14" xlink:title="6 -&gt; 14">
<path d="M1617.4863,378.00192 Q1705.9509,443.11847,1705.9509,502.11935" fill="none" stroke="#FF00C5FF" stroke-width="2"/>
<polygon fill="#FF00C5FF" points="1705.9509,502.11935 1709.3168,491.88846 1701.3324,492.3895 1705.9509,502.11935" stroke="#FF00C5FF" stroke-width="2"/>
<line stroke="#FF00C5FF" stroke-width="2" x1="1715.9509" x2="1754.8789" y1="467.46246" y2="467.46246"/>
<path d="M1735.0134,435.28986 Q1737.1384,435.28986,1738.5134,435.83673 Q1739.904,436.36798,1740.5759,437.46173 Q1741.2478,438.53986,1741.2478,440.16486 Q1741.2478,441.53986,1740.7322,442.4461 Q1740.2322,443.35236,1739.4509,443.89923 Q1738.6853,444.4461,1737.8103,444.74298 L1742.5134,452.43048 L1739.9978,452.43048 L1735.8416,445.35236 L1732.4353,445.35236 L1732.4353,452.43048 L1730.279,452.43048 L1730.279,435.28986 ZM1734.8884,437.16486 L1732.4353,437.16486 L1732.4353,443.52423 L1735.0134,443.52423 Q1737.0916,443.52423,1738.0447,442.6961 Q1739.0134,441.86798,1739.0134,440.2586 Q1739.0134,439.1336,1738.5603,438.46173 Q1738.1228,437.78986,1737.2166,437.47736 Q1736.3103,437.16486,1734.8884,437.16486 Z" fill="#111111"/>
</a>
</g>
</g>
<g class="edge" id="edge-14">
<title>7 -&gt; 15</title>
<g id="a-edge-14">
<a title="7 -&gt; 15" xlink:title="7 -&gt; 15">
<path d="M98.46198,550.5187 Q56.576,614.57623,56.576,662.50604" fill="none" stroke="#FF3100FF" stroke-width="2"/>
<polygon fill="#FF3100FF" points="56.576,662.50604 61.011913,652.69165 53.019657,652.33984 56.576,662.50604" stroke="#FF3100FF" stroke-width="2"/>
<line stroke="#FF3100FF" stroke-width="2" x1="10" x2="46.576" y1="638.9202" y2="638.9202"/>
<path d="M24.328125,623.88824 L24.328125,606.7476 L26.484375,606.7476 L26.484375,621.9664 L33.96875,621.9664 L33.96875,623.88824 Z" fill="#111111"/>
</a>
</g>
</g>
<g class="edge" id="edge-15">
<title>7 -&gt; 16</title>
<g id="a-edge-15">
<a title="7 -&gt; 16" xlink:title="7 -&gt; 16">
<path d="M126.80293,550.5187 Q168.6889,614.57623,168.6889,673.5771" fill="none" stroke="#FF3100FF" stroke-width="2"/>
<polygon fill="#FF3100FF" points="168.6889,673.5771 172.38882,663.4622 164.3924,663.70087 168.6889,673.5771" stroke="#FF3100FF" stroke-width="2"/>
<line stroke="#FF3100FF" stroke-width="2" x1="178.6889" x2="217.61691" y1="638.9202" y2="638.9202"/>
<path d="M197.7514,606.7476 Q199.8764,606.7476,201.2514,607.2945 Q202.64203,607.82574,203.3139,608.9195 Q203.98578,609.9976,203.98578,611.6226 Q203.98578,612.9976,203.47015,613.9039 Q202.97015,614.8101,202.1889,615.357 Q201.42328,615.9039,200.54828,616.20074 L205.2514,623.88824 L202.73578,623.88824 L198.57953,616.8101 L195.17328,616.8101 L195.17328,623.88824 L193.01703,623.88824 L193.01703,606.7476 ZM197.6264,608.6226 L195.17328,608.6226 L195.17328,614.982 L197.7514,614.982 Q199.82953,614.982,200.78265,614.1539 Q201.7514,613.32574,201.7514,611.7164 Q201.7514,610.5914,201.29828,609.9195 Q200.86078,609.2476,199.95453,608.9351 Q199.04828,608.6226,197.6264,608.6226 Z" fill="#111111"/>
</a>
</g>
</g>
<g class="edge" id="edge-16">
<title>8 -&gt; 17</title>
<g id="a-edge-16">
<a title="8 -&gt; 17" xlink:title="8 -&gt; 17">
<path d="M323.67743,554.19135 Q284.1929,614.57623,284.1929,662.50604" fill="none" stroke="#FFF600FF" stroke-width="2"/>
<polygon fill="#FFF600FF" points="284.1929,662.50604 288.60712,652.6818 280.61407,652.3477 284.1929,662.50604" stroke="#FFF600FF" stroke-width="2"/>
<line stroke="#FFF600FF" stroke-width="2" x1="237.61693" x2="274.19293" y1="638.9202" y2="638.9202"/>
<path d="M251.94505,623.88824 L251.94505,606.7476 L254.1013,606.7476 L254.1013,621.9664 L261.5857,621.9664 L261.5857,623.88824 Z" fill="#111111"/>
</a>
</g>
</g>
<g class="edge" id="edge-17">
<title>8 -&gt; 18</title>
<g id="a-edge-17">
<a title="8 -&gt; 18" xlink:title="8 -&gt; 18">
<path d="M356.82132,554.19135 Q396.30582,614.57623,396.30582,673.5771" fill="none" stroke="#FFF600FF" stroke-width="2"/>
<polygon fill="#FFF600FF" points="396.30582,673.5771 400.0215,663.468 392.0247,663.6942 396.30582,673.5771" stroke="#FFF600FF" stroke-width="2"/>
<line stroke="#FFF600FF" stroke-width="2" x1="406.30582" x2="445.2338" y1="638.9202" y2="638.9202"/>
<path d="M425.36832,606.7476 Q427.49332,606.7476,428.86832,607.2945 Q430.25894,607.82574,430.93082,608.9195 Q431.6027,609.9976,431.6027,611.6226 Q431.6027,612.9976,431.08707,613.9039 Q430.58707,614.8101,429.80582,615.357 Q429.0402,615.9039,428.1652,616.20074 L432.86832,623.88824 L430.3527,623.88824 L426.19644,616.8101 L422.7902,616.8101 L422.7902,623.88824 L420.63394,623.88824 L420.63394,606.7476 ZM425.24332,608.6226 L422.7902,608.6226 L422.7902,614.982 L425.36832,614.982 Q427.44644,614.982,428.39957,614.1539 Q429.36832,613.32574,429.36832,611.7164 Q429.36832,610.5914,428.9152,609.9195 Q428.4777,609.2476,427.57144,608.9351 Q426.6652,608.6226,425.24332,608.6226 Z" fill="#111111"/>
</a>
</g>
</g>
<g class="edge" id="edge-18">
<title>9 -&gt; 19</title>
<g id="a-edge-18">
<a title="9 -&gt; 19" xlink:title="9 -&gt; 19">
<path d="M553.6958,550.5187 Q511.8098,614.57623,511.8098,662.50604" fill="none" stroke="#42FF00FF" stroke-width="2"/>
<polygon fill="#42FF00FF" points="511.8098,662.50604 516.2458,652.69165 508.25348,652.33984 511.8098,662.50604" stroke="#42FF00FF" stroke-width="2"/>
<line stroke="#42FF00FF" stroke-width="2" x1="465.23383" x2="501.8098" y1="638.9202" y2="638.9202"/>
<path d="M479.56195,623.88824 L479.56195,606.7476 L481.7182,606.7476 L481.7182,621.9664 L489.20258,621.9664 L489.20258,623.88824 Z" fill="#111111"/>
</a>
</g>
</g>
<g class="edge" id="edge-19">
<title>9 -&gt; 20</title>
<g id="a-edge-19">
<a title="9 -&gt; 20" xlink:title="9 -&gt; 20">
<path d="M582.03674,550.5187 Q623.9227,614.57623,623.9227,673.5771" fill="none" stroke="#42FF00FF" stroke-width="2"/>
<polygon fill="#42FF00FF" points="623.9227,673.5771 627.6227,663.4622 619.6262,663.70087 623.9227,673.5771" stroke="#42FF00FF" stroke-width="2"/>
<line stroke="#42FF00FF" stroke-width="2" x1="633.9227" x2="672.8507" y1="638.9202" y2="638.9202"/>
<path d="M652.9852,606.7476 Q655.1102,606.7476,656.4852,607.2945 Q657.87585,607.82574,658.5477,608.9195 Q659.2196,609.9976,659.2196,611.6226 Q659.2196,612.9976,658.704,613.9039 Q658.204,614.8101,657.4227,615.357 Q656.6571,615.9039,655.7821,616.20074 L660.4852,623.88824 L657.9696,623.88824 L653.81335,616.8101 L650.4071,616.8101 L650.4071,623.88824 L648.25085,623.88824 L648.25085,606.7476 ZM652.8602,608.6226 L650.4071,608.6226 L650.4071,614.982 L652.9852,614.982 Q655.06335,614.982,656.0165,614.1539 Q656.9852,613.32574,656.9852,611.7164 Q656.9852,610.5914,656.5321,609.9195 Q656.0946,609.2476,655.18835,608.9351 Q654.2821,608.6226,652.8602,608.6226 Z" fill="#111111"/>
</a>
</g>
</g>
<g class="edge" id="edge-20">
<title>10 -&gt; 21</title>
<g id="a-edge-20">
<a title="10 -&gt; 21" xlink:title="10 -&gt; 21">
<path d="M778.0063,555.5754 Q739.42676,614.57623,739.42676,662.50604" fill="none" stroke="#00FF83FF" stroke-width="2"/>
<polygon fill="#00FF83FF" points="739.42676,662.50604 743.83264,652.6781 735.83936,652.3507 739.42676,662.50604" stroke="#00FF83FF" stroke-width="2"/>
<line stroke="#00FF83FF" stroke-width="2" x1="692.8507" x2="729.42676" y1="638.9202" y2="638.9202"/>
<path d="M707.17883,623.88824 L707.17883,606.7476 L709.3351,606.7476 L709.3351,621.9664 L716.81946,621.9664 L716.81946,623.88824 Z" fill="#111111"/>
</a>
</g>
</g>
<g class="edge" id="edge-21">
<title>10 -&gt; 22</title>
<g id="a-edge-21">
<a title="10 -&gt; 22" xlink:title="10 -&gt; 22">
<path d="M812.96014,555.5754 Q851.5397,614.57623,851.5397,673.5771" fill="none" stroke="#00FF83FF" stroke-width="2"/>
<polygon fill="#00FF83FF" points="851.5397,673.5771 855.26135,663.4702 847.2644,663.69165 851.5397,673.5771" stroke="#00FF83FF" stroke-width="2"/>
<line stroke="#00FF83FF" stroke-width="2" x1="861.5397" x2="900.46765" y1="638.9202" y2="638.9202"/>
<path d="M880.6022,606.7476 Q882.7272,606.7476,884.1022,607.2945 Q885.4928,607.82574,886.1647,608.9195 Q886.83655,609.9976,886.83655,611.6226 Q886.83655,612.9976,886.3209,613.9039 Q885.8209,614.8101,885.0397,615.357 Q884.27405,615.9039,883.39905,616.20074 L888.1022,623.88824 L885.58655,623.88824 L881.4303,616.8101 L878.02405,616.8101 L878.02405,623.88824 L875.8678,623.88824 L875.8678,606.7476 ZM880.4772,608.6226 L878.02405,608.6226 L878.02405,614.982 L880.6022,614.982 Q882.6803,614.982,883.6334,614.1539 Q884.6022,613.32574,884.6022,611.7164 Q884.6022,610.5914,884.14905,609.9195 Q883.71155,609.2476,882.8053,608.9351 Q881.89905,608.6226,880.4772,608.6226 Z" fill="#111111"/>
</a>
</g>
</g>
<g class="edge" id="edge-22">
<title>11 -&gt; 23</title>
<g id="a-edge-22">
<a title="11 -&gt; 23" xlink:title="11 -&gt; 23">
<path d="M1008.1559,551.70215 Q967.0437,614.57623,967.0437,662.50604" fill="none" stroke="#00B6FFFF" stroke-width="2"/>
<polygon fill="#00B6FFFF" points="967.0437,662.50604 971.47266,652.6884 963.4801,652.34235 967.0437,662.50604" stroke="#00B6FFFF" stroke-width="2"/>
<line stroke="#00B6FFFF" stroke-width="2" x1="920.46765" x2="957.0437" y1="638.9202" y2="638.9202"/>
<path d="M934.7958,623.88824 L934.7958,606.7476 L936.952,606.7476 L936.952,621.9664 L944.4364,621.9664 L944.4364,623.88824 Z" fill="#111111"/>
</a>
</g>
</g>
<g class="edge" id="edge-23">
<title>11 -&gt; 24</title>
<g id="a-edge-23">
<a title="11 -&gt; 24" xlink:title="11 -&gt; 24">
<path d="M1038.0444,551.70215 Q1079.1566,614.57623,1079.1566,673.5771" fill="none" stroke="#00B6FFFF" stroke-width="2"/>
<polygon fill="#00B6FFFF" points="1079.1566,673.5771 1082.8616,663.46405 1074.865,663.69867 1079.1566,673.5771" stroke="#00B6FFFF" stroke-width="2"/>
<line stroke="#00B6FFFF" stroke-width="2" x1="1089.1566" x2="1128.0846" y1="638.9202" y2="638.9202"/>
<path d="M1108.2191,606.7476 Q1110.3441,606.7476,1111.7191,607.2945 Q1113.1097,607.82574,1113.7816,608.9195 Q1114.4535,609.9976,1114.4535,611.6226 Q1114.4535,612.9976,1113.9379,613.9039 Q1113.4379,614.8101,1112.6566,615.357 Q1111.891,615.9039,1111.016,616.20074 L1115.7191,623.88824 L1113.2035,623.88824 L1109.0472,616.8101 L1105.641,616.8101 L1105.641,623.88824 L1103.4847,623.88824 L1103.4847,606.7476 ZM1108.0941,608.6226 L1105.641,608.6226 L1105.641,614.982 L1108.2191,614.982 Q1110.2972,614.982,1111.2504,614.1539 Q1112.2191,613.32574,1112.2191,611.7164 Q1112.2191,610.5914,1111.766,609.9195 Q1111.3285,609.2476,1110.4222,608.9351 Q1109.516,608.6226,1108.0941,608.6226 Z" fill="#111111"/>
</a>
</g>
</g>
<g class="edge" id="edge-24">
<title>12 -&gt; 25</title>
<g id="a-edge-24">
<a title="12 -&gt; 25" xlink:title="12 -&gt; 25">
<path d="M1233.2401,555.5754 Q1194.6606,614.57623,1194.6606,662.50604" fill="none" stroke="#1000FFFF" stroke-width="2"/>
<polygon fill="#1000FFFF" points="1194.6606,662.50604 1199.0665,652.6781 1191.0731,652.3507 1194.6606,662.50604" stroke="#1000FFFF" stroke-width="2"/>
<line stroke="#1000FFFF" stroke-width="2" x1="1148.0847" x2="1184.6606" y1="638.9202" y2="638.9202"/>
<path d="M1162.4128,623.88824 L1162.4128,606.7476 L1164.5691,606.7476 L1164.5691,621.9664 L1172.0535,621.9664 L1172.0535,623.88824 Z" fill="#111111"/>
</a>
</g>
</g>
<g class="edge" id="edge-25">
<title>12 -&gt; 26</title>
<g id="a-edge-25">
<a title="12 -&gt; 26" xlink:title="12 -&gt; 26">
<path d="M1268.194,555.5754 Q1306.7734,614.57623,1306.7734,673.5771" fill="none" stroke="#1000FFFF" stroke-width="2"/>
<polygon fill="#1000FFFF" points="1306.7734,673.5771 1310.4951,663.4702 1302.4983,663.69165 1306.7734,673.5771" stroke="#1000FFFF" stroke-width="2"/>
<line stroke="#1000FFFF" stroke-width="2" x1="1316.7734" x2="1355.7014" y1="638.9202" y2="638.9202"/>
<path d="M1335.8359,606.7476 Q1337.9609,606.7476,1339.3359,607.2945 Q1340.7266,607.82574,1341.3984,608.9195 Q1342.0703,609.9976,1342.0703,611.6226 Q1342.0703,612.9976,1341.5547,613.9039 Q1341.0547,614.8101,1340.2734,615.357 Q1339.5078,615.9039,1338.6328,616.20074 L1343.3359,623.88824 L1340.8203,623.88824 L1336.6641,616.8101 L1333.2578,616.8101 L1333.2578,623.88824 L1331.1016,623.88824 L1331.1016,606.7476 ZM1335.7109,608.6226 L1333.2578,608.6226 L1333.2578,614.982 L1335.8359,614.982 Q1337.9141,614.982,1338.8672,614.1539 Q1339.8359,613.32574,1339.8359,611.7164 Q1339.8359,610.5914,1339.3828,609.9195 Q1338.9453,609.2476,1338.0391,608.9351 Q1337.1328,608.6226,1335.7109,608.6226 Z" fill="#111111"/>
</a>
</g>
</g>
<g class="edge" id="edge-26">
<title>13 -&gt; 27</title>
<g id="a-edge-26">
<a title="13 -&gt; 27" xlink:title="13 -&gt; 27">
<path d="M1463.3896,551.70215 Q1422.2776,614.57623,1422.2776,662.50604" fill="none" stroke="#D500FFFF" stroke-width="2"/>
<polygon fill="#D500FFFF" points="1422.2776,662.50604 1426.7063,652.6884 1418.7139,652.34235 1422.2776,662.50604" stroke="#D500FFFF" stroke-width="2"/>
<line stroke="#D500FFFF" stroke-width="2" x1="1375.7017" x2="1412.2776" y1="638.9202" y2="638.9202"/>
<path d="M1390.0298,623.88824 L1390.0298,606.7476 L1392.186,606.7476 L1392.186,621.9664 L1399.6704,621.9664 L1399.6704,623.88824 Z" fill="#111111"/>
</a>
</g>
</g>
<g class="edge" id="edge-27">
<title>13 -&gt; 28</title>
<g id="a-edge-27">
<a title="13 -&gt; 28" xlink:title="13 -&gt; 28">
<path d="M1493.2783,551.70215 Q1534.3904,614.57623,1534.3904,673.5771" fill="none" stroke="#D500FFFF" stroke-width="2"/>
<polygon fill="#D500FFFF" points="1534.3904,673.5771 1538.0953,663.46405 1530.0988,663.69867 1534.3904,673.5771" stroke="#D500FFFF" stroke-width="2"/>
<line stroke="#D500FFFF" stroke-width="2" x1="1544.3904" x2="1583.3184" y1="638.9202" y2="638.9202"/>
<path d="M1563.4529,606.7476 Q1565.5779,606.7476,1566.9529,607.2945 Q1568.3435,607.82574,1569.0154,608.9195 Q1569.6873,609.9976,1569.6873,611.6226 Q1569.6873,612.9976,1569.1716,613.9039 Q1568.6716,614.8101,1567.8904,615.357 Q1567.1248,615.9039,1566.2498,616.20074 L1570.9529,623.88824 L1568.4373,623.88824 L1564.281,616.8101 L1560.8748,616.8101 L1560.8748,623.88824 L1558.7185,623.88824 L1558.7185,606.7476 ZM1563.3279,608.6226 L1560.8748,608.6226 L1560.8748,614.982 L1563.4529,614.982 Q1565.531,614.982,1566.4841,614.1539 Q1567.4529,613.32574,1567.4529,611.7164 Q1567.4529,610.5914,1566.9998,609.9195 Q1566.5623,609.2476,1565.656,608.9351 Q1564.7498,608.6226,1563.3279,608.6226 Z" fill="#111111"/>
</a>
</g>
</g>
<g class="edge" id="edge-28">
<title>14 -&gt; 29</title>
<g id="a-edge-28">
<a title="14 -&gt; 29" xlink:title="14 -&gt; 29">
<path d="M1688.474,555.5754 Q1649.8944,614.57623,1649.8944,662.50604" fill="none" stroke="#FF0063FF" stroke-width="2"/>
<polygon fill="#FF0063FF" points="1649.8944,662.50604 1654.3004,652.67816 1646.307,652.35065 1649.8944,662.50604" stroke="#FF0063FF" stroke-width="2"/>
<line stroke="#FF0063FF" stroke-width="2" x1="1603.3185" x2="1639.8944" y1="638.9202" y2="638.9202"/>
<path d="M1617.6466,623.88824 L1617.6466,606.7476 L1619.8029,606.7476 L1619.8029,621.9664 L1627.2872,621.9664 L1627.2872,623.88824 Z" fill="#111111"/>
</a>
</g>
</g>
<g class="edge" id="edge-29">
<title>14 -&gt; 30</title>
<g id="a-edge-29">
<a title="14 -&gt; 30" xlink:title="14 -&gt; 30">
<path d="M1723.4279,555.5754 Q1762.0073,614.57623,1762.0073,673.5771" fill="none" stroke="#FF0063FF" stroke-width="2"/>
<polygon fill="#FF0063FF" points="1762.0073,673.5771 1765.729,663.4702 1757.7322,663.69165 1762.0073,673.5771" stroke="#FF0063FF" stroke-width="2"/>
<line stroke="#FF0063FF" stroke-width="2" x1="1772.0073" x2="1810.9353" y1="638.9202" y2="638.9202"/>
<path d="M1791.0698,606.7476 Q1793.1948,606.7476,1794.5698,607.2945 Q1795.9604,607.82574,1796.6323,608.9195 Q1797.3042,609.9976,1797.3042,611.6226 Q1797.3042,612.9976,1796.7886,613.9039 Q1796.2886,614.8101,1795.5073,615.357 Q1794.7417,615.9039,1793.8667,616.20074 L1798.5698,623.88824 L1796.0542,623.88824 L1791.898,616.8101 L1788.4917,616.8101 L1788.4917,623.88824 L1786.3354,623.88824 L1786.3354,606.7476 ZM1790.9448,608.6226 L1788.4917,608.6226 L1788.4917,614.982 L1791.0698,614.982 Q1793.148,614.982,1794.1011,614.1539 Q1795.0698,613.32574,1795.0698,611.7164 Q1795.0698,610.5914,1794.6167,609.9195 Q1794.1792,609.2476,1793.273,608.9351 Q1792.3667,608.6226,1790.9448,608.6226 Z" fill="#111111"/>
</a>
</g>
</g>
<g class="node" id="node-0">
<title>0</title>
<g id="a-node-0">
<a title="0" xlink:title="0">
<rect fill="#00FFE7FF" height="48.688" stroke="#00FFE7FF" stroke-width="2" width="48.688" x="884.9477" y="10.000002"/>
<path d="M914.97455,35.062252 Q914.97455,37.156002,914.66205,38.796627 Q914.34955,40.421627,913.66205,41.562252 Q912.9902,42.702877,911.8964,43.296627 Q910.8027,43.890377,909.2714,43.890377 Q907.34955,43.890377,906.0839,42.843502 Q904.8339,41.781002,904.2089,39.812252 Q903.59955,37.827877,903.59955,35.062252 Q903.59955,32.281002,904.16205,30.312252 Q904.72455,28.343502,905.97455,27.296627 Q907.22455,26.249752,909.2714,26.249752 Q911.1933,26.249752,912.4589,27.296627 Q913.72455,28.343502,914.34955,30.312252 Q914.97455,32.281002,914.97455,35.062252 ZM905.7089,35.062252 Q905.7089,37.421627,906.0527,38.984127 Q906.41205,40.531002,907.1933,41.312252 Q907.97455,42.093502,909.2714,42.093502 Q910.5683,42.093502,911.34955,41.327877 Q912.1308,40.562252,912.4902,38.999752 Q912.84955,37.421627,912.84955,35.062252 Q912.84955,32.718502,912.4902,31.171627 Q912.1308,29.609127,911.34955,28.843502 Q910.5683,28.062252,909.2714,28.062252 Q907.97455,28.062252,907.1933,28.843502 Q906.41205,29.609127,906.0527,31.171627 Q905.7089,32.718502,905.7089,35.062252 Z" fill="#111111"/>
</a>
</g>
</g>
<g class="node" id="node-1">
<title>1</title>
<g id="a-node-1">
<a title="1" xlink:title="1">
<polygon fill="#A4FF00FF" name="diamond" points="454.05786,157.376 419.63025,191.80362 454.05786,226.23123 488.48547,191.80362" stroke="#A4FF00FF" stroke-width="2"/>
<path d="M455.70947,201.11563 L453.64697,201.11563 L453.64697,189.14688 Q453.64697,188.44376,453.6626,187.975 Q453.67822,187.49063,453.69385,187.06876 Q453.7251,186.64688,453.74072,186.19376 Q453.36572,186.56876,453.05322,186.83438 Q452.74072,187.1,452.25635,187.50626 L450.42822,188.99063 L449.33447,187.58438 L453.95947,183.975 L455.70947,183.975 Z" fill="#111111"/>
</a>
</g>
</g>
<g class="node" id="node-2">
<title>2</title>
<g id="a-node-2">
<a title="2" xlink:title="2">
<rect fill="#7300FFFF" height="48.688" stroke="#7300FFFF" stroke-width="2" width="48.688" x="1340.1814" y="167.45963"/>
<path d="M1370.1458,201.11563 L1358.8176,201.11563 L1358.8176,199.36563 L1363.302,194.83438 Q1364.5989,193.5375,1365.4895,192.5375 Q1366.3801,191.52188,1366.8333,190.55313 Q1367.2864,189.56876,1367.2864,188.4125 Q1367.2864,187.00626,1366.4426,186.27188 Q1365.5989,185.5375,1364.2551,185.5375 Q1363.0208,185.5375,1362.0676,185.975 Q1361.1145,186.39688,1360.1301,187.17813 L1359.0051,185.75626 Q1359.677,185.17813,1360.4739,184.725 Q1361.2864,184.27188,1362.2239,184.00626 Q1363.177,183.74063,1364.2551,183.74063 Q1365.8645,183.74063,1367.0208,184.30313 Q1368.177,184.85,1368.802,185.86563 Q1369.4426,186.88126,1369.4426,188.30313 Q1369.4426,189.64688,1368.8958,190.81876 Q1368.3489,191.99063,1367.3645,193.13126 Q1366.3801,194.27188,1365.052,195.56876 L1361.4739,199.1 L1361.4739,199.19376 L1370.1458,199.19376 Z" fill="#111111"/>
</a>
</g>
</g>
<g class="node" id="node-3">
<title>3</title>
<g id="a-node-3">
<a title="3" xlink:title="3">
<polygon fill="#FF9400FF" name="diamond" points="226.44093,324.91925 192.01332,359.34686 226.44093,393.77448 260.86853,359.34686" stroke="#FF9400FF" stroke-width="2"/>
<path d="M231.40506,355.53387 Q231.40506,356.69012,230.96756,357.53387 Q230.54568,358.362,229.73318,358.89325 Q228.93631,359.4245,227.85818,359.62762 L227.85818,359.737 Q229.92068,359.97137,230.92068,361.03387 Q231.93631,362.08075,231.93631,363.78387 Q231.93631,365.26825,231.23318,366.44012 Q230.54568,367.59637,229.09256,368.25262 Q227.63943,368.89325,225.35818,368.89325 Q224.01443,368.89325,222.85818,368.69012 Q221.71756,368.487,220.65506,367.95575 L220.65506,366.00262 Q221.73318,366.51825,222.98318,366.83075 Q224.23318,367.12762,225.38943,367.12762 Q227.68631,367.12762,228.70193,366.22137 Q229.73318,365.31512,229.73318,363.737 Q229.73318,362.65887,229.17068,362.00262 Q228.60818,361.34637,227.51443,361.03387 Q226.43631,360.72137,224.93631,360.72137 L223.28006,360.72137 L223.28006,358.90887 L224.95193,358.90887 Q226.37381,358.90887,227.31131,358.50262 Q228.26443,358.09637,228.74881,357.362 Q229.24881,356.62762,229.24881,355.6745 Q229.24881,354.4245,228.40506,353.75262 Q227.56131,353.06512,226.12381,353.06512 Q225.21756,353.06512,224.46756,353.25262 Q223.73318,353.4245,223.09256,353.75262 Q222.45193,354.06512,221.81131,354.50262 L220.74881,353.06512 Q221.67068,352.34637,223.01443,351.81512 Q224.37381,351.28387,226.10818,351.28387 Q228.79568,351.28387,230.09256,352.487 Q231.40506,353.69012,231.40506,355.53387 Z" fill="#111111"/>
</a>
</g>
</g>
<g class="node" id="node-4">
<title>4</title>
<g id="a-node-4">
<a title="4" xlink:title="4">
<rect fill="#00FF21FF" height="48.688" stroke="#00FF21FF" stroke-width="2" width="48.688" x="657.33075" y="335.00287"/>
<path d="M688.0607,364.76825 L685.5607,364.76825 L685.5607,368.65887 L683.5295,368.65887 L683.5295,364.76825 L675.3107,364.76825 L675.3107,362.97137 L683.3732,351.4245 L685.5607,351.4245 L685.5607,362.87762 L688.0607,362.87762 ZM683.5295,357.47137 Q683.5295,356.84637,683.5295,356.33075 Q683.5451,355.81512,683.5607,355.362 Q683.592,354.90887,683.6076,354.487 Q683.6232,354.06512,683.63885,353.69012 L683.5451,353.69012 Q683.3576,354.14325,683.0607,354.6745 Q682.7795,355.19012,682.51385,355.5495 L677.3732,362.87762 L683.5295,362.87762 Z" fill="#111111"/>
</a>
</g>
</g>
<g class="node" id="node-5">
<title>5</title>
<g id="a-node-5">
<a title="5" xlink:title="5">
<polygon fill="#0052FFFF" name="diamond" points="1136.9086,324.91925 1102.481,359.34686 1136.9086,393.77448 1171.3362,359.34686" stroke="#0052FFFF" stroke-width="2"/>
<path d="M1136.6383,358.14325 Q1138.4039,358.14325,1139.6852,358.75262 Q1140.982,359.34637,1141.6852,360.47137 Q1142.4039,361.58075,1142.4039,363.19012 Q1142.4039,364.95575,1141.6383,366.25262 Q1140.8727,367.53387,1139.4352,368.22137 Q1138.0133,368.89325,1135.9977,368.89325 Q1134.6696,368.89325,1133.4977,368.65887 Q1132.3414,368.4245,1131.5602,367.95575 L1131.5602,365.97137 Q1132.4196,366.50262,1133.6539,366.7995 Q1134.8883,367.09637,1136.0133,367.09637 Q1137.2946,367.09637,1138.232,366.70575 Q1139.1852,366.2995,1139.7164,365.47137 Q1140.2477,364.64325,1140.2477,363.40887 Q1140.2477,361.72137,1139.2164,360.83075 Q1138.1852,359.9245,1135.9508,359.9245 Q1135.2789,359.9245,1134.4039,360.0495 Q1133.5446,360.15887,1133.0133,360.28387 L1131.9664,359.612 L1132.607,351.51825 L1141.2008,351.51825 L1141.2008,353.44012 L1134.4196,353.44012 L1133.9977,358.40887 Q1134.4196,358.34637,1135.107,358.25262 Q1135.8102,358.14325,1136.6383,358.14325 Z" fill="#111111"/>
</a>
</g>
</g>
<g class="node" id="node-6">
<title>6</title>
<g id="a-node-6">
<a title="6" xlink:title="6">
<rect fill="#FF00C5FF" height="48.688" stroke="#FF00C5FF" stroke-width="2" width="48.688" x="1567.7983" y="335.00287"/>
<path d="M1586.5908,361.34637 Q1586.5908,359.84637,1586.794,358.40887 Q1587.0127,356.97137,1587.5127,355.69012 Q1588.0127,354.40887,1588.9033,353.40887 Q1589.794,352.40887,1591.1377,351.84637 Q1592.4971,351.28387,1594.4502,351.28387 Q1594.9502,351.28387,1595.5596,351.33075 Q1596.169,351.37762,1596.5596,351.50262 L1596.5596,353.2995 Q1596.1221,353.15887,1595.5752,353.09637 Q1595.044,353.01825,1594.4971,353.01825 Q1592.8408,353.01825,1591.7314,353.56512 Q1590.6377,354.112,1589.9971,355.08075 Q1589.3564,356.03387,1589.0596,357.28387 Q1588.7783,358.53387,1588.7158,359.94012 L1588.8564,359.94012 Q1589.2158,359.37762,1589.7627,358.9245 Q1590.3252,358.45575,1591.0908,358.19012 Q1591.8721,357.9245,1592.9033,357.9245 Q1594.4033,357.9245,1595.5127,358.5495 Q1596.6377,359.15887,1597.2471,360.33075 Q1597.8721,361.487,1597.8721,363.14325 Q1597.8721,364.90887,1597.2002,366.20575 Q1596.5283,367.50262,1595.3096,368.20575 Q1594.1064,368.89325,1592.4346,368.89325 Q1591.2002,368.89325,1590.1377,368.44012 Q1589.0908,367.987,1588.2783,367.0495 Q1587.4814,366.112,1587.0283,364.69012 Q1586.5908,363.25262,1586.5908,361.34637 ZM1592.4033,367.12762 Q1593.919,367.12762,1594.8564,366.15887 Q1595.794,365.1745,1595.794,363.14325 Q1595.794,361.50262,1594.9658,360.5495 Q1594.1377,359.58075,1592.4814,359.58075 Q1591.3564,359.58075,1590.5127,360.0495 Q1589.669,360.51825,1589.2002,361.237 Q1588.7314,361.95575,1588.7314,362.737 Q1588.7314,363.51825,1588.9502,364.2995 Q1589.1846,365.06512,1589.6533,365.72137 Q1590.1221,366.362,1590.8096,366.75262 Q1591.4971,367.12762,1592.4033,367.12762 Z" fill="#111111"/>
</a>
</g>
</g>
<g class="node" id="node-7">
<title>7</title>
<g id="a-node-7">
<a title="7" xlink:title="7">
<polygon fill="#FF3100FF" name="diamond" points="112.63246,494.41974 78.20485,528.84735 112.63246,563.27496 147.06007,528.84735" stroke="#FF3100FF" stroke-width="2"/>
<path d="M109.03409,538.15936 L116.06534,522.9406 L106.83096,522.9406 L106.83096,521.01874 L118.31534,521.01874 L118.31534,522.65936 L111.36221,538.15936 Z" fill="#111111"/>
</a>
</g>
</g>
<g class="node" id="node-8">
<title>8</title>
<g id="a-node-8">
<a title="8" xlink:title="8">
<rect fill="#FFF600FF" height="48.688" stroke="#FFF600FF" stroke-width="2" width="48.688" x="315.9054" y="504.50336"/>
<path d="M340.22913,520.78436 Q341.74475,520.78436,342.88538,521.2531 Q344.04163,521.72186,344.69788,522.64374 Q345.35413,523.55,345.35413,524.89374 Q345.35413,525.925,344.91663,526.6906 Q344.47913,527.45624,343.72913,528.05 Q342.97913,528.6281,342.10413,529.08124 Q343.151,529.59686,344.01038,530.2375 Q344.88538,530.8625,345.401,531.70624 Q345.91663,532.55,345.91663,533.72186 Q345.91663,535.15936,345.2135,536.20624 Q344.526,537.2531,343.26038,537.83124 Q341.99475,538.39374,340.29163,538.39374 Q338.44788,538.39374,337.16663,537.84686 Q335.88538,537.3,335.2135,536.28436 Q334.55725,535.2531,334.55725,533.78436 Q334.55725,532.6125,335.04163,531.7531 Q335.54163,530.89374,336.35413,530.26874 Q337.18225,529.64374,338.11975,529.20624 Q337.276,528.72186,336.5885,528.1125 Q335.901,527.5031,335.51038,526.72186 Q335.11975,525.925,335.11975,524.8625 Q335.11975,523.55,335.79163,522.64374 Q336.4635,521.7375,337.60413,521.26874 Q338.76038,520.78436,340.22913,520.78436 ZM336.61975,533.8156 Q336.61975,535.0656,337.51038,535.89374 Q338.401,536.72186,340.24475,536.72186 Q341.99475,536.72186,342.91663,535.89374 Q343.85413,535.0656,343.85413,533.7375 Q343.85413,532.90936,343.401,532.26874 Q342.9635,531.6281,342.151,531.1281 Q341.35413,530.6281,340.24475,530.22186 L339.86975,530.0656 Q338.80725,530.53436,338.0885,531.0656 Q337.36975,531.58124,336.99475,532.2531 Q336.61975,532.925,336.61975,533.8156 ZM340.19788,522.4875 Q338.88538,522.4875,338.026,523.1281 Q337.18225,523.7531,337.18225,524.95624 Q337.18225,525.84686,337.5885,526.45624 Q338.01038,527.05,338.72913,527.47186 Q339.4635,527.89374,340.32288,528.26874 Q341.16663,527.90936,341.82288,527.4875 Q342.47913,527.05,342.86975,526.4406 Q343.276,525.8156,343.276,524.95624 Q343.276,523.7531,342.43225,523.1281 Q341.5885,522.4875,340.19788,522.4875 Z" fill="#111111"/>
</a>
</g>
</g>
<g class="node" id="node-9">
<title>9</title>
<g id="a-node-9">
<a title="9" xlink:title="9">
<polygon fill="#42FF00FF" name="diamond" points="567.8663,494.41974 533.43866,528.84735 567.8663,563.27496 602.2939,528.84735" stroke="#42FF00FF" stroke-width="2"/>
<path d="M573.48663,528.34686 Q573.48663,529.8,573.2835,531.2531 Q573.0804,532.70624,572.56476,534.0031 Q572.06476,535.28436,571.17413,536.28436 Q570.2835,537.26874,568.9085,537.83124 Q567.54913,538.39374,565.61163,538.39374 Q565.12726,538.39374,564.48663,538.33124 Q563.86163,538.28436,563.4554,538.15936 L563.4554,536.3625 Q563.87726,536.5031,564.4554,536.59686 Q565.0335,536.675,565.56476,536.675 Q567.23663,536.675,568.3304,536.1281 Q569.42413,535.5656,570.06476,534.6281 Q570.721,533.675,571.00226,532.40936 Q571.29913,531.14374,571.346,529.7531 L571.2054,529.7531 Q570.846,530.3156,570.2835,530.76874 Q569.73663,531.22186,568.9554,531.4875 Q568.17413,531.7531,567.12726,531.7531 Q565.6585,531.7531,564.5335,531.14374 Q563.42413,530.53436,562.81476,529.3781 Q562.2054,528.22186,562.2054,526.5656 Q562.2054,524.76874,562.87726,523.47186 Q563.56476,522.175,564.7835,521.4875 Q566.0179,520.78436,567.67413,520.78436 Q568.8929,520.78436,569.9554,521.2531 Q571.0179,521.72186,571.79913,522.65936 Q572.596,523.59686,573.0335,525.01874 Q573.48663,526.425,573.48663,528.34686 ZM567.67413,522.5656 Q566.18976,522.5656,565.23663,523.55 Q564.2835,524.53436,564.2835,526.55 Q564.2835,528.20624,565.0804,529.15936 Q565.8929,530.09686,567.5804,530.09686 Q568.73663,530.09686,569.56476,529.6281 Q570.4085,529.15936,570.87726,528.4406 Q571.346,527.72186,571.346,526.95624 Q571.346,526.1906,571.11163,525.40936 Q570.8929,524.6281,570.42413,523.9875 Q569.971,523.33124,569.2679,522.95624 Q568.5804,522.5656,567.67413,522.5656 Z" fill="#111111"/>
</a>
</g>
</g>
<g class="node" id="node-10">
<title>10</title>
<g id="a-node-10">
<a title="10" xlink:title="10">
<rect fill="#00FF83FF" height="51.456" stroke="#00FF83FF" stroke-width="2" width="51.456" x="769.7552" y="503.11935"/>
<path d="M790.2708,538.15936 L788.2083,538.15936 L788.2083,526.1906 Q788.2083,525.4875,788.22394,525.01874 Q788.23956,524.53436,788.2552,524.1125 Q788.28644,523.6906,788.30206,523.2375 Q787.92706,523.6125,787.61456,523.8781 Q787.30206,524.14374,786.8177,524.55 L784.98956,526.03436 L783.8958,524.6281 L788.5208,521.01874 L790.2708,521.01874 ZM808.0301,529.5656 Q808.0301,531.65936,807.7176,533.3 Q807.4051,534.925,806.7176,536.0656 Q806.0457,537.20624,804.95197,537.8 Q803.8582,538.39374,802.32697,538.39374 Q800.4051,538.39374,799.13947,537.34686 Q797.88947,536.28436,797.26447,534.3156 Q796.6551,532.33124,796.6551,529.5656 Q796.6551,526.78436,797.2176,524.8156 Q797.7801,522.84686,799.0301,521.8 Q800.2801,520.7531,802.32697,520.7531 Q804.24884,520.7531,805.51447,521.8 Q806.7801,522.84686,807.4051,524.8156 Q808.0301,526.78436,808.0301,529.5656 ZM798.76447,529.5656 Q798.76447,531.925,799.1082,533.4875 Q799.4676,535.03436,800.24884,535.8156 Q801.0301,536.59686,802.32697,536.59686 Q803.62384,536.59686,804.4051,535.83124 Q805.18634,535.0656,805.5457,533.5031 Q805.9051,531.925,805.9051,529.5656 Q805.9051,527.22186,805.5457,525.675 Q805.18634,524.1125,804.4051,523.34686 Q803.62384,522.5656,802.32697,522.5656 Q801.0301,522.5656,800.24884,523.34686 Q799.4676,524.1125,799.1082,525.675 Q798.76447,527.22186,798.76447,529.5656 Z" fill="#111111"/>
</a>
</g>
</g>
<g class="node" id="node-11">
<title>11</title>
<g id="a-node-11">
<a title="11" xlink:title="11">
<polygon fill="#00B6FFFF" name="diamond" points="1023.10016,492.46246 986.7153,528.84735 1023.10016,565.23224 1059.4851,528.84735" stroke="#00B6FFFF" stroke-width="2"/>
<path d="M1017.88776,538.15936 L1015.82526,538.15936 L1015.82526,526.1906 Q1015.82526,525.4875,1015.8409,525.01874 Q1015.8565,524.53436,1015.87213,524.1125 Q1015.9034,523.6906,1015.919,523.2375 Q1015.544,523.6125,1015.2315,523.8781 Q1014.919,524.14374,1014.43463,524.55 L1012.6065,526.03436 L1011.51276,524.6281 L1016.13776,521.01874 L1017.88776,521.01874 ZM1031.6157,538.15936 L1029.5532,538.15936 L1029.5532,526.1906 Q1029.5532,525.4875,1029.5688,525.01874 Q1029.5845,524.53436,1029.6001,524.1125 Q1029.6313,523.6906,1029.647,523.2375 Q1029.272,523.6125,1028.9595,523.8781 Q1028.647,524.14374,1028.1626,524.55 L1026.3345,526.03436 L1025.2407,524.6281 L1029.8657,521.01874 L1031.6157,521.01874 Z" fill="#111111"/>
</a>
</g>
</g>
<g class="node" id="node-12">
<title>12</title>
<g id="a-node-12">
<a title="12" xlink:title="12">
<rect fill="#1000FFFF" height="51.456" stroke="#1000FFFF" stroke-width="2" width="51.456" x="1224.989" y="503.11935"/>
<path d="M1245.5046,538.15936 L1243.4421,538.15936 L1243.4421,526.1906 Q1243.4421,525.4875,1243.4578,525.01874 Q1243.4734,524.53436,1243.489,524.1125 Q1243.5203,523.6906,1243.5359,523.2375 Q1243.1609,523.6125,1242.8484,523.8781 Q1242.5359,524.14374,1242.0515,524.55 L1240.2234,526.03436 L1239.1296,524.6281 L1243.7546,521.01874 L1245.5046,521.01874 ZM1263.2014,538.15936 L1251.8733,538.15936 L1251.8733,536.40936 L1256.3577,531.8781 Q1257.6545,530.58124,1258.5452,529.58124 Q1259.4358,528.5656,1259.8889,527.59686 Q1260.342,526.6125,1260.342,525.45624 Q1260.342,524.05,1259.4983,523.3156 Q1258.6545,522.58124,1257.3108,522.58124 Q1256.0764,522.58124,1255.1233,523.01874 Q1254.1702,523.4406,1253.1858,524.22186 L1252.0608,522.8 Q1252.7327,522.22186,1253.5295,521.76874 Q1254.342,521.3156,1255.2795,521.05 Q1256.2327,520.78436,1257.3108,520.78436 Q1258.9202,520.78436,1260.0764,521.34686 Q1261.2327,521.89374,1261.8577,522.90936 Q1262.4983,523.925,1262.4983,525.34686 Q1262.4983,526.6906,1261.9514,527.8625 Q1261.4045,529.03436,1260.4202,530.175 Q1259.4358,531.3156,1258.1077,532.6125 L1254.5295,536.14374 L1254.5295,536.2375 L1263.2014,536.2375 Z" fill="#111111"/>
</a>
</g>
</g>
<g class="node" id="node-13">
<title>13</title>
<g id="a-node-13">
<a title="13" xlink:title="13">
<polygon fill="#D500FFFF" name="diamond" points="1478.334,492.46246 1441.9491,528.84735 1478.334,565.23224 1514.7189,528.84735" stroke="#D500FFFF" stroke-width="2"/>
<path d="M1473.1216,538.15936 L1471.0591,538.15936 L1471.0591,526.1906 Q1471.0591,525.4875,1471.0747,525.01874 Q1471.0903,524.53436,1471.106,524.1125 Q1471.1372,523.6906,1471.1528,523.2375 Q1470.7778,523.6125,1470.4653,523.8781 Q1470.1528,524.14374,1469.6685,524.55 L1467.8403,526.03436 L1466.7466,524.6281 L1471.3716,521.01874 L1473.1216,521.01874 ZM1490.1621,525.03436 Q1490.1621,526.1906,1489.7246,527.03436 Q1489.3027,527.8625,1488.4902,528.39374 Q1487.6934,528.925,1486.6152,529.1281 L1486.6152,529.2375 Q1488.6777,529.47186,1489.6777,530.53436 Q1490.6934,531.58124,1490.6934,533.28436 Q1490.6934,534.76874,1489.9902,535.9406 Q1489.3027,537.09686,1487.8496,537.7531 Q1486.3965,538.39374,1484.1152,538.39374 Q1482.7715,538.39374,1481.6152,538.1906 Q1480.4746,537.9875,1479.4121,537.45624 L1479.4121,535.5031 Q1480.4902,536.01874,1481.7402,536.33124 Q1482.9902,536.6281,1484.1465,536.6281 Q1486.4434,536.6281,1487.459,535.72186 Q1488.4902,534.8156,1488.4902,533.2375 Q1488.4902,532.15936,1487.9277,531.5031 Q1487.3652,530.84686,1486.2715,530.53436 Q1485.1934,530.22186,1483.6934,530.22186 L1482.0371,530.22186 L1482.0371,528.40936 L1483.709,528.40936 Q1485.1309,528.40936,1486.0684,528.0031 Q1487.0215,527.59686,1487.5059,526.8625 Q1488.0059,526.1281,1488.0059,525.175 Q1488.0059,523.925,1487.1621,523.2531 Q1486.3184,522.5656,1484.8809,522.5656 Q1483.9746,522.5656,1483.2246,522.7531 Q1482.4902,522.925,1481.8496,523.2531 Q1481.209,523.5656,1480.5684,524.0031 L1479.5059,522.5656 Q1480.4277,521.84686,1481.7715,521.3156 Q1483.1309,520.78436,1484.8652,520.78436 Q1487.5527,520.78436,1488.8496,521.9875 Q1490.1621,523.1906,1490.1621,525.03436 Z" fill="#111111"/>
</a>
</g>
</g>
<g class="node" id="node-14">
<title>14</title>
<g id="a-node-14">
<a title="14" xlink:title="14">
<rect fill="#FF0063FF" height="51.456" stroke="#FF0063FF" stroke-width="2" width="51.456" x="1680.2229" y="503.11935"/>
<path d="M1700.7385,538.15936 L1698.676,538.15936 L1698.676,526.1906 Q1698.676,525.4875,1698.6917,525.01874 Q1698.7073,524.53436,1698.7229,524.1125 Q1698.7542,523.6906,1698.7698,523.2375 Q1698.3948,523.6125,1698.0823,523.8781 Q1697.7698,524.14374,1697.2854,524.55 L1695.4573,526.03436 L1694.3635,524.6281 L1698.9885,521.01874 L1700.7385,521.01874 ZM1719.2009,534.26874 L1716.7009,534.26874 L1716.7009,538.15936 L1714.6697,538.15936 L1714.6697,534.26874 L1706.4509,534.26874 L1706.4509,532.47186 L1714.5134,520.925 L1716.7009,520.925 L1716.7009,532.3781 L1719.2009,532.3781 ZM1714.6697,526.97186 Q1714.6697,526.34686,1714.6697,525.83124 Q1714.6853,525.3156,1714.7009,524.8625 Q1714.7322,524.40936,1714.7478,523.9875 Q1714.7634,523.5656,1714.779,523.1906 L1714.6853,523.1906 Q1714.4978,523.64374,1714.2009,524.175 Q1713.9197,524.6906,1713.654,525.05 L1708.5134,532.3781 L1714.6697,532.3781 Z" fill="#111111"/>
</a>
</g>
</g>
<g class="node" id="node-15">
<title>15</title>
<g id="a-node-15">
<a title="15" xlink:title="15">
<polygon fill="#FF0000FF" name="diamond" points="56.576,663.9202 20.191113,700.3051 56.576,736.69 92.96089,700.3051" stroke="#FF0000FF" stroke-width="2"/>
<path d="M51.363625,709.6171 L49.301125,709.6171 L49.301125,697.6484 Q49.301125,696.94525,49.31675,696.4765 Q49.332375,695.9921,49.348,695.57025 Q49.37925,695.1484,49.394875,694.69525 Q49.019875,695.07025,48.707375,695.3359 Q48.394875,695.6015,47.9105,696.00775 L46.082375,697.4921 L44.988625,696.0859 L49.613625,692.4765 L51.363625,692.4765 ZM63.16975,699.1015 Q64.93538,699.1015,66.21663,699.7109 Q67.513504,700.3046,68.21663,701.4296 Q68.93538,702.539,68.93538,704.1484 Q68.93538,705.914,68.169754,707.2109 Q67.40413,708.4921,65.96663,709.1796 Q64.544754,709.8515,62.529125,709.8515 Q61.201,709.8515,60.029125,709.6171 Q58.872875,709.38275,58.091625,708.914 L58.091625,706.9296 Q58.951,707.4609,60.185375,707.75775 Q61.41975,708.0546,62.54475,708.0546 Q63.826,708.0546,64.763504,707.664 Q65.71663,707.25775,66.24788,706.4296 Q66.77913,705.6015,66.77913,704.3671 Q66.77913,702.6796,65.74788,701.789 Q64.71663,700.88275,62.48225,700.88275 Q61.810375,700.88275,60.935375,701.00775 Q60.076,701.1171,59.54475,701.2421 L58.497875,700.57025 L59.1385,692.4765 L67.732254,692.4765 L67.732254,694.3984 L60.951,694.3984 L60.529125,699.3671 Q60.951,699.3046,61.6385,699.2109 Q62.341625,699.1015,63.16975,699.1015 Z" fill="#111111"/>
</a>
</g>
</g>
<g class="node" id="node-16">
<title>16</title>
<g id="a-node-16">
<a title="16" xlink:title="16">
<rect fill="#FF6300FF" height="51.456" stroke="#FF6300FF" stroke-width="2" width="51.456" x="142.9609" y="674.5771"/>
<path d="M163.47653,709.6171 L161.41403,709.6171 L161.41403,697.6484 Q161.41403,696.94525,161.42966,696.4765 Q161.44528,695.9921,161.4609,695.57025 Q161.49216,695.1484,161.50778,694.69525 Q161.13278,695.07025,160.82028,695.3359 Q160.50778,695.6015,160.0234,696.00775 L158.19528,697.4921 L157.10153,696.0859 L161.72653,692.4765 L163.47653,692.4765 ZM170.0014,702.3046 Q170.0014,700.8046,170.20453,699.3671 Q170.42328,697.9296,170.92328,696.6484 Q171.42328,695.3671,172.3139,694.3671 Q173.20453,693.3671,174.54828,692.8046 Q175.90765,692.2421,177.86078,692.2421 Q178.36078,692.2421,178.97015,692.289 Q179.57953,692.3359,179.97015,692.4609 L179.97015,694.25775 Q179.53265,694.1171,178.98578,694.0546 Q178.45453,693.9765,177.90765,693.9765 Q176.2514,693.9765,175.14203,694.5234 Q174.04828,695.07025,173.40765,696.039 Q172.76703,696.9921,172.47015,698.2421 Q172.1889,699.4921,172.1264,700.8984 L172.26703,700.8984 Q172.6264,700.3359,173.17328,699.88275 Q173.73578,699.414,174.5014,699.1484 Q175.28265,698.88275,176.3139,698.88275 Q177.8139,698.88275,178.92328,699.50775 Q180.04828,700.1171,180.65765,701.289 Q181.28265,702.44525,181.28265,704.1015 Q181.28265,705.8671,180.61078,707.164 Q179.9389,708.4609,178.72015,709.164 Q177.51703,709.8515,175.84515,709.8515 Q174.61078,709.8515,173.54828,709.3984 Q172.5014,708.94525,171.6889,708.00775 Q170.89203,707.07025,170.4389,705.6484 Q170.0014,704.2109,170.0014,702.3046 ZM175.8139,708.0859 Q177.32953,708.0859,178.26703,707.1171 Q179.20453,706.13275,179.20453,704.1015 Q179.20453,702.4609,178.3764,701.50775 Q177.54828,700.539,175.89203,700.539 Q174.76703,700.539,173.92328,701.00775 Q173.07953,701.4765,172.61078,702.19525 Q172.14203,702.914,172.14203,703.69525 Q172.14203,704.4765,172.36078,705.25775 Q172.59515,706.0234,173.0639,706.6796 Q173.53265,707.32025,174.22015,707.7109 Q174.90765,708.0859,175.8139,708.0859 Z" fill="#111111"/>
</a>
</g>
</g>
<g class="node" id="node-17">
<title>17</title>
<g id="a-node-17">
<a title="17" xlink:title="17">
<polygon fill="#FFC500FF" name="diamond" points="284.1929,663.9202 247.80801,700.3051 284.1929,736.69 320.5778,700.3051" stroke="#FFC500FF" stroke-width="2"/>
<path d="M278.98053,709.6171 L276.91803,709.6171 L276.91803,697.6484 Q276.91803,696.94525,276.93365,696.4765 Q276.94928,695.9921,276.9649,695.57025 Q276.99615,695.1484,277.01178,694.69525 Q276.63678,695.07025,276.32428,695.3359 Q276.01178,695.6015,275.5274,696.00775 L273.69928,697.4921 L272.60553,696.0859 L277.23053,692.4765 L278.98053,692.4765 ZM287.45853,709.6171 L294.48978,694.3984 L285.2554,694.3984 L285.2554,692.4765 L296.73978,692.4765 L296.73978,694.1171 L289.78665,709.6171 Z" fill="#111111"/>
</a>
</g>
</g>
<g class="node" id="node-18">
<title>18</title>
<g id="a-node-18">
<a title="18" xlink:title="18">
<rect fill="#D5FF00FF" height="51.456" stroke="#D5FF00FF" stroke-width="2" width="51.456" x="370.57782" y="674.5771"/>
<path d="M391.09344,709.6171 L389.03094,709.6171 L389.03094,697.6484 Q389.03094,696.94525,389.04657,696.4765 Q389.0622,695.9921,389.07782,695.57025 Q389.10907,695.1484,389.1247,694.69525 Q388.7497,695.07025,388.4372,695.3359 Q388.1247,695.6015,387.64032,696.00775 L385.8122,697.4921 L384.71844,696.0859 L389.34344,692.4765 L391.09344,692.4765 ZM403.14957,692.2421 Q404.6652,692.2421,405.80582,692.7109 Q406.96207,693.1796,407.61832,694.1015 Q408.27457,695.00775,408.27457,696.3515 Q408.27457,697.38275,407.83707,698.1484 Q407.39957,698.914,406.64957,699.50775 Q405.89957,700.0859,405.02457,700.539 Q406.07144,701.0546,406.93082,701.69525 Q407.80582,702.32025,408.32144,703.164 Q408.83707,704.00775,408.83707,705.1796 Q408.83707,706.6171,408.13394,707.664 Q407.44644,708.7109,406.18082,709.289 Q404.9152,709.8515,403.21207,709.8515 Q401.36832,709.8515,400.08707,709.3046 Q398.80582,708.75775,398.13394,707.7421 Q397.4777,706.7109,397.4777,705.2421 Q397.4777,704.07025,397.96207,703.2109 Q398.46207,702.3515,399.27457,701.7265 Q400.1027,701.1015,401.0402,700.664 Q400.19644,700.1796,399.50894,699.57025 Q398.82144,698.9609,398.43082,698.1796 Q398.0402,697.38275,398.0402,696.32025 Q398.0402,695.00775,398.71207,694.1015 Q399.38394,693.19525,400.52457,692.7265 Q401.68082,692.2421,403.14957,692.2421 ZM399.5402,705.2734 Q399.5402,706.5234,400.43082,707.3515 Q401.32144,708.1796,403.1652,708.1796 Q404.9152,708.1796,405.83707,707.3515 Q406.77457,706.5234,406.77457,705.19525 Q406.77457,704.3671,406.32144,703.7265 Q405.88394,703.0859,405.07144,702.5859 Q404.27457,702.0859,403.1652,701.6796 L402.7902,701.5234 Q401.7277,701.9921,401.00894,702.5234 Q400.2902,703.039,399.9152,703.7109 Q399.5402,704.38275,399.5402,705.2734 ZM403.11832,693.94525 Q401.80582,693.94525,400.94644,694.5859 Q400.1027,695.2109,400.1027,696.414 Q400.1027,697.3046,400.50894,697.914 Q400.93082,698.50775,401.64957,698.9296 Q402.38394,699.3515,403.24332,699.7265 Q404.08707,699.3671,404.74332,698.94525 Q405.39957,698.50775,405.7902,697.8984 Q406.19644,697.2734,406.19644,696.414 Q406.19644,695.2109,405.3527,694.5859 Q404.50894,693.94525,403.11832,693.94525 Z" fill="#111111"/>
</a>
</g>
</g>
<g class="node" id="node-19">
<title>19</title>
<g id="a-node-19">
<a title="19" xlink:title="19">
<polygon fill="#73FF00FF" name="diamond" points="511.8098,663.9202 475.42493,700.3051 511.8098,736.69 548.1947,700.3051" stroke="#73FF00FF" stroke-width="2"/>
<path d="M506.59744,709.6171 L504.53494,709.6171 L504.53494,697.6484 Q504.53494,696.94525,504.55057,696.4765 Q504.5662,695.9921,504.58182,695.57025 Q504.61307,695.1484,504.6287,694.69525 Q504.2537,695.07025,503.9412,695.3359 Q503.6287,695.6015,503.14432,696.00775 L501.3162,697.4921 L500.22244,696.0859 L504.84744,692.4765 L506.59744,692.4765 ZM524.2942,699.8046 Q524.2942,701.25775,524.09106,702.7109 Q523.88794,704.164,523.3723,705.4609 Q522.8723,706.7421,521.9817,707.7421 Q521.09106,708.7265,519.71606,709.289 Q518.3567,709.8515,516.4192,709.8515 Q515.9348,709.8515,515.2942,709.789 Q514.6692,709.7421,514.26294,709.6171 L514.26294,707.82025 Q514.6848,707.9609,515.26294,708.0546 Q515.84106,708.13275,516.3723,708.13275 Q518.0442,708.13275,519.13794,707.5859 Q520.2317,707.0234,520.8723,706.0859 Q521.52856,705.13275,521.8098,703.8671 Q522.1067,702.6015,522.15356,701.2109 L522.01294,701.2109 Q521.65356,701.7734,521.09106,702.2265 Q520.5442,702.6796,519.76294,702.94525 Q518.9817,703.2109,517.9348,703.2109 Q516.46606,703.2109,515.34106,702.6015 Q514.2317,701.9921,513.6223,700.8359 Q513.01294,699.6796,513.01294,698.0234 Q513.01294,696.2265,513.6848,694.9296 Q514.3723,693.63275,515.59106,692.94525 Q516.82544,692.2421,518.4817,692.2421 Q519.70044,692.2421,520.76294,692.7109 Q521.82544,693.1796,522.6067,694.1171 Q523.40356,695.0546,523.84106,696.4765 Q524.2942,697.88275,524.2942,699.8046 ZM518.4817,694.0234 Q516.9973,694.0234,516.0442,695.00775 Q515.09106,695.9921,515.09106,698.00775 Q515.09106,699.664,515.88794,700.6171 Q516.70044,701.5546,518.38794,701.5546 Q519.5442,701.5546,520.3723,701.0859 Q521.21606,700.6171,521.6848,699.8984 Q522.15356,699.1796,522.15356,698.414 Q522.15356,697.6484,521.9192,696.8671 Q521.70044,696.0859,521.2317,695.44525 Q520.77856,694.789,520.07544,694.414 Q519.38794,694.0234,518.4817,694.0234 Z" fill="#111111"/>
</a>
</g>
</g>
<g class="node" id="node-20">
<title>20</title>
<g id="a-node-20">
<a title="20" xlink:title="20">
<rect fill="#10FF00FF" height="51.456" stroke="#10FF00FF" stroke-width="2" width="51.456" x="598.1947" y="674.5771"/>
<path d="M622.6791,709.6171 L611.35095,709.6171 L611.35095,707.8671 L615.8353,703.3359 Q617.1322,702.039,618.0228,701.039 Q618.91345,700.0234,619.3666,699.0546 Q619.8197,698.07025,619.8197,696.914 Q619.8197,695.50775,618.97595,694.7734 Q618.1322,694.039,616.78845,694.039 Q615.5541,694.039,614.60095,694.4765 Q613.6478,694.8984,612.66345,695.6796 L611.53845,694.25775 Q612.2103,693.6796,613.0072,693.2265 Q613.8197,692.7734,614.7572,692.50775 Q615.7103,692.2421,616.78845,692.2421 Q618.3978,692.2421,619.5541,692.8046 Q620.7103,693.3515,621.3353,694.3671 Q621.97595,695.38275,621.97595,696.8046 Q621.97595,698.1484,621.4291,699.32025 Q620.8822,700.4921,619.8978,701.63275 Q618.91345,702.7734,617.5853,704.07025 L614.0072,707.6015 L614.0072,707.69525 L622.6791,707.69525 ZM636.4696,701.0234 Q636.4696,703.1171,636.1571,704.75775 Q635.8446,706.38275,635.1571,707.5234 Q634.4852,708.664,633.3915,709.25775 Q632.2977,709.8515,630.7665,709.8515 Q628.8446,709.8515,627.579,708.8046 Q626.329,707.7421,625.704,705.7734 Q625.0946,703.789,625.0946,701.0234 Q625.0946,698.2421,625.6571,696.2734 Q626.2196,694.3046,627.4696,693.25775 Q628.7196,692.2109,630.7665,692.2109 Q632.68835,692.2109,633.954,693.25775 Q635.2196,694.3046,635.8446,696.2734 Q636.4696,698.2421,636.4696,701.0234 ZM627.204,701.0234 Q627.204,703.38275,627.5477,704.94525 Q627.9071,706.4921,628.68835,707.2734 Q629.4696,708.0546,630.7665,708.0546 Q632.06335,708.0546,632.8446,707.289 Q633.62585,706.5234,633.9852,704.9609 Q634.3446,703.38275,634.3446,701.0234 Q634.3446,698.6796,633.9852,697.13275 Q633.62585,695.57025,632.8446,694.8046 Q632.06335,694.0234,630.7665,694.0234 Q629.4696,694.0234,628.68835,694.8046 Q627.9071,695.57025,627.5477,697.13275 Q627.204,698.6796,627.204,701.0234 Z" fill="#111111"/>
</a>
</g>
</g>
<g class="node" id="node-21">
<title>21</title>
<g id="a-node-21">
<a title="21" xlink:title="21">
<polygon fill="#00FF52FF" name="diamond" points="739.42676,663.9202 703.0419,700.3051 739.42676,736.69 775.81165,700.3051" stroke="#00FF52FF" stroke-width="2"/>
<path d="M738.1831,709.6171 L726.855,709.6171 L726.855,707.8671 L731.33936,703.3359 Q732.6362,702.039,733.52686,701.039 Q734.4175,700.0234,734.8706,699.0546 Q735.3237,698.07025,735.3237,696.914 Q735.3237,695.50775,734.48,694.7734 Q733.6362,694.039,732.2925,694.039 Q731.0581,694.039,730.105,694.4765 Q729.15186,694.8984,728.1675,695.6796 L727.0425,694.25775 Q727.71436,693.6796,728.5112,693.2265 Q729.3237,692.7734,730.2612,692.50775 Q731.21436,692.2421,732.2925,692.2421 Q733.90186,692.2421,735.0581,692.8046 Q736.21436,693.3515,736.83936,694.3671 Q737.48,695.38275,737.48,696.8046 Q737.48,698.1484,736.9331,699.32025 Q736.3862,700.4921,735.40186,701.63275 Q734.4175,702.7734,733.08936,704.07025 L729.5112,707.6015 L729.5112,707.69525 L738.1831,707.69525 ZM747.9424,709.6171 L745.8799,709.6171 L745.8799,697.6484 Q745.8799,696.94525,745.8955,696.4765 Q745.91113,695.9921,745.92676,695.57025 Q745.958,695.1484,745.97363,694.69525 Q745.59863,695.07025,745.28613,695.3359 Q744.97363,695.6015,744.48926,696.00775 L742.66113,697.4921 L741.5674,696.0859 L746.1924,692.4765 L747.9424,692.4765 Z" fill="#111111"/>
</a>
</g>
</g>
<g class="node" id="node-22">
<title>22</title>
<g id="a-node-22">
<a title="22" xlink:title="22">
<rect fill="#00FFB6FF" height="51.456" stroke="#00FFB6FF" stroke-width="2" width="51.456" x="825.81165" y="674.5771"/>
<path d="M850.296,709.6171 L838.9679,709.6171 L838.9679,707.8671 L843.4523,703.3359 Q844.74915,702.039,845.6398,701.039 Q846.5304,700.0234,846.9835,699.0546 Q847.43665,698.07025,847.43665,696.914 Q847.43665,695.50775,846.5929,694.7734 Q845.74915,694.039,844.4054,694.039 Q843.171,694.039,842.2179,694.4765 Q841.2648,694.8984,840.2804,695.6796 L839.1554,694.25775 Q839.8273,693.6796,840.62415,693.2265 Q841.43665,692.7734,842.37415,692.50775 Q843.3273,692.2421,844.4054,692.2421 Q846.0148,692.2421,847.171,692.8046 Q848.3273,693.3515,848.9523,694.3671 Q849.5929,695.38275,849.5929,696.8046 Q849.5929,698.1484,849.046,699.32025 Q848.49915,700.4921,847.5148,701.63275 Q846.5304,702.7734,845.2023,704.07025 L841.62415,707.6015 L841.62415,707.69525 L850.296,707.69525 ZM864.02405,709.6171 L852.6959,709.6171 L852.6959,707.8671 L857.1803,703.3359 Q858.4772,702.039,859.3678,701.039 Q860.2584,700.0234,860.71155,699.0546 Q861.1647,698.07025,861.1647,696.914 Q861.1647,695.50775,860.3209,694.7734 Q859.4772,694.039,858.1334,694.039 Q856.89905,694.039,855.9459,694.4765 Q854.9928,694.8984,854.0084,695.6796 L852.8834,694.25775 Q853.5553,693.6796,854.3522,693.2265 Q855.1647,692.7734,856.1022,692.50775 Q857.0553,692.2421,858.1334,692.2421 Q859.7428,692.2421,860.89905,692.8046 Q862.0553,693.3515,862.6803,694.3671 Q863.3209,695.38275,863.3209,696.8046 Q863.3209,698.1484,862.77405,699.32025 Q862.2272,700.4921,861.2428,701.63275 Q860.2584,702.7734,858.9303,704.07025 L855.3522,707.6015 L855.3522,707.69525 L864.02405,707.69525 Z" fill="#111111"/>
</a>
</g>
</g>
<g class="node" id="node-23">
<title>23</title>
<g id="a-node-23">
<a title="23" xlink:title="23">
<polygon fill="#00E7FFFF" name="diamond" points="967.0437,663.9202 930.6588,700.3051 967.0437,736.69 1003.4286,700.3051" stroke="#00E7FFFF" stroke-width="2"/>
<path d="M965.80005,709.6171 L954.4719,709.6171 L954.4719,707.8671 L958.9563,703.3359 Q960.2532,702.039,961.1438,701.039 Q962.0344,700.0234,962.48755,699.0546 Q962.9407,698.07025,962.9407,696.914 Q962.9407,695.50775,962.0969,694.7734 Q961.2532,694.039,959.9094,694.039 Q958.67505,694.039,957.7219,694.4765 Q956.7688,694.8984,955.7844,695.6796 L954.6594,694.25775 Q955.3313,693.6796,956.1282,693.2265 Q956.9407,692.7734,957.8782,692.50775 Q958.8313,692.2421,959.9094,692.2421 Q961.5188,692.2421,962.67505,692.8046 Q963.8313,693.3515,964.4563,694.3671 Q965.0969,695.38275,965.0969,696.8046 Q965.0969,698.1484,964.55005,699.32025 Q964.0032,700.4921,963.0188,701.63275 Q962.0344,702.7734,960.7063,704.07025 L957.1282,707.6015 L957.1282,707.69525 L965.80005,707.69525 ZM978.8718,696.4921 Q978.8718,697.6484,978.4343,698.4921 Q978.01245,699.32025,977.19995,699.8515 Q976.4031,700.38275,975.32495,700.5859 L975.32495,700.69525 Q977.38745,700.9296,978.38745,701.9921 Q979.4031,703.039,979.4031,704.7421 Q979.4031,706.2265,978.69995,707.3984 Q978.01245,708.5546,976.5593,709.2109 Q975.1062,709.8515,972.82495,709.8515 Q971.4812,709.8515,970.32495,709.6484 Q969.1843,709.44525,968.1218,708.914 L968.1218,706.9609 Q969.19995,707.4765,970.44995,707.789 Q971.69995,708.0859,972.8562,708.0859 Q975.1531,708.0859,976.1687,707.1796 Q977.19995,706.2734,977.19995,704.69525 Q977.19995,703.6171,976.63745,702.9609 Q976.07495,702.3046,974.9812,701.9921 Q973.9031,701.6796,972.4031,701.6796 L970.7468,701.6796 L970.7468,699.8671 L972.4187,699.8671 Q973.8406,699.8671,974.7781,699.4609 Q975.7312,699.0546,976.2156,698.32025 Q976.7156,697.5859,976.7156,696.63275 Q976.7156,695.38275,975.8718,694.7109 Q975.0281,694.0234,973.5906,694.0234 Q972.6843,694.0234,971.9343,694.2109 Q971.19995,694.38275,970.5593,694.7109 Q969.9187,695.0234,969.2781,695.4609 L968.2156,694.0234 Q969.13745,693.3046,970.4812,692.7734 Q971.8406,692.2421,973.57495,692.2421 Q976.26245,692.2421,977.5593,693.44525 Q978.8718,694.6484,978.8718,696.4921 Z" fill="#111111"/>
</a>
</g>
</g>
<g class="node" id="node-24">
<title>24</title>
<g id="a-node-24">
<a title="24" xlink:title="24">
<rect fill="#0083FFFF" height="51.456" stroke="#0083FFFF" stroke-width="2" width="51.456" x="1053.4286" y="674.5771"/>
<path d="M1077.913,709.6171 L1066.5848,709.6171 L1066.5848,707.8671 L1071.0692,703.3359 Q1072.3661,702.039,1073.2567,701.039 Q1074.1473,700.0234,1074.6005,699.0546 Q1075.0536,698.07025,1075.0536,696.914 Q1075.0536,695.50775,1074.2098,694.7734 Q1073.3661,694.039,1072.0223,694.039 Q1070.788,694.039,1069.8348,694.4765 Q1068.8817,694.8984,1067.8973,695.6796 L1066.7723,694.25775 Q1067.4442,693.6796,1068.2411,693.2265 Q1069.0536,692.7734,1069.9911,692.50775 Q1070.9442,692.2421,1072.0223,692.2421 Q1073.6317,692.2421,1074.788,692.8046 Q1075.9442,693.3515,1076.5692,694.3671 Q1077.2098,695.38275,1077.2098,696.8046 Q1077.2098,698.1484,1076.663,699.32025 Q1076.1161,700.4921,1075.1317,701.63275 Q1074.1473,702.7734,1072.8192,704.07025 L1069.2411,707.6015 L1069.2411,707.69525 L1077.913,707.69525 ZM1092.4066,705.7265 L1089.9066,705.7265 L1089.9066,709.6171 L1087.8754,709.6171 L1087.8754,705.7265 L1079.6566,705.7265 L1079.6566,703.9296 L1087.7191,692.38275 L1089.9066,692.38275 L1089.9066,703.8359 L1092.4066,703.8359 ZM1087.8754,698.4296 Q1087.8754,697.8046,1087.8754,697.289 Q1087.891,696.7734,1087.9066,696.32025 Q1087.9379,695.8671,1087.9535,695.44525 Q1087.9691,695.0234,1087.9847,694.6484 L1087.891,694.6484 Q1087.7035,695.1015,1087.4066,695.63275 Q1087.1254,696.1484,1086.8597,696.50775 L1081.7191,703.8359 L1087.8754,703.8359 Z" fill="#111111"/>
</a>
</g>
</g>
<g class="node" id="node-25">
<title>25</title>
<g id="a-node-25">
<a title="25" xlink:title="25">
<polygon fill="#0021FFFF" name="diamond" points="1194.6606,663.9202 1158.2758,700.3051 1194.6606,736.69 1231.0455,700.3051" stroke="#0021FFFF" stroke-width="2"/>
<path d="M1193.417,709.6171 L1182.0889,709.6171 L1182.0889,707.8671 L1186.5732,703.3359 Q1187.8701,702.039,1188.7607,701.039 Q1189.6514,700.0234,1190.1045,699.0546 Q1190.5576,698.07025,1190.5576,696.914 Q1190.5576,695.50775,1189.7139,694.7734 Q1188.8701,694.039,1187.5264,694.039 Q1186.292,694.039,1185.3389,694.4765 Q1184.3857,694.8984,1183.4014,695.6796 L1182.2764,694.25775 Q1182.9482,693.6796,1183.7451,693.2265 Q1184.5576,692.7734,1185.4951,692.50775 Q1186.4482,692.2421,1187.5264,692.2421 Q1189.1357,692.2421,1190.292,692.8046 Q1191.4482,693.3515,1192.0732,694.3671 Q1192.7139,695.38275,1192.7139,696.8046 Q1192.7139,698.1484,1192.167,699.32025 Q1191.6201,700.4921,1190.6357,701.63275 Q1189.6514,702.7734,1188.3232,704.07025 L1184.7451,707.6015 L1184.7451,707.69525 L1193.417,707.69525 ZM1201.2544,699.1015 Q1203.02,699.1015,1204.3013,699.7109 Q1205.5981,700.3046,1206.3013,701.4296 Q1207.02,702.539,1207.02,704.1484 Q1207.02,705.914,1206.2544,707.2109 Q1205.4888,708.4921,1204.0513,709.1796 Q1202.6294,709.8515,1200.6138,709.8515 Q1199.2856,709.8515,1198.1138,709.6171 Q1196.9575,709.38275,1196.1763,708.914 L1196.1763,706.9296 Q1197.0356,707.4609,1198.27,707.75775 Q1199.5044,708.0546,1200.6294,708.0546 Q1201.9106,708.0546,1202.8481,707.664 Q1203.8013,707.25775,1204.3325,706.4296 Q1204.8638,705.6015,1204.8638,704.3671 Q1204.8638,702.6796,1203.8325,701.789 Q1202.8013,700.88275,1200.5669,700.88275 Q1199.895,700.88275,1199.02,701.00775 Q1198.1606,701.1171,1197.6294,701.2421 L1196.5825,700.57025 L1197.2231,692.4765 L1205.8169,692.4765 L1205.8169,694.3984 L1199.0356,694.3984 L1198.6138,699.3671 Q1199.0356,699.3046,1199.7231,699.2109 Q1200.4263,699.1015,1201.2544,699.1015 Z" fill="#111111"/>
</a>
</g>
</g>
<g class="node" id="node-26">
<title>26</title>
<g id="a-node-26">
<a title="26" xlink:title="26">
<rect fill="#4200FFFF" height="51.456" stroke="#4200FFFF" stroke-width="2" width="51.456" x="1281.0454" y="674.5771"/>
<path d="M1305.5298,709.6171 L1294.2017,709.6171 L1294.2017,707.8671 L1298.686,703.3359 Q1299.9829,702.039,1300.8735,701.039 Q1301.7642,700.0234,1302.2173,699.0546 Q1302.6704,698.07025,1302.6704,696.914 Q1302.6704,695.50775,1301.8267,694.7734 Q1300.9829,694.039,1299.6392,694.039 Q1298.4048,694.039,1297.4517,694.4765 Q1296.4985,694.8984,1295.5142,695.6796 L1294.3892,694.25775 Q1295.061,693.6796,1295.8579,693.2265 Q1296.6704,692.7734,1297.6079,692.50775 Q1298.561,692.2421,1299.6392,692.2421 Q1301.2485,692.2421,1302.4048,692.8046 Q1303.561,693.3515,1304.186,694.3671 Q1304.8267,695.38275,1304.8267,696.8046 Q1304.8267,698.1484,1304.2798,699.32025 Q1303.7329,700.4921,1302.7485,701.63275 Q1301.7642,702.7734,1300.436,704.07025 L1296.8579,707.6015 L1296.8579,707.69525 L1305.5298,707.69525 ZM1308.0859,702.3046 Q1308.0859,700.8046,1308.2891,699.3671 Q1308.5078,697.9296,1309.0078,696.6484 Q1309.5078,695.3671,1310.3984,694.3671 Q1311.2891,693.3671,1312.6328,692.8046 Q1313.9922,692.2421,1315.9453,692.2421 Q1316.4453,692.2421,1317.0547,692.289 Q1317.6641,692.3359,1318.0547,692.4609 L1318.0547,694.25775 Q1317.6172,694.1171,1317.0703,694.0546 Q1316.5391,693.9765,1315.9922,693.9765 Q1314.3359,693.9765,1313.2266,694.5234 Q1312.1328,695.07025,1311.4922,696.039 Q1310.8516,696.9921,1310.5547,698.2421 Q1310.2734,699.4921,1310.2109,700.8984 L1310.3516,700.8984 Q1310.7109,700.3359,1311.2578,699.88275 Q1311.8203,699.414,1312.5859,699.1484 Q1313.3672,698.88275,1314.3984,698.88275 Q1315.8984,698.88275,1317.0078,699.50775 Q1318.1328,700.1171,1318.7422,701.289 Q1319.3672,702.44525,1319.3672,704.1015 Q1319.3672,705.8671,1318.6953,707.164 Q1318.0234,708.4609,1316.8047,709.164 Q1315.6016,709.8515,1313.9297,709.8515 Q1312.6953,709.8515,1311.6328,709.3984 Q1310.5859,708.94525,1309.7734,708.00775 Q1308.9766,707.07025,1308.5234,705.6484 Q1308.0859,704.2109,1308.0859,702.3046 ZM1313.8984,708.0859 Q1315.4141,708.0859,1316.3516,707.1171 Q1317.2891,706.13275,1317.2891,704.1015 Q1317.2891,702.4609,1316.4609,701.50775 Q1315.6328,700.539,1313.9766,700.539 Q1312.8516,700.539,1312.0078,701.00775 Q1311.1641,701.4765,1310.6953,702.19525 Q1310.2266,702.914,1310.2266,703.69525 Q1310.2266,704.4765,1310.4453,705.25775 Q1310.6797,706.0234,1311.1484,706.6796 Q1311.6172,707.32025,1312.3047,707.7109 Q1312.9922,708.0859,1313.8984,708.0859 Z" fill="#111111"/>
</a>
</g>
</g>
<g class="node" id="node-27">
<title>27</title>
<g id="a-node-27">
<a title="27" xlink:title="27">
<polygon fill="#A400FFFF" name="diamond" points="1422.2776,663.9202 1385.8927,700.3051 1422.2776,736.69 1458.6625,700.3051" stroke="#A400FFFF" stroke-width="2"/>
<path d="M1421.0339,709.6171 L1409.7058,709.6171 L1409.7058,707.8671 L1414.1902,703.3359 Q1415.487,702.039,1416.3777,701.039 Q1417.2683,700.0234,1417.7214,699.0546 Q1418.1746,698.07025,1418.1746,696.914 Q1418.1746,695.50775,1417.3308,694.7734 Q1416.487,694.039,1415.1433,694.039 Q1413.9089,694.039,1412.9558,694.4765 Q1412.0027,694.8984,1411.0183,695.6796 L1409.8933,694.25775 Q1410.5652,693.6796,1411.362,693.2265 Q1412.1746,692.7734,1413.112,692.50775 Q1414.0652,692.2421,1415.1433,692.2421 Q1416.7527,692.2421,1417.9089,692.8046 Q1419.0652,693.3515,1419.6902,694.3671 Q1420.3308,695.38275,1420.3308,696.8046 Q1420.3308,698.1484,1419.7839,699.32025 Q1419.237,700.4921,1418.2527,701.63275 Q1417.2683,702.7734,1415.9402,704.07025 L1412.362,707.6015 L1412.362,707.69525 L1421.0339,707.69525 ZM1425.5432,709.6171 L1432.5745,694.3984 L1423.3401,694.3984 L1423.3401,692.4765 L1434.8245,692.4765 L1434.8245,694.1171 L1427.8713,709.6171 Z" fill="#111111"/>
</a>
</g>
</g>
<g class="node" id="node-28">
<title>28</title>
<g id="a-node-28">
<a title="28" xlink:title="28">
<rect fill="#FF00F6FF" height="51.456" stroke="#FF00F6FF" stroke-width="2" width="51.456" x="1508.6624" y="674.5771"/>
<path d="M1533.1467,709.6171 L1521.8186,709.6171 L1521.8186,707.8671 L1526.303,703.3359 Q1527.5999,702.039,1528.4905,701.039 Q1529.3811,700.0234,1529.8342,699.0546 Q1530.2874,698.07025,1530.2874,696.914 Q1530.2874,695.50775,1529.4436,694.7734 Q1528.5999,694.039,1527.2561,694.039 Q1526.0217,694.039,1525.0686,694.4765 Q1524.1155,694.8984,1523.1311,695.6796 L1522.0061,694.25775 Q1522.678,693.6796,1523.4749,693.2265 Q1524.2874,692.7734,1525.2249,692.50775 Q1526.178,692.2421,1527.2561,692.2421 Q1528.8655,692.2421,1530.0217,692.8046 Q1531.178,693.3515,1531.803,694.3671 Q1532.4436,695.38275,1532.4436,696.8046 Q1532.4436,698.1484,1531.8967,699.32025 Q1531.3499,700.4921,1530.3655,701.63275 Q1529.3811,702.7734,1528.053,704.07025 L1524.4749,707.6015 L1524.4749,707.69525 L1533.1467,707.69525 ZM1541.2341,692.2421 Q1542.7498,692.2421,1543.8904,692.7109 Q1545.0466,693.1796,1545.7029,694.1015 Q1546.3591,695.00775,1546.3591,696.3515 Q1546.3591,697.38275,1545.9216,698.1484 Q1545.4841,698.914,1544.7341,699.50775 Q1543.9841,700.0859,1543.1091,700.539 Q1544.156,701.0546,1545.0154,701.69525 Q1545.8904,702.32025,1546.406,703.164 Q1546.9216,704.00775,1546.9216,705.1796 Q1546.9216,706.6171,1546.2185,707.664 Q1545.531,708.7109,1544.2654,709.289 Q1542.9998,709.8515,1541.2966,709.8515 Q1539.4529,709.8515,1538.1716,709.3046 Q1536.8904,708.75775,1536.2185,707.7421 Q1535.5623,706.7109,1535.5623,705.2421 Q1535.5623,704.07025,1536.0466,703.2109 Q1536.5466,702.3515,1537.3591,701.7265 Q1538.1873,701.1015,1539.1248,700.664 Q1538.281,700.1796,1537.5935,699.57025 Q1536.906,698.9609,1536.5154,698.1796 Q1536.1248,697.38275,1536.1248,696.32025 Q1536.1248,695.00775,1536.7966,694.1015 Q1537.4685,693.19525,1538.6091,692.7265 Q1539.7654,692.2421,1541.2341,692.2421 ZM1537.6248,705.2734 Q1537.6248,706.5234,1538.5154,707.3515 Q1539.406,708.1796,1541.2498,708.1796 Q1542.9998,708.1796,1543.9216,707.3515 Q1544.8591,706.5234,1544.8591,705.19525 Q1544.8591,704.3671,1544.406,703.7265 Q1543.9685,703.0859,1543.156,702.5859 Q1542.3591,702.0859,1541.2498,701.6796 L1540.8748,701.5234 Q1539.8123,701.9921,1539.0935,702.5234 Q1538.3748,703.039,1537.9998,703.7109 Q1537.6248,704.38275,1537.6248,705.2734 ZM1541.2029,693.94525 Q1539.8904,693.94525,1539.031,694.5859 Q1538.1873,695.2109,1538.1873,696.414 Q1538.1873,697.3046,1538.5935,697.914 Q1539.0154,698.50775,1539.7341,698.9296 Q1540.4685,699.3515,1541.3279,699.7265 Q1542.1716,699.3671,1542.8279,698.94525 Q1543.4841,698.50775,1543.8748,697.8984 Q1544.281,697.2734,1544.281,696.414 Q1544.281,695.2109,1543.4373,694.5859 Q1542.5935,693.94525,1541.2029,693.94525 Z" fill="#111111"/>
</a>
</g>
</g>
<g class="node" id="node-29">
<title>29</title>
<g id="a-node-29">
<a title="29" xlink:title="29">
<polygon fill="#FF0094FF" name="diamond" points="1649.8944,663.9202 1613.5095,700.3051 1649.8944,736.69 1686.2793,700.3051" stroke="#FF0094FF" stroke-width="2"/>
<path d="M1648.6508,709.6171 L1637.3226,709.6171 L1637.3226,707.8671 L1641.807,703.3359 Q1643.1039,702.039,1643.9945,701.039 Q1644.8851,700.0234,1645.3383,699.0546 Q1645.7914,698.07025,1645.7914,696.914 Q1645.7914,695.50775,1644.9476,694.7734 Q1644.1039,694.039,1642.7601,694.039 Q1641.5258,694.039,1640.5726,694.4765 Q1639.6195,694.8984,1638.6351,695.6796 L1637.5101,694.25775 Q1638.182,693.6796,1638.9789,693.2265 Q1639.7914,692.7734,1640.7289,692.50775 Q1641.682,692.2421,1642.7601,692.2421 Q1644.3695,692.2421,1645.5258,692.8046 Q1646.682,693.3515,1647.307,694.3671 Q1647.9476,695.38275,1647.9476,696.8046 Q1647.9476,698.1484,1647.4008,699.32025 Q1646.8539,700.4921,1645.8695,701.63275 Q1644.8851,702.7734,1643.557,704.07025 L1639.9789,707.6015 L1639.9789,707.69525 L1648.6508,707.69525 ZM1662.3788,699.8046 Q1662.3788,701.25775,1662.1757,702.7109 Q1661.9725,704.164,1661.4569,705.4609 Q1660.9569,706.7421,1660.0663,707.7421 Q1659.1757,708.7265,1657.8007,709.289 Q1656.4413,709.8515,1654.5038,709.8515 Q1654.0194,709.8515,1653.3788,709.789 Q1652.7538,709.7421,1652.3475,709.6171 L1652.3475,707.82025 Q1652.7694,707.9609,1653.3475,708.0546 Q1653.9257,708.13275,1654.4569,708.13275 Q1656.1288,708.13275,1657.2225,707.5859 Q1658.3163,707.0234,1658.9569,706.0859 Q1659.6132,705.13275,1659.8944,703.8671 Q1660.1913,702.6015,1660.2382,701.2109 L1660.0975,701.2109 Q1659.7382,701.7734,1659.1757,702.2265 Q1658.6288,702.6796,1657.8475,702.94525 Q1657.0663,703.2109,1656.0194,703.2109 Q1654.5507,703.2109,1653.4257,702.6015 Q1652.3163,701.9921,1651.7069,700.8359 Q1651.0975,699.6796,1651.0975,698.0234 Q1651.0975,696.2265,1651.7694,694.9296 Q1652.4569,693.63275,1653.6757,692.94525 Q1654.91,692.2421,1656.5663,692.2421 Q1657.785,692.2421,1658.8475,692.7109 Q1659.91,693.1796,1660.6913,694.1171 Q1661.4882,695.0546,1661.9257,696.4765 Q1662.3788,697.88275,1662.3788,699.8046 ZM1656.5663,694.0234 Q1655.0819,694.0234,1654.1288,695.00775 Q1653.1757,695.9921,1653.1757,698.00775 Q1653.1757,699.664,1653.9725,700.6171 Q1654.785,701.5546,1656.4725,701.5546 Q1657.6288,701.5546,1658.4569,701.0859 Q1659.3007,700.6171,1659.7694,699.8984 Q1660.2382,699.1796,1660.2382,698.414 Q1660.2382,697.6484,1660.0038,696.8671 Q1659.785,696.0859,1659.3163,695.44525 Q1658.8632,694.789,1658.16,694.414 Q1657.4725,694.0234,1656.5663,694.0234 Z" fill="#111111"/>
</a>
</g>
</g>
<g class="node" id="node-30">
<title>30</title>
<g id="a-node-30">
<a title="30" xlink:title="30">
<rect fill="#FF0031FF" height="51.456" stroke="#FF0031FF" stroke-width="2" width="51.456" x="1736.2793" y="674.5771"/>
<path d="M1760.1074,696.4921 Q1760.1074,697.6484,1759.6699,698.4921 Q1759.248,699.32025,1758.4355,699.8515 Q1757.6387,700.38275,1756.5605,700.5859 L1756.5605,700.69525 Q1758.623,700.9296,1759.623,701.9921 Q1760.6387,703.039,1760.6387,704.7421 Q1760.6387,706.2265,1759.9355,707.3984 Q1759.248,708.5546,1757.7949,709.2109 Q1756.3418,709.8515,1754.0605,709.8515 Q1752.7168,709.8515,1751.5605,709.6484 Q1750.4199,709.44525,1749.3574,708.914 L1749.3574,706.9609 Q1750.4355,707.4765,1751.6855,707.789 Q1752.9355,708.0859,1754.0918,708.0859 Q1756.3887,708.0859,1757.4043,707.1796 Q1758.4355,706.2734,1758.4355,704.69525 Q1758.4355,703.6171,1757.873,702.9609 Q1757.3105,702.3046,1756.2168,701.9921 Q1755.1387,701.6796,1753.6387,701.6796 L1751.9824,701.6796 L1751.9824,699.8671 L1753.6543,699.8671 Q1755.0762,699.8671,1756.0137,699.4609 Q1756.9668,699.0546,1757.4512,698.32025 Q1757.9512,697.5859,1757.9512,696.63275 Q1757.9512,695.38275,1757.1074,694.7109 Q1756.2637,694.0234,1754.8262,694.0234 Q1753.9199,694.0234,1753.1699,694.2109 Q1752.4355,694.38275,1751.7949,694.7109 Q1751.1543,695.0234,1750.5137,695.4609 L1749.4512,694.0234 Q1750.373,693.3046,1751.7168,692.7734 Q1753.0762,692.2421,1754.8105,692.2421 Q1757.498,692.2421,1758.7949,693.44525 Q1760.1074,694.6484,1760.1074,696.4921 ZM1774.5542,701.0234 Q1774.5542,703.1171,1774.2417,704.75775 Q1773.9292,706.38275,1773.2417,707.5234 Q1772.5698,708.664,1771.4761,709.25775 Q1770.3823,709.8515,1768.8511,709.8515 Q1766.9292,709.8515,1765.6636,708.8046 Q1764.4136,707.7421,1763.7886,705.7734 Q1763.1792,703.789,1763.1792,701.0234 Q1763.1792,698.2421,1763.7417,696.2734 Q1764.3042,694.3046,1765.5542,693.25775 Q1766.8042,692.2109,1768.8511,692.2109 Q1770.773,692.2109,1772.0386,693.25775 Q1773.3042,694.3046,1773.9292,696.2734 Q1774.5542,698.2421,1774.5542,701.0234 ZM1765.2886,701.0234 Q1765.2886,703.38275,1765.6323,704.94525 Q1765.9917,706.4921,1766.773,707.2734 Q1767.5542,708.0546,1768.8511,708.0546 Q1770.148,708.0546,1770.9292,707.289 Q1771.7104,706.5234,1772.0698,704.9609 Q1772.4292,703.38275,1772.4292,701.0234 Q1772.4292,698.6796,1772.0698,697.13275 Q1771.7104,695.57025,1770.9292,694.8046 Q1770.148,694.0234,1768.8511,694.0234 Q1767.5542,694.0234,1766.773,694.8046 Q1765.9917,695.57025,1765.6323,697.13275 Q1765.2886,698.6796,1765.2886,701.0234 Z" fill="#111111"/>
</a>
</g>
</g>
</svg>