<svg height="449.9632" viewBox="0 0 897.39 449.9632" width="897.39" xmlns="http://www.w3.org/2000/svg" xmlns:ev="http://www.w3.org/2001/xml-events" xmlns:xlink="http://www.w3.org/1999/xlink">
<g class="graph" id="graph-0">
<g id="a-graph-0">
<a>
<rect fill="whitesmoke" height="449.9632" stroke="whitesmoke" width="897.39" x="0" y="0"/>
</a>
</g>
</g>
<defs>
<filter height="300%" id="red-glow" width="300%" x="-100%" y="-100%">
<feFlood flood-color="red" flood-opacity="0.5" in="SourceGraphic"/>
<feComposite in2="SourceGraphic" operator="in"/>
<feGaussianBlur stdDeviation="5"/>
<feComponentTransfer result="glow1">
<feFuncA intercept="0" slope="4" type="linear"/>
</feComponentTransfer>
<feMerge>
<feMergeNode in="glow1"/>
<feMergeNode in="SourceGraphic"/>
</feMerge>
</filter>
<filter height="300%" id="green-glow" width="300%" x="-100%" y="-100%">
<feFlood flood-color="green" flood-opacity="0.5" in="SourceGraphic"/>
<feComposite in2="SourceGraphic" operator="in"/>
<feGaussianBlur stdDeviation="5"/>
<feComponentTransfer result="glow1">
<feFuncA intercept="0" slope="4" type="linear"/>
</feComponentTransfer>
<feMerge>
<feMergeNode in="glow1"/>
<feMergeNode in="SourceGraphic"/>
</feMerge>
</filter>
<filter height="300%" id="orange-glow" width="300%" x="-100%" y="-100%">
<feFlood flood-color="orange" flood-opacity="0.5" in="SourceGraphic"/>
<feComposite in2="SourceGraphic" operator="in"/>
<feGaussianBlur stdDeviation="5"/>
<feComponentTransfer result="glow1">
<feFuncA intercept="0" slope="4" type="linear"/>
</feComponentTransfer>
<feMerge>
<feMergeNode in="glow1"/>
<feMergeNode in="SourceGraphic"/>
</feMerge>
</filter>
</defs>
<g class="edge" id="edge-0">
<title>Foo -&gt; Bar</title>
<g id="a-edge-0">
<a title="Foo -&gt; Bar" xlink:title="Foo -&gt; Bar">
<path d="M475.90213,81.744736 C349.3374,105.37531,96.20799,129.00589,96.20799,152.63646 C96.20799,167.70505,96.20799,182.77365,96.20799,197.84224" fill="none" stroke="#6A77DD" stroke-width="2"/>
<polygon fill="#6A77DD" points="96.20799,197.84224 100.20799,187.84224 92.20799,187.84224 96.20799,197.84224" stroke="#6A77DD" stroke-width="2"/>
<line stroke="#6A77DD" stroke-width="2" x1="106.207985" x2="278.624" y1="171.53246" y2="171.53246"/>
<path d="M126.926735,158.84447 L125.551735,155.31322 L121.020485,155.31322 L119.66111,158.84447 L118.207985,158.84447 L122.676735,147.37572 L123.97361,147.37572 L128.4111,158.84447 ZM123.832985,150.57884 Q123.78611,150.43822,123.676735,150.11009 Q123.56736,149.76634,123.47361,149.40697 Q123.364235,149.04759,123.301735,148.86009 Q123.22361,149.18822,123.12986,149.50072 Q123.03611,149.82884,122.957985,150.09447 Q122.864235,150.37572,122.801735,150.57884 L121.50486,154.03197 L125.114235,154.03197 ZM133.91637,150.11009 Q135.46324,150.11009,136.24449,150.84447 Q137.02574,151.59447,137.02574,153.26634 L137.02574,158.84447 L135.63512,158.84447 L135.63512,153.36009 Q135.63512,152.31322,135.16637,151.81322 Q134.69762,151.29759,133.71324,151.29759 Q132.29137,151.29759,131.74449,152.09447 Q131.19762,152.89134,131.19762,154.39134 L131.19762,158.84447 L129.79137,158.84447 L129.79137,150.26634 L130.93199,150.26634 L131.13512,151.43822 L131.21324,151.43822 Q131.51012,150.98509,131.93199,150.68822 Q132.35387,150.39134,132.85387,150.25072 Q133.36949,150.11009,133.91637,150.11009 ZM151.01125,150.26634 L151.01125,158.84447 L149.855,158.84447 L149.65187,157.70384 L149.58937,157.70384 Q149.30812,158.15697,148.88625,158.43822 Q148.44875,158.73509,147.93312,158.86009 Q147.4175,159.00072,146.87062,159.00072 Q145.83937,159.00072,145.15187,158.67259 Q144.44875,158.34447,144.105,157.65697 Q143.74562,156.96947,143.74562,155.89134 L143.74562,150.26634 L145.1675,150.26634 L145.1675,155.78197 Q145.1675,156.81322,145.62062,157.31322 Q146.08937,157.82884,147.07375,157.82884 Q148.02687,157.82884,148.57375,157.46947 Q149.13625,157.11009,149.37062,156.42259 Q149.605,155.71947,149.605,154.73509 L149.605,150.26634 ZM157.85237,150.11009 Q159.39925,150.11009,160.1805,150.84447 Q160.96175,151.59447,160.96175,153.26634 L160.96175,158.84447 L159.57112,158.84447 L159.57112,153.36009 Q159.57112,152.31322,159.10237,151.81322 Q158.63362,151.29759,157.64925,151.29759 Q156.22737,151.29759,155.6805,152.09447 Q155.13362,152.89134,155.13362,154.39134 L155.13362,158.84447 L153.72737,158.84447 L153.72737,150.26634 L154.868,150.26634 L155.07112,151.43822 L155.14925,151.43822 Q155.44612,150.98509,155.868,150.68822 Q156.28987,150.39134,156.78987,150.25072 Q157.3055,150.11009,157.85237,150.11009 ZM166.66225,159.00072 Q165.05287,159.00072,164.09975,157.89134 Q163.131,156.78197,163.131,154.57884 Q163.131,152.36009,164.09975,151.23509 Q165.0685,150.11009,166.67787,150.11009 Q167.34975,150.11009,167.83412,150.26634 Q168.33412,150.43822,168.6935,150.71947 Q169.0685,151.01634,169.33412,151.37572 L169.42787,151.37572 Q169.41225,151.15697,169.381,150.75072 Q169.33412,150.34447,169.33412,150.11009 L169.33412,146.68822 L170.74037,146.68822 L170.74037,158.84447 L169.59975,158.84447 L169.39662,157.68822 L169.33412,157.68822 Q169.0685,158.06322,168.70912,158.36009 Q168.33412,158.65697,167.83412,158.82884 Q167.33412,159.00072,166.66225,159.00072 ZM166.881,157.82884 Q168.24037,157.82884,168.78725,157.09447 Q169.34975,156.34447,169.34975,154.84447 L169.34975,154.59447 Q169.34975,152.98509,168.8185,152.14134 Q168.28725,151.28197,166.86537,151.28197 Q165.72475,151.28197,165.16225,152.17259 Q164.59975,153.07884,164.59975,154.61009 Q164.59975,156.14134,165.16225,156.98509 Q165.72475,157.82884,166.881,157.82884 ZM176.76787,150.11009 Q177.87724,150.11009,178.6585,150.57884 Q179.45537,151.06322,179.87724,151.93822 Q180.29912,152.81322,180.29912,153.98509 L180.29912,154.82884 L174.43974,154.82884 Q174.471,156.28197,175.17412,157.03197 Q175.89287,157.79759,177.17412,157.79759 Q177.98662,157.79759,178.61162,157.65697 Q179.25224,157.50072,179.92412,157.21947 L179.92412,158.43822 Q179.26787,158.73509,178.62724,158.86009 Q177.98662,159.00072,177.11162,159.00072 Q175.89287,159.00072,174.95537,158.51634 Q174.01787,158.01634,173.50224,157.03197 Q172.971,156.04759,172.971,154.62572 Q172.971,153.21947,173.43974,152.21947 Q173.92412,151.20384,174.76787,150.65697 Q175.62724,150.11009,176.76787,150.11009 ZM176.75224,151.26634 Q175.73662,151.26634,175.1585,151.90697 Q174.58037,152.56322,174.471,153.70384 L178.83037,153.70384 Q178.83037,152.96947,178.61162,152.43822 Q178.37724,151.89134,177.92412,151.57884 Q177.471,151.26634,176.75224,151.26634 ZM186.47937,150.11009 Q186.71375,150.11009,186.995,150.12572 Q187.27625,150.15697,187.495,150.20384 L187.3075,151.50072 Q187.10437,151.45384,186.85437,151.42259 Q186.60437,151.39134,186.38562,151.39134 Q185.88562,151.39134,185.44812,151.59447 Q184.995,151.79759,184.65125,152.17259 Q184.29187,152.56322,184.08875,153.07884 Q183.88562,153.61009,183.88562,154.26634 L183.88562,158.84447 L182.47937,158.84447 L182.47937,150.26634 L183.63562,150.26634 L183.79187,151.82884 L183.85437,151.82884 Q184.13562,151.36009,184.51062,150.96947 Q184.90125,150.57884,185.38562,150.34447 Q185.88562,150.11009,186.47937,150.11009 ZM190.49362,158.84447 L189.08737,158.84447 L189.08737,146.68822 L190.49362,146.68822 ZM194.62163,150.26634 L194.62163,158.84447 L193.21538,158.84447 L193.21538,150.26634 ZM193.93413,147.04759 Q194.26225,147.04759,194.49663,147.26634 Q194.74663,147.48509,194.74663,147.95384 Q194.74663,148.39134,194.51225,148.61009 Q194.26225,148.84447,193.93413,148.84447 Q193.59038,148.84447,193.356,148.62572 Q193.106,148.39134,193.106,147.95384 Q193.106,147.48509,193.34038,147.26634 Q193.59038,147.04759,193.93413,147.04759 ZM201.46838,150.11009 Q203.01526,150.11009,203.79651,150.84447 Q204.57776,151.59447,204.57776,153.26634 L204.57776,158.84447 L203.18713,158.84447 L203.18713,153.36009 Q203.18713,152.31322,202.71838,151.81322 Q202.24963,151.29759,201.26526,151.29759 Q199.84338,151.29759,199.29651,152.09447 Q198.74963,152.89134,198.74963,154.39134 L198.74963,158.84447 L197.34338,158.84447 L197.34338,150.26634 L198.48401,150.26634 L198.68713,151.43822 L198.76526,151.43822 Q199.06213,150.98509,199.48401,150.68822 Q199.90588,150.39134,200.40588,150.25072 Q200.92151,150.11009,201.46838,150.11009 ZM210.54388,150.11009 Q211.65326,150.11009,212.43451,150.57884 Q213.23138,151.06322,213.65326,151.93822 Q214.07513,152.81322,214.07513,153.98509 L214.07513,154.82884 L208.21576,154.82884 Q208.24701,156.28197,208.95013,157.03197 Q209.66888,157.79759,210.95013,157.79759 Q211.76263,157.79759,212.38763,157.65697 Q213.02826,157.50072,213.70013,157.21947 L213.70013,158.43822 Q213.04388,158.73509,212.40326,158.86009 Q211.76263,159.00072,210.88763,159.00072 Q209.66888,159.00072,208.73138,158.51634 Q207.79388,158.01634,207.27826,157.03197 Q206.74701,156.04759,206.74701,154.62572 Q206.74701,153.21947,207.21576,152.21947 Q207.70013,151.20384,208.54388,150.65697 Q209.40326,150.11009,210.54388,150.11009 ZM210.52826,151.26634 Q209.51263,151.26634,208.93451,151.90697 Q208.35638,152.56322,208.24701,153.70384 L212.60638,153.70384 Q212.60638,152.96947,212.38763,152.43822 Q212.15326,151.89134,211.70013,151.57884 Q211.24701,151.26634,210.52826,151.26634 ZM219.30226,159.00072 Q217.69289,159.00072,216.73976,157.89134 Q215.77101,156.78197,215.77101,154.57884 Q215.77101,152.36009,216.73976,151.23509 Q217.70851,150.11009,219.31789,150.11009 Q219.98976,150.11009,220.47414,150.26634 Q220.97414,150.43822,221.33351,150.71947 Q221.70851,151.01634,221.97414,151.37572 L222.06789,151.37572 Q222.05226,151.15697,222.02101,150.75072 Q221.97414,150.34447,221.97414,150.11009 L221.97414,146.68822 L223.38039,146.68822 L223.38039,158.84447 L222.23976,158.84447 L222.03664,157.68822 L221.97414,157.68822 Q221.70851,158.06322,221.34914,158.36009 Q220.97414,158.65697,220.47414,158.82884 Q219.97414,159.00072,219.30226,159.00072 ZM219.52101,157.82884 Q220.88039,157.82884,221.42726,157.09447 Q221.98976,156.34447,221.98976,154.84447 L221.98976,154.59447 Q221.98976,152.98509,221.45851,152.14134 Q220.92726,151.28197,219.50539,151.28197 Q218.36476,151.28197,217.80226,152.17259 Q217.23976,153.07884,217.23976,154.61009 Q217.23976,156.14134,217.80226,156.98509 Q218.36476,157.82884,219.52101,157.82884 ZM233.56789,150.11009 Q234.67726,150.11009,235.45851,150.57884 Q236.25539,151.06322,236.67726,151.93822 Q237.09914,152.81322,237.09914,153.98509 L237.09914,154.82884 L231.23976,154.82884 Q231.27101,156.28197,231.97414,157.03197 Q232.69289,157.79759,233.97414,157.79759 Q234.78664,157.79759,235.41164,157.65697 Q236.05226,157.50072,236.72414,157.21947 L236.72414,158.43822 Q236.06789,158.73509,235.42726,158.86009 Q234.78664,159.00072,233.91164,159.00072 Q232.69289,159.00072,231.75539,158.51634 Q230.81789,158.01634,230.30226,157.03197 Q229.77101,156.04759,229.77101,154.62572 Q229.77101,153.21947,230.23976,152.21947 Q230.72414,151.20384,231.56789,150.65697 Q232.42726,150.11009,233.56789,150.11009 ZM233.55226,151.26634 Q232.53664,151.26634,231.95851,151.90697 Q231.38039,152.56322,231.27101,153.70384 L235.63039,153.70384 Q235.63039,152.96947,235.41164,152.43822 Q235.17726,151.89134,234.72414,151.57884 Q234.27101,151.26634,233.55226,151.26634 ZM242.32626,159.00072 Q240.71689,159.00072,239.76376,157.89134 Q238.79501,156.78197,238.79501,154.57884 Q238.79501,152.36009,239.76376,151.23509 Q240.73251,150.11009,242.34189,150.11009 Q243.01376,150.11009,243.49814,150.26634 Q243.99814,150.43822,244.35751,150.71947 Q244.73251,151.01634,244.99814,151.37572 L245.09189,151.37572 Q245.07626,151.15697,245.04501,150.75072 Q244.99814,150.34447,244.99814,150.11009 L244.99814,146.68822 L246.40439,146.68822 L246.40439,158.84447 L245.26376,158.84447 L245.06064,157.68822 L244.99814,157.68822 Q244.73251,158.06322,244.37314,158.36009 Q243.99814,158.65697,243.49814,158.82884 Q242.99814,159.00072,242.32626,159.00072 ZM242.54501,157.82884 Q243.90439,157.82884,244.45126,157.09447 Q245.01376,156.34447,245.01376,154.84447 L245.01376,154.59447 Q245.01376,152.98509,244.48251,152.14134 Q243.95126,151.28197,242.52939,151.28197 Q241.38876,151.28197,240.82626,152.17259 Q240.26376,153.07884,240.26376,154.61009 Q240.26376,156.14134,240.82626,156.98509 Q241.38876,157.82884,242.54501,157.82884 ZM252.16626,150.11009 Q253.01001,150.11009,253.68188,150.42259 Q254.36938,150.75072,254.85376,151.40697 L254.93188,151.40697 L255.11938,150.26634 L256.2444,150.26634 L256.2444,158.98509 Q256.2444,160.20384,255.82251,161.03197 Q255.40063,161.86009,254.55688,162.26634 Q253.71313,162.68822,252.40063,162.68822 Q251.47876,162.68822,250.69751,162.54759 Q249.91626,162.40697,249.30688,162.14134 L249.30688,160.84447 Q249.91626,161.15697,250.72876,161.32884 Q251.55688,161.51634,252.47876,161.51634 Q253.58813,161.51634,254.21313,160.87572 Q254.85376,160.21947,254.85376,159.09447 L254.85376,158.76634 Q254.85376,158.57884,254.86938,158.21947 Q254.88501,157.86009,254.90063,157.70384 L254.83813,157.70384 Q254.38501,158.36009,253.72876,158.67259 Q253.05688,159.00072,252.18188,159.00072 Q250.51001,159.00072,249.57251,157.84447 Q248.63501,156.67259,248.63501,154.57884 Q248.63501,152.53197,249.57251,151.32884 Q250.51001,150.11009,252.16626,150.11009 ZM252.35376,151.29759 Q251.63501,151.29759,251.13501,151.67259 Q250.61938,152.06322,250.36938,152.79759 Q250.10376,153.53197,250.10376,154.59447 Q250.10376,156.17259,250.68188,157.01634 Q251.26001,157.86009,252.38501,157.86009 Q253.04126,157.86009,253.49438,157.68822 Q253.96313,157.51634,254.26001,157.15697 Q254.57251,156.79759,254.71313,156.23509 Q254.86938,155.67259,254.86938,154.90697 L254.86938,154.57884 Q254.86938,153.40697,254.60376,152.68822 Q254.33813,151.96947,253.77563,151.64134 Q253.21313,151.29759,252.35376,151.29759 ZM262.27188,150.11009 Q263.38126,150.11009,264.1625,150.57884 Q264.95938,151.06322,265.38126,151.93822 Q265.80313,152.81322,265.80313,153.98509 L265.80313,154.82884 L259.94376,154.82884 Q259.975,156.28197,260.67813,157.03197 Q261.39688,157.79759,262.67813,157.79759 Q263.49063,157.79759,264.11563,157.65697 Q264.75626,157.50072,265.42813,157.21947 L265.42813,158.43822 Q264.77188,158.73509,264.13126,158.86009 Q263.49063,159.00072,262.61563,159.00072 Q261.39688,159.00072,260.45938,158.51634 Q259.52188,158.01634,259.00626,157.03197 Q258.475,156.04759,258.475,154.62572 Q258.475,153.21947,258.94376,152.21947 Q259.42813,151.20384,260.27188,150.65697 Q261.13126,150.11009,262.27188,150.11009 ZM262.25626,151.26634 Q261.24063,151.26634,260.6625,151.90697 Q260.08438,152.56322,259.975,153.70384 L264.33438,153.70384 Q264.33438,152.96947,264.11563,152.43822 Q263.88126,151.89134,263.42813,151.57884 Q262.975,151.26634,262.25626,151.26634 Z" fill="#6A77DD"/>
</a>
</g>
</g>
<g class="edge" id="edge-1">
<title>Bar -&gt; Baz</title>
<g id="a-edge-1">
<a title="Bar -&gt; Baz" xlink:title="Bar -&gt; Baz">
<path d="M96.20799,280.54544 C96.20799,294.70602,96.20799,308.86664,96.20799,323.02722 C96.20799,347.1156,324.28613,371.20395,438.32523,395.29233" fill="none" stroke="#FFD600" stroke-width="1"/>
<polygon fill="#FFD600" points="96.20799,280.54544 92.20799,290.54544 100.20799,290.54544 96.20799,280.54544" stroke="#FFD600" stroke-width="1"/>
<rect fill="transparent" height="37.792" stroke="transparent" stroke-width="1" width="166.73601" x="106.207985" y="304.13123"/>
<path d="M126.926735,329.23523 L125.551735,325.70398 L121.020485,325.70398 L119.66111,329.23523 L118.207985,329.23523 L122.676735,317.76648 L123.97361,317.76648 L128.4111,329.23523 ZM123.832985,320.9696 Q123.78611,320.82898,123.676735,320.50085 Q123.56736,320.1571,123.47361,319.79773 Q123.364235,319.43835,123.301735,319.25085 Q123.22361,319.57898,123.12986,319.89148 Q123.03611,320.2196,122.957985,320.48523 Q122.864235,320.76648,122.801735,320.9696 L121.50486,324.42273 L125.114235,324.42273 ZM135.35762,320.0321 Q135.35762,320.57898,135.342,321.04773 Q135.31075,321.51648,135.2795,321.79773 L135.35762,321.79773 Q135.73262,321.25085,136.37325,320.89148 Q137.01387,320.51648,138.01387,320.51648 Q139.62325,320.51648,140.57637,321.62585 Q141.54512,322.73523,141.54512,324.95398 Q141.54512,326.42273,141.10762,327.4071 Q140.67012,328.4071,139.87325,328.89148 Q139.07637,329.39148,138.01387,329.39148 Q137.01387,329.39148,136.37325,329.0321 Q135.73262,328.6571,135.35762,328.14148 L135.24825,328.14148 L134.967,329.23523 L133.95137,329.23523 L133.95137,317.07898 L135.35762,317.07898 ZM137.7795,321.68835 Q136.85762,321.68835,136.342,322.0321 Q135.81075,322.37585,135.592,323.07898 Q135.35762,323.79773,135.35762,324.89148 L135.35762,324.9696 Q135.35762,326.54773,135.87325,327.37585 Q136.4045,328.2196,137.81075,328.2196 Q138.967,328.2196,139.5295,327.37585 Q140.092,326.5321,140.092,324.93835 Q140.092,323.31335,139.5295,322.50085 Q138.967,321.68835,137.7795,321.68835 ZM147.04137,320.51648 Q148.60387,320.51648,149.35387,321.20398 Q150.11949,321.89148,150.11949,323.39148 L150.11949,329.23523 L149.08824,329.23523 L148.82262,328.01648 L148.74449,328.01648 Q148.38512,328.48523,147.99449,328.79773 Q147.60387,329.11023,147.10387,329.25085 Q146.58824,329.39148,145.86949,329.39148 Q145.10387,329.39148,144.49449,329.12585 Q143.86949,328.8446,143.52574,328.2821 Q143.16637,327.7196,143.16637,326.8446 Q143.16637,325.57898,144.16637,324.87585 Q145.18199,324.17273,147.27574,324.11023 L148.72887,324.06335 L148.72887,323.54773 Q148.72887,322.48523,148.27574,322.07898 Q147.80699,321.6571,146.96324,321.6571 Q146.29137,321.6571,145.68199,321.8446 Q145.07262,322.04773,144.54137,322.31335 L144.11949,321.25085 Q144.66637,320.95398,145.43199,320.73523 Q146.21324,320.51648,147.04137,320.51648 ZM147.46324,325.0946 Q145.85387,325.1571,145.24449,325.5946 Q144.61949,326.04773,144.61949,326.86023 Q144.61949,327.5946,145.05699,327.92273 Q145.51012,328.26648,146.19762,328.26648 Q147.27574,328.26648,147.99449,327.67273 Q148.71324,327.06335,148.71324,325.81335 L148.71324,325.04773 ZM156.20486,329.39148 Q155.06424,329.39148,154.18924,328.93835 Q153.29861,328.4696,152.79861,327.50085 Q152.28299,326.51648,152.28299,325.00085 Q152.28299,323.4071,152.81424,322.42273 Q153.34549,321.42273,154.25174,320.9696 Q155.15799,320.50085,156.29861,320.50085 Q156.95486,320.50085,157.56424,320.62585 Q158.17361,320.76648,158.56424,320.9696 L158.12674,322.12585 Q157.75174,321.98523,157.23611,321.86023 Q156.72049,321.73523,156.26736,321.73523 Q155.40799,321.73523,154.84549,322.0946 Q154.28299,322.4696,154.01736,323.18835 Q153.75174,323.9071,153.75174,324.98523 Q153.75174,326.00085,154.01736,326.7196 Q154.28299,327.43835,154.82986,327.79773 Q155.37674,328.17273,156.18924,328.17273 Q156.89236,328.17273,157.42361,328.0321 Q157.97049,327.89148,158.42361,327.68835 L158.42361,328.93835 Q157.98611,329.1571,157.47049,329.26648 Q156.93924,329.39148,156.20486,329.39148 ZM161.83798,323.42273 Q161.83798,323.68835,161.82236,324.0946 Q161.7911,324.51648,161.77548,324.81335 L161.83798,324.81335 Q161.93173,324.68835,162.11923,324.45398 Q162.32236,324.20398,162.50986,323.9696 Q162.71298,323.7196,162.86923,323.54773 L165.6036,320.6571 L167.24423,320.6571 L163.77548,324.32898 L167.49423,329.23523 L165.7911,329.23523 L162.82236,325.23523 L161.83798,326.07898 L161.83798,329.23523 L160.44736,329.23523 L160.44736,317.07898 L161.83798,317.07898 ZM174.52261,324.39148 Q174.42886,324.04773,174.33511,323.7196 Q174.24136,323.39148,174.17886,323.0946 Q174.10074,322.79773,174.03824,322.54773 Q173.97574,322.29773,173.92886,322.11023 L173.86636,322.11023 Q173.83511,322.29773,173.78824,322.54773 Q173.72574,322.79773,173.66324,323.0946 Q173.58511,323.4071,173.50699,323.73523 Q173.41324,324.06335,173.28824,324.4071 L171.75699,329.2196 L170.16324,329.2196 L167.80386,320.64148 L169.25699,320.64148 L170.44449,325.2196 Q170.56949,325.68835,170.67886,326.1571 Q170.80386,326.62585,170.88199,327.04773 Q170.97574,327.4696,171.00699,327.7821 L171.06949,327.7821 Q171.11636,327.5946,171.17886,327.31335 Q171.24136,327.01648,171.31949,326.70398 Q171.39761,326.37585,171.47574,326.06335 Q171.56949,325.73523,171.64761,325.4696 L173.16324,320.64148 L174.71011,320.64148 L176.17886,325.4696 Q176.28824,325.8446,176.39761,326.25085 Q176.52261,326.67273,176.61636,327.06335 Q176.72574,327.45398,176.75699,327.76648 L176.81949,327.76648 Q176.85074,327.48523,176.92886,327.07898 Q177.02261,326.67273,177.13199,326.18835 Q177.25699,325.70398,177.39761,325.2196 L178.58511,320.64148 L180.03824,320.64148 L177.64761,329.2196 L176.00699,329.2196 ZM184.81737,320.51648 Q186.37987,320.51648,187.12987,321.20398 Q187.8955,321.89148,187.8955,323.39148 L187.8955,329.23523 L186.86424,329.23523 L186.59862,328.01648 L186.5205,328.01648 Q186.16112,328.48523,185.7705,328.79773 Q185.37987,329.11023,184.87987,329.25085 Q184.36424,329.39148,183.6455,329.39148 Q182.87987,329.39148,182.2705,329.12585 Q181.6455,328.8446,181.30174,328.2821 Q180.94237,327.7196,180.94237,326.8446 Q180.94237,325.57898,181.94237,324.87585 Q182.958,324.17273,185.05174,324.11023 L186.50487,324.06335 L186.50487,323.54773 Q186.50487,322.48523,186.05174,322.07898 Q185.583,321.6571,184.73924,321.6571 Q184.06737,321.6571,183.458,321.8446 Q182.84862,322.04773,182.31737,322.31335 L181.8955,321.25085 Q182.44237,320.95398,183.208,320.73523 Q183.98924,320.51648,184.81737,320.51648 ZM185.23924,325.0946 Q183.62987,325.1571,183.0205,325.5946 Q182.3955,326.04773,182.3955,326.86023 Q182.3955,327.5946,182.833,327.92273 Q183.28612,328.26648,183.97362,328.26648 Q185.05174,328.26648,185.7705,327.67273 Q186.48924,327.06335,186.48924,325.81335 L186.48924,325.04773 ZM194.54337,320.50085 Q194.77774,320.50085,195.05899,320.51648 Q195.34024,320.54773,195.55899,320.5946 L195.37149,321.89148 Q195.16837,321.8446,194.91837,321.81335 Q194.66837,321.7821,194.44962,321.7821 Q193.94962,321.7821,193.51212,321.98523 Q193.05899,322.18835,192.71524,322.56335 Q192.35587,322.95398,192.15274,323.4696 Q191.94962,324.00085,191.94962,324.6571 L191.94962,329.23523 L190.54337,329.23523 L190.54337,320.6571 L191.69962,320.6571 L191.85587,322.2196 L191.91837,322.2196 Q192.19962,321.75085,192.57462,321.36023 Q192.96524,320.9696,193.44962,320.73523 Q193.94962,320.50085,194.54337,320.50085 ZM199.87823,329.39148 Q198.26886,329.39148,197.31573,328.2821 Q196.34698,327.17273,196.34698,324.9696 Q196.34698,322.75085,197.31573,321.62585 Q198.28448,320.50085,199.89386,320.50085 Q200.56573,320.50085,201.05011,320.6571 Q201.55011,320.82898,201.90948,321.11023 Q202.28448,321.4071,202.55011,321.76648 L202.64386,321.76648 Q202.62823,321.54773,202.59698,321.14148 Q202.55011,320.73523,202.55011,320.50085 L202.55011,317.07898 L203.95636,317.07898 L203.95636,329.23523 L202.81573,329.23523 L202.61261,328.07898 L202.55011,328.07898 Q202.28448,328.45398,201.92511,328.75085 Q201.55011,329.04773,201.05011,329.2196 Q200.55011,329.39148,199.87823,329.39148 ZM200.09698,328.2196 Q201.45636,328.2196,202.00323,327.48523 Q202.56573,326.73523,202.56573,325.23523 L202.56573,324.98523 Q202.56573,323.37585,202.03448,322.5321 Q201.50323,321.67273,200.08136,321.67273 Q198.94073,321.67273,198.37823,322.56335 Q197.81573,323.4696,197.81573,325.00085 Q197.81573,326.5321,198.37823,327.37585 Q198.94073,328.2196,200.09698,328.2196 ZM212.24948,326.86023 Q212.24948,327.70398,211.84323,328.25085 Q211.42136,328.81335,210.65573,329.0946 Q209.8901,329.39148,208.8276,329.39148 Q207.93698,329.39148,207.29636,329.25085 Q206.6401,329.11023,206.1401,328.8446 L206.1401,327.57898 Q206.65573,327.82898,207.37448,328.04773 Q208.10886,328.26648,208.85886,328.26648 Q209.93698,328.26648,210.40573,327.92273 Q210.8901,327.57898,210.8901,327.00085 Q210.8901,326.67273,210.71823,326.42273 Q210.54636,326.1571,210.09323,325.9071 Q209.62448,325.6571,208.78073,325.32898 Q207.9526,325.01648,207.35886,324.70398 Q206.7651,324.37585,206.4526,323.92273 Q206.12448,323.4696,206.12448,322.76648 Q206.12448,321.68835,207.0151,321.0946 Q207.90573,320.50085,209.34323,320.50085 Q210.12448,320.50085,210.79636,320.64148 Q211.48386,320.79773,212.0776,321.07898 L211.59323,322.18835 Q211.06198,321.9696,210.46823,321.81335 Q209.87448,321.6571,209.24948,321.6571 Q208.3901,321.6571,207.93698,321.92273 Q207.46823,322.20398,207.46823,322.68835 Q207.46823,323.04773,207.67136,323.2821 Q207.8901,323.5321,208.37448,323.76648 Q208.85886,324.00085,209.68698,324.32898 Q210.49948,324.62585,211.0776,324.93835 Q211.65573,325.26648,211.9526,325.7196 Q212.24948,326.17273,212.24948,326.86023 ZM221.74536,320.51648 Q223.30786,320.51648,224.05786,321.20398 Q224.82349,321.89148,224.82349,323.39148 L224.82349,329.23523 L223.79224,329.23523 L223.52661,328.01648 L223.44849,328.01648 Q223.08911,328.48523,222.69849,328.79773 Q222.30786,329.11023,221.80786,329.25085 Q221.29224,329.39148,220.57349,329.39148 Q219.80786,329.39148,219.19849,329.12585 Q218.57349,328.8446,218.22974,328.2821 Q217.87036,327.7196,217.87036,326.8446 Q217.87036,325.57898,218.87036,324.87585 Q219.88599,324.17273,221.97974,324.11023 L223.43286,324.06335 L223.43286,323.54773 Q223.43286,322.48523,222.97974,322.07898 Q222.51099,321.6571,221.66724,321.6571 Q220.99536,321.6571,220.38599,321.8446 Q219.77661,322.04773,219.24536,322.31335 L218.82349,321.25085 Q219.37036,320.95398,220.13599,320.73523 Q220.91724,320.51648,221.74536,320.51648 ZM222.16724,325.0946 Q220.55786,325.1571,219.94849,325.5946 Q219.32349,326.04773,219.32349,326.86023 Q219.32349,327.5946,219.76099,327.92273 Q220.21411,328.26648,220.90161,328.26648 Q221.97974,328.26648,222.69849,327.67273 Q223.41724,327.06335,223.41724,325.81335 L223.41724,325.04773 ZM231.47136,320.50085 Q231.70573,320.50085,231.98698,320.51648 Q232.26823,320.54773,232.48698,320.5946 L232.29948,321.89148 Q232.09636,321.8446,231.84636,321.81335 Q231.59636,321.7821,231.37761,321.7821 Q230.87761,321.7821,230.44011,321.98523 Q229.98698,322.18835,229.64323,322.56335 Q229.28386,322.95398,229.08073,323.4696 Q228.87761,324.00085,228.87761,324.6571 L228.87761,329.23523 L227.47136,329.23523 L227.47136,320.6571 L228.62761,320.6571 L228.78386,322.2196 L228.84636,322.2196 Q229.12761,321.75085,229.50261,321.36023 Q229.89323,320.9696,230.37761,320.73523 Q230.87761,320.50085,231.47136,320.50085 ZM238.07936,320.50085 Q238.31374,320.50085,238.59499,320.51648 Q238.87624,320.54773,239.09499,320.5946 L238.90749,321.89148 Q238.70436,321.8446,238.45436,321.81335 Q238.20436,321.7821,237.98561,321.7821 Q237.48561,321.7821,237.04811,321.98523 Q236.59499,322.18835,236.25124,322.56335 Q235.89186,322.95398,235.68874,323.4696 Q235.48561,324.00085,235.48561,324.6571 L235.48561,329.23523 L234.07936,329.23523 L234.07936,320.6571 L235.23561,320.6571 L235.39186,322.2196 L235.45436,322.2196 Q235.73561,321.75085,236.11061,321.36023 Q236.50124,320.9696,236.98561,320.73523 Q237.48561,320.50085,238.07936,320.50085 ZM247.82048,324.93835 Q247.82048,326.00085,247.53923,326.82898 Q247.25798,327.6571,246.74236,328.2196 Q246.22673,328.79773,245.49236,329.0946 Q244.74236,329.39148,243.82048,329.39148 Q242.97673,329.39148,242.25798,329.0946 Q241.53923,328.79773,241.00798,328.23523 Q240.47673,327.6571,240.17986,326.82898 Q239.88298,326.00085,239.88298,324.93835 Q239.88298,323.50085,240.36736,322.51648 Q240.85173,321.5321,241.74236,321.01648 Q242.63298,320.50085,243.86736,320.50085 Q245.03923,320.50085,245.92986,321.01648 Q246.82048,321.5321,247.32048,322.51648 Q247.82048,323.50085,247.82048,324.93835 ZM241.35173,324.93835 Q241.35173,325.93835,241.60173,326.67273 Q241.86736,327.42273,242.42986,327.81335 Q242.99236,328.2196,243.85173,328.2196 Q244.72673,328.2196,245.2736,327.82898 Q245.8361,327.42273,246.10173,326.68835 Q246.36736,325.93835,246.36736,324.93835 Q246.36736,323.9071,246.10173,323.18835 Q245.82048,322.4696,245.2736,322.07898 Q244.72673,321.68835,243.8361,321.68835 Q242.5236,321.68835,241.94548,322.54773 Q241.35173,323.4071,241.35173,324.93835 ZM255.2586,324.39148 Q255.16486,324.04773,255.0711,323.7196 Q254.97736,323.39148,254.91486,323.0946 Q254.83673,322.79773,254.77423,322.54773 Q254.71173,322.29773,254.66486,322.11023 L254.60236,322.11023 Q254.5711,322.29773,254.52423,322.54773 Q254.46173,322.79773,254.39923,323.0946 Q254.3211,323.4071,254.24298,323.73523 Q254.14923,324.06335,254.02423,324.4071 L252.49298,329.2196 L250.89923,329.2196 L248.53986,320.64148 L249.99298,320.64148 L251.18048,325.2196 Q251.30548,325.68835,251.41486,326.1571 Q251.53986,326.62585,251.61798,327.04773 Q251.71173,327.4696,251.74298,327.7821 L251.80548,327.7821 Q251.85236,327.5946,251.91486,327.31335 Q251.97736,327.01648,252.05548,326.70398 Q252.1336,326.37585,252.21173,326.06335 Q252.30548,325.73523,252.3836,325.4696 L253.89923,320.64148 L255.4461,320.64148 L256.91486,325.4696 Q257.02423,325.8446,257.1336,326.25085 Q257.2586,326.67273,257.35236,327.06335 Q257.46173,327.45398,257.49298,327.76648 L257.55548,327.76648 Q257.58673,327.48523,257.66486,327.07898 Q257.7586,326.67273,257.86798,326.18835 Q257.99298,325.70398,258.1336,325.2196 L259.3211,320.64148 L260.77423,320.64148 L258.3836,329.2196 L256.74298,329.2196 Z" fill="black"/>
</a>
</g>
</g>
<g class="edge" id="edge-2">
<title>Foo -&gt; Baz</title>
<g id="a-edge-2">
<a title="Foo -&gt; Baz" xlink:title="Foo -&gt; Baz">
<path d="M561.22064,86.0313 C642.2984,108.233025,804.454,130.43474,804.454,152.63646 C804.454,181.48892,804.454,210.34138,804.454,239.19385 C804.454,267.1383,804.454,295.08276,804.454,323.02722 C804.454,346.7607,608.5016,370.49417,510.52542,394.22766" fill="none" stroke="#FF2F8E" stroke-dasharray="1, 5" stroke-width="1"/>
<polygon fill="#FF2F8E" points="510.52542,394.22766 521.17755,395.81894 519.3365,388.03366 510.52542,394.22766" stroke="#FF2F8E" stroke-width="1"/>
<rect fill="#FF2F8EAA" height="59.584" stroke="#FF2F8E" stroke-dasharray="1, 5" stroke-width="1" width="163.872" x="722.518" y="209.40186"/>
<path d="M743.23676,234.50586 L741.86176,230.97461 L737.3305,230.97461 L735.9711,234.50586 L734.518,234.50586 L738.98676,223.03711 L740.2836,223.03711 L744.7211,234.50586 ZM740.143,226.24023 Q740.0961,226.09961,739.98676,225.77148 Q739.8774,225.42773,739.7836,225.06836 Q739.67426,224.70898,739.61176,224.52148 Q739.5336,224.84961,739.4399,225.16211 Q739.3461,225.49023,739.268,225.75586 Q739.17426,226.03711,739.11176,226.24023 L737.8149,229.69336 L741.42426,229.69336 ZM751.6676,225.30273 Q751.6676,225.84961,751.652,226.31836 Q751.6207,226.78711,751.5895,227.06836 L751.6676,227.06836 Q752.0426,226.52148,752.6832,226.16211 Q753.32385,225.78711,754.32385,225.78711 Q755.9332,225.78711,756.88635,226.89648 Q757.8551,228.00586,757.8551,230.22461 Q757.8551,231.69336,757.4176,232.67773 Q756.9801,233.67773,756.1832,234.16211 Q755.38635,234.66211,754.32385,234.66211 Q753.32385,234.66211,752.6832,234.30273 Q752.0426,233.92773,751.6676,233.41211 L751.5582,233.41211 L751.277,234.50586 L750.26135,234.50586 L750.26135,222.34961 L751.6676,222.34961 ZM754.0895,226.95898 Q753.1676,226.95898,752.652,227.30273 Q752.1207,227.64648,751.902,228.34961 Q751.6676,229.06836,751.6676,230.16211 L751.6676,230.24023 Q751.6676,231.81836,752.1832,232.64648 Q752.7145,233.49023,754.1207,233.49023 Q755.277,233.49023,755.8395,232.64648 Q756.402,231.80273,756.402,230.20898 Q756.402,228.58398,755.8395,227.77148 Q755.277,226.95898,754.0895,226.95898 ZM767.5545,230.20898 Q767.5545,231.27148,767.27325,232.09961 Q766.992,232.92773,766.4764,233.49023 Q765.96075,234.06836,765.2264,234.36523 Q764.4764,234.66211,763.5545,234.66211 Q762.71075,234.66211,761.992,234.36523 Q761.27325,234.06836,760.742,233.50586 Q760.21075,232.92773,759.9139,232.09961 Q759.617,231.27148,759.617,230.20898 Q759.617,228.77148,760.1014,227.78711 Q760.58575,226.80273,761.4764,226.28711 Q762.367,225.77148,763.6014,225.77148 Q764.77325,225.77148,765.6639,226.28711 Q766.5545,226.80273,767.0545,227.78711 Q767.5545,228.77148,767.5545,230.20898 ZM761.08575,230.20898 Q761.08575,231.20898,761.33575,231.94336 Q761.6014,232.69336,762.1639,233.08398 Q762.7264,233.49023,763.58575,233.49023 Q764.46075,233.49023,765.0076,233.09961 Q765.5701,232.69336,765.83575,231.95898 Q766.1014,231.20898,766.1014,230.20898 Q766.1014,229.17773,765.83575,228.45898 Q765.5545,227.74023,765.0076,227.34961 Q764.46075,226.95898,763.5701,226.95898 Q762.2576,226.95898,761.6795,227.81836 Q761.08575,228.67773,761.08575,230.20898 ZM771.4926,230.11523 L768.5395,225.92773 L770.13324,225.92773 L772.33636,229.16211 L774.5395,225.92773 L776.1176,225.92773 L773.1645,230.11523 L776.27386,234.50586 L774.6801,234.50586 L772.33636,231.08398 L769.977,234.50586 L768.38324,234.50586 ZM780.91785,225.77148 Q782.0272,225.77148,782.8085,226.24023 Q783.60535,226.72461,784.0272,227.59961 Q784.4491,228.47461,784.4491,229.64648 L784.4491,230.49023 L778.5897,230.49023 Q778.621,231.94336,779.3241,232.69336 Q780.04285,233.45898,781.3241,233.45898 Q782.1366,233.45898,782.7616,233.31836 Q783.4022,233.16211,784.0741,232.88086 L784.0741,234.09961 Q783.41785,234.39648,782.7772,234.52148 Q782.1366,234.66211,781.2616,234.66211 Q780.04285,234.66211,779.10535,234.17773 Q778.16785,233.67773,777.6522,232.69336 Q777.121,231.70898,777.121,230.28711 Q777.121,228.88086,777.5897,227.88086 Q778.0741,226.86523,778.91785,226.31836 Q779.7772,225.77148,780.91785,225.77148 ZM780.9022,226.92773 Q779.8866,226.92773,779.3085,227.56836 Q778.73035,228.22461,778.621,229.36523 L782.98035,229.36523 Q782.98035,228.63086,782.7616,228.09961 Q782.5272,227.55273,782.0741,227.24023 Q781.621,226.92773,780.9022,226.92773 ZM789.6762,234.66211 Q788.06683,234.66211,787.1137,233.55273 Q786.14496,232.44336,786.14496,230.24023 Q786.14496,228.02148,787.1137,226.89648 Q788.08246,225.77148,789.69183,225.77148 Q790.3637,225.77148,790.8481,225.92773 Q791.3481,226.09961,791.70746,226.38086 Q792.08246,226.67773,792.3481,227.03711 L792.44183,227.03711 Q792.4262,226.81836,792.39496,226.41211 Q792.3481,226.00586,792.3481,225.77148 L792.3481,222.34961 L793.75433,222.34961 L793.75433,234.50586 L792.6137,234.50586 L792.4106,233.34961 L792.3481,233.34961 Q792.08246,233.72461,791.7231,234.02148 Q791.3481,234.31836,790.8481,234.49023 Q790.3481,234.66211,789.6762,234.66211 ZM789.89496,233.49023 Q791.25433,233.49023,791.8012,232.75586 Q792.3637,232.00586,792.3637,230.50586 L792.3637,230.25586 Q792.3637,228.64648,791.83246,227.80273 Q791.3012,226.94336,789.87933,226.94336 Q788.7387,226.94336,788.1762,227.83398 Q787.6137,228.74023,787.6137,230.27148 Q787.6137,231.80273,788.1762,232.64648 Q788.7387,233.49023,789.89496,233.49023 ZM798.1881,232.81836 Q798.03186,233.38086,797.8131,234.03711 Q797.59436,234.69336,797.32874,235.33398 Q797.0631,235.99023,796.8131,236.56836 L795.76624,236.56836 Q795.9225,235.95898,796.07874,235.27148 Q796.235,234.56836,796.36,233.89648 Q796.485,233.20898,796.5631,232.64648 L798.0631,232.64648 ZM808.35486,234.66211 Q807.21423,234.66211,806.33923,234.20898 Q805.4486,233.74023,804.9486,232.77148 Q804.433,231.78711,804.433,230.27148 Q804.433,228.67773,804.96423,227.69336 Q805.4955,226.69336,806.40173,226.24023 Q807.308,225.77148,808.4486,225.77148 Q809.10486,225.77148,809.71423,225.89648 Q810.3236,226.03711,810.71423,226.24023 L810.27673,227.39648 Q809.90173,227.25586,809.3861,227.13086 Q808.8705,227.00586,808.41736,227.00586 Q807.558,227.00586,806.9955,227.36523 Q806.433,227.74023,806.16736,228.45898 Q805.90173,229.17773,805.90173,230.25586 Q805.90173,231.27148,806.16736,231.99023 Q806.433,232.70898,806.97986,233.06836 Q807.52673,233.44336,808.33923,233.44336 Q809.04236,233.44336,809.5736,233.30273 Q810.1205,233.16211,810.5736,232.95898 L810.5736,234.20898 Q810.1361,234.42773,809.6205,234.53711 Q809.08923,234.66211,808.35486,234.66211 ZM815.90985,225.77148 Q817.0192,225.77148,817.8005,226.24023 Q818.59735,226.72461,819.0192,227.59961 Q819.4411,228.47461,819.4411,229.64648 L819.4411,230.49023 L813.5817,230.49023 Q813.613,231.94336,814.3161,232.69336 Q815.03485,233.45898,816.3161,233.45898 Q817.1286,233.45898,817.7536,233.31836 Q818.3942,233.16211,819.0661,232.88086 L819.0661,234.09961 Q818.40985,234.39648,817.7692,234.52148 Q817.1286,234.66211,816.2536,234.66211 Q815.03485,234.66211,814.09735,234.17773 Q813.15985,233.67773,812.6442,232.69336 Q812.113,231.70898,812.113,230.28711 Q812.113,228.88086,812.5817,227.88086 Q813.0661,226.86523,813.90985,226.31836 Q814.7692,225.77148,815.90985,225.77148 ZM815.8942,226.92773 Q814.8786,226.92773,814.3005,227.56836 Q813.72235,228.22461,813.613,229.36523 L817.97235,229.36523 Q817.97235,228.63086,817.7536,228.09961 Q817.5192,227.55273,817.0661,227.24023 Q816.613,226.92773,815.8942,226.92773 ZM825.74634,225.77148 Q827.2932,225.77148,828.07446,226.50586 Q828.8557,227.25586,828.8557,228.92773 L828.8557,234.50586 L827.4651,234.50586 L827.4651,229.02148 Q827.4651,227.97461,826.99634,227.47461 Q826.5276,226.95898,825.5432,226.95898 Q824.12134,226.95898,823.57446,227.75586 Q823.0276,228.55273,823.0276,230.05273 L823.0276,234.50586 L821.62134,234.50586 L821.62134,225.92773 L822.76196,225.92773 L822.9651,227.09961 L823.0432,227.09961 Q823.3401,226.64648,823.76196,226.34961 Q824.18384,226.05273,824.68384,225.91211 Q825.19946,225.77148,825.74634,225.77148 ZM834.3687,233.52148 Q834.69684,233.52148,835.02496,233.45898 Q835.3687,233.39648,835.57184,233.33398 L835.57184,234.41211 Q835.3531,234.52148,834.94684,234.58398 Q834.52496,234.66211,834.13434,234.66211 Q833.46246,234.66211,832.89996,234.44336 Q832.32184,234.20898,831.9781,233.63086 Q831.6187,233.05273,831.6187,232.00586 L831.6187,227.02148 L830.39996,227.02148 L830.39996,226.34961 L831.63434,225.78711 L832.19684,223.95898 L833.02496,223.95898 L833.02496,225.92773 L835.50934,225.92773 L835.50934,227.02148 L833.02496,227.02148 L833.02496,231.97461 Q833.02496,232.75586,833.39996,233.13086 Q833.77496,233.52148,834.3687,233.52148 ZM840.59784,225.77148 Q841.7072,225.77148,842.48846,226.24023 Q843.28534,226.72461,843.7072,227.59961 Q844.1291,228.47461,844.1291,229.64648 L844.1291,230.49023 L838.2697,230.49023 Q838.30096,231.94336,839.0041,232.69336 Q839.72284,233.45898,841.0041,233.45898 Q841.8166,233.45898,842.4416,233.31836 Q843.0822,233.16211,843.7541,232.88086 L843.7541,234.09961 Q843.09784,234.39648,842.4572,234.52148 Q841.8166,234.66211,840.9416,234.66211 Q839.72284,234.66211,838.78534,234.17773 Q837.84784,233.67773,837.3322,232.69336 Q836.80096,231.70898,836.80096,230.28711 Q836.80096,228.88086,837.2697,227.88086 Q837.7541,226.86523,838.59784,226.31836 Q839.4572,225.77148,840.59784,225.77148 ZM840.5822,226.92773 Q839.5666,226.92773,838.98846,227.56836 Q838.41034,228.22461,838.30096,229.36523 L842.66034,229.36523 Q842.66034,228.63086,842.4416,228.09961 Q842.2072,227.55273,841.7541,227.24023 Q841.30096,226.92773,840.5822,226.92773 ZM850.3093,225.77148 Q850.5437,225.77148,850.82495,225.78711 Q851.1062,225.81836,851.32495,225.86523 L851.13745,227.16211 Q850.9343,227.11523,850.6843,227.08398 Q850.4343,227.05273,850.2156,227.05273 Q849.7156,227.05273,849.2781,227.25586 Q848.82495,227.45898,848.4812,227.83398 Q848.1218,228.22461,847.9187,228.74023 Q847.7156,229.27148,847.7156,229.92773 L847.7156,234.50586 L846.3093,234.50586 L846.3093,225.92773 L847.4656,225.92773 L847.6218,227.49023 L847.6843,227.49023 Q847.9656,227.02148,848.3406,226.63086 Q848.7312,226.24023,849.2156,226.00586 Q849.7156,225.77148,850.3093,225.77148 ZM855.90985,225.77148 Q857.0192,225.77148,857.8005,226.24023 Q858.59735,226.72461,859.0192,227.59961 Q859.4411,228.47461,859.4411,229.64648 L859.4411,230.49023 L853.5817,230.49023 Q853.613,231.94336,854.3161,232.69336 Q855.03485,233.45898,856.3161,233.45898 Q857.1286,233.45898,857.7536,233.31836 Q858.3942,233.16211,859.0661,232.88086 L859.0661,234.09961 Q858.40985,234.39648,857.7692,234.52148 Q857.1286,234.66211,856.2536,234.66211 Q855.03485,234.66211,854.09735,234.17773 Q853.15985,233.67773,852.6442,232.69336 Q852.113,231.70898,852.113,230.28711 Q852.113,228.88086,852.5817,227.88086 Q853.0661,226.86523,853.90985,226.31836 Q854.7692,225.77148,855.90985,225.77148 ZM855.8942,226.92773 Q854.8786,226.92773,854.3005,227.56836 Q853.72235,228.22461,853.613,229.36523 L857.97235,229.36523 Q857.97235,228.63086,857.7536,228.09961 Q857.5192,227.55273,857.0661,227.24023 Q856.613,226.92773,855.8942,226.92773 ZM864.6682,234.66211 Q863.05884,234.66211,862.1057,233.55273 Q861.13696,232.44336,861.13696,230.24023 Q861.13696,228.02148,862.1057,226.89648 Q863.07446,225.77148,864.68384,225.77148 Q865.3557,225.77148,865.8401,225.92773 Q866.3401,226.09961,866.69946,226.38086 Q867.07446,226.67773,867.3401,227.03711 L867.43384,227.03711 Q867.4182,226.81836,867.38696,226.41211 Q867.3401,226.00586,867.3401,225.77148 L867.3401,222.34961 L868.74634,222.34961 L868.74634,234.50586 L867.6057,234.50586 L867.4026,233.34961 L867.3401,233.34961 Q867.07446,233.72461,866.7151,234.02148 Q866.3401,234.31836,865.8401,234.49023 Q865.3401,234.66211,864.6682,234.66211 ZM864.88696,233.49023 Q866.24634,233.49023,866.7932,232.75586 Q867.3557,232.00586,867.3557,230.50586 L867.3557,230.25586 Q867.3557,228.64648,866.82446,227.80273 Q866.2932,226.94336,864.87134,226.94336 Q863.7307,226.94336,863.1682,227.83398 Q862.6057,228.74023,862.6057,230.27148 Q862.6057,231.80273,863.1682,232.64648 Q863.7307,233.49023,864.88696,233.49023 ZM873.1801,232.81836 Q873.02386,233.38086,872.8051,234.03711 Q872.58636,234.69336,872.32074,235.33398 Q872.0551,235.99023,871.8051,236.56836 L870.75824,236.56836 Q870.9145,235.95898,871.07074,235.27148 Q871.227,234.56836,871.352,233.89648 Q871.477,233.20898,871.5551,232.64648 L873.0551,232.64648 ZM739.8305,248.81348 L737.67426,248.81348 L737.67426,256.29785 L736.268,256.29785 L736.268,248.81348 L734.7524,248.81348 L734.7524,248.15723 L736.268,247.67285 L736.268,247.17285 Q736.268,246.0791,736.5961,245.3916 Q736.92426,244.7041,737.5336,244.3916 Q738.1586,244.06348,739.04926,244.06348 Q739.5649,244.06348,739.98676,244.1416 Q740.4086,244.23535,740.7055,244.34473 L740.3461,245.4541 Q740.0805,245.37598,739.7524,245.29785 Q739.4086,245.2041,739.0649,245.2041 Q738.36176,245.2041,738.018,245.67285 Q737.67426,246.15723,737.67426,247.15723 L737.67426,247.71973 L739.8305,247.71973 ZM742.7836,247.71973 L742.7836,256.29785 L741.3774,256.29785 L741.3774,247.71973 ZM742.0961,244.50098 Q742.42426,244.50098,742.6586,244.71973 Q742.9086,244.93848,742.9086,245.40723 Q742.9086,245.84473,742.67426,246.06348 Q742.42426,246.29785,742.0961,246.29785 Q741.7524,246.29785,741.518,246.0791 Q741.268,245.84473,741.268,245.40723 Q741.268,244.93848,741.5024,244.71973 Q741.7524,244.50098,742.0961,244.50098 ZM746.91565,256.29785 L745.5094,256.29785 L745.5094,244.1416 L746.91565,244.1416 ZM751.04364,256.29785 L749.6374,256.29785 L749.6374,244.1416 L751.04364,244.1416 ZM757.0779,247.56348 Q758.18726,247.56348,758.9685,248.03223 Q759.7654,248.5166,760.18726,249.3916 Q760.60913,250.2666,760.60913,251.43848 L760.60913,252.28223 L754.74976,252.28223 Q754.781,253.73535,755.48413,254.48535 Q756.2029,255.25098,757.48413,255.25098 Q758.29663,255.25098,758.92163,255.11035 Q759.56226,254.9541,760.23413,254.67285 L760.23413,255.8916 Q759.5779,256.18848,758.93726,256.31348 Q758.29663,256.4541,757.42163,256.4541 Q756.2029,256.4541,755.2654,255.96973 Q754.3279,255.46973,753.81226,254.48535 Q753.281,253.50098,753.281,252.0791 Q753.281,250.67285,753.74976,249.67285 Q754.23413,248.65723,755.0779,248.11035 Q755.93726,247.56348,757.0779,247.56348 ZM757.06226,248.71973 Q756.04663,248.71973,755.4685,249.36035 Q754.8904,250.0166,754.781,251.15723 L759.1404,251.15723 Q759.1404,250.42285,758.92163,249.8916 Q758.68726,249.34473,758.23413,249.03223 Q757.781,248.71973,757.06226,248.71973 ZM765.83624,256.4541 Q764.22687,256.4541,763.27374,255.34473 Q762.305,254.23535,762.305,252.03223 Q762.305,249.81348,763.27374,248.68848 Q764.2425,247.56348,765.85187,247.56348 Q766.52374,247.56348,767.0081,247.71973 Q767.5081,247.8916,767.8675,248.17285 Q768.2425,248.46973,768.5081,248.8291 L768.60187,248.8291 Q768.58624,248.61035,768.555,248.2041 Q768.5081,247.79785,768.5081,247.56348 L768.5081,244.1416 L769.91437,244.1416 L769.91437,256.29785 L768.77374,256.29785 L768.5706,255.1416 L768.5081,255.1416 Q768.2425,255.5166,767.8831,255.81348 Q767.5081,256.11035,767.0081,256.28223 Q766.5081,256.4541,765.83624,256.4541 ZM766.055,255.28223 Q767.41437,255.28223,767.96124,254.54785 Q768.52374,253.79785,768.52374,252.29785 L768.52374,252.04785 Q768.52374,250.43848,767.9925,249.59473 Q767.46124,248.73535,766.03937,248.73535 Q764.89874,248.73535,764.33624,249.62598 Q763.77374,250.53223,763.77374,252.06348 Q763.77374,253.59473,764.33624,254.43848 Q764.89874,255.28223,766.055,255.28223 ZM774.34814,254.61035 Q774.1919,255.17285,773.97314,255.8291 Q773.7544,256.48535,773.4888,257.12598 Q773.22314,257.78223,772.97314,258.36035 L771.9263,258.36035 Q772.0825,257.75098,772.2388,257.06348 Q772.395,256.36035,772.52,255.68848 Q772.645,255.00098,772.72314,254.43848 L774.22314,254.43848 ZM784.3899,247.56348 Q785.49927,247.56348,786.2805,248.03223 Q787.0774,248.5166,787.49927,249.3916 Q787.92114,250.2666,787.92114,251.43848 L787.92114,252.28223 L782.06177,252.28223 Q782.093,253.73535,782.79614,254.48535 Q783.5149,255.25098,784.79614,255.25098 Q785.60864,255.25098,786.23364,255.11035 Q786.87427,254.9541,787.54614,254.67285 L787.54614,255.8916 Q786.8899,256.18848,786.24927,256.31348 Q785.60864,256.4541,784.73364,256.4541 Q783.5149,256.4541,782.5774,255.96973 Q781.6399,255.46973,781.12427,254.48535 Q780.593,253.50098,780.593,252.0791 Q780.593,250.67285,781.06177,249.67285 Q781.54614,248.65723,782.3899,248.11035 Q783.24927,247.56348,784.3899,247.56348 ZM784.37427,248.71973 Q783.35864,248.71973,782.7805,249.36035 Q782.2024,250.0166,782.093,251.15723 L786.4524,251.15723 Q786.4524,250.42285,786.23364,249.8916 Q785.99927,249.34473,785.54614,249.03223 Q785.093,248.71973,784.37427,248.71973 ZM793.14825,256.4541 Q791.5389,256.4541,790.58575,255.34473 Q789.617,254.23535,789.617,252.03223 Q789.617,249.81348,790.58575,248.68848 Q791.5545,247.56348,793.1639,247.56348 Q793.83575,247.56348,794.3201,247.71973 Q794.8201,247.8916,795.1795,248.17285 Q795.5545,248.46973,795.8201,248.8291 L795.9139,248.8291 Q795.89825,248.61035,795.867,248.2041 Q795.8201,247.79785,795.8201,247.56348 L795.8201,244.1416 L797.2264,244.1416 L797.2264,256.29785 L796.08575,256.29785 L795.8826,255.1416 L795.8201,255.1416 Q795.5545,255.5166,795.1951,255.81348 Q794.8201,256.11035,794.3201,256.28223 Q793.8201,256.4541,793.14825,256.4541 ZM793.367,255.28223 Q794.7264,255.28223,795.27325,254.54785 Q795.83575,253.79785,795.83575,252.29785 L795.83575,252.04785 Q795.83575,250.43848,795.3045,249.59473 Q794.77325,248.73535,793.3514,248.73535 Q792.21075,248.73535,791.64825,249.62598 Q791.08575,250.53223,791.08575,252.06348 Q791.08575,253.59473,791.64825,254.43848 Q792.21075,255.28223,793.367,255.28223 ZM802.9883,247.56348 Q803.83203,247.56348,804.5039,247.87598 Q805.1914,248.2041,805.6758,248.86035 L805.7539,248.86035 L805.9414,247.71973 L807.0664,247.71973 L807.0664,256.43848 Q807.0664,257.65723,806.64453,258.48535 Q806.22266,259.31348,805.3789,259.71973 Q804.53516,260.1416,803.22266,260.1416 Q802.3008,260.1416,801.51953,260.00098 Q800.7383,259.86035,800.1289,259.59473 L800.1289,258.29785 Q800.7383,258.61035,801.5508,258.78223 Q802.3789,258.96973,803.3008,258.96973 Q804.41016,258.96973,805.03516,258.3291 Q805.6758,257.67285,805.6758,256.54785 L805.6758,256.21973 Q805.6758,256.03223,805.6914,255.67285 Q805.70703,255.31348,805.72266,255.15723 L805.66016,255.15723 Q805.20703,255.81348,804.5508,256.12598 Q803.8789,256.4541,803.0039,256.4541 Q801.33203,256.4541,800.39453,255.29785 Q799.45703,254.12598,799.45703,252.03223 Q799.45703,249.98535,800.39453,248.78223 Q801.33203,247.56348,802.9883,247.56348 ZM803.1758,248.75098 Q802.45703,248.75098,801.95703,249.12598 Q801.4414,249.5166,801.1914,250.25098 Q800.9258,250.98535,800.9258,252.04785 Q800.9258,253.62598,801.5039,254.46973 Q802.08203,255.31348,803.20703,255.31348 Q803.8633,255.31348,804.3164,255.1416 Q804.78516,254.96973,805.08203,254.61035 Q805.39453,254.25098,805.53516,253.68848 Q805.6914,253.12598,805.6914,252.36035 L805.6914,252.03223 Q805.6914,250.86035,805.4258,250.1416 Q805.16016,249.42285,804.59766,249.09473 Q804.03516,248.75098,803.1758,248.75098 ZM813.09393,247.56348 Q814.2033,247.56348,814.98456,248.03223 Q815.78143,248.5166,816.2033,249.3916 Q816.6252,250.2666,816.6252,251.43848 L816.6252,252.28223 L810.7658,252.28223 Q810.79706,253.73535,811.5002,254.48535 Q812.21893,255.25098,813.5002,255.25098 Q814.3127,255.25098,814.9377,255.11035 Q815.5783,254.9541,816.2502,254.67285 L816.2502,255.8916 Q815.59393,256.18848,814.9533,256.31348 Q814.3127,256.4541,813.4377,256.4541 Q812.21893,256.4541,811.28143,255.96973 Q810.34393,255.46973,809.8283,254.48535 Q809.29706,253.50098,809.29706,252.0791 Q809.29706,250.67285,809.7658,249.67285 Q810.2502,248.65723,811.09393,248.11035 Q811.9533,247.56348,813.09393,247.56348 ZM813.0783,248.71973 Q812.0627,248.71973,811.48456,249.36035 Q810.90643,250.0166,810.79706,251.15723 L815.15643,251.15723 Q815.15643,250.42285,814.9377,249.8916 Q814.7033,249.34473,814.2502,249.03223 Q813.79706,248.71973,813.0783,248.71973 Z" fill="white"/>
</a>
</g>
</g>
<g class="edge" id="edge-3">
<title>Foo -&gt; Qux</title>
<g id="a-edge-3">
<a title="Foo -&gt; Qux" xlink:title="Foo -&gt; Qux">
<path d="M466.18674,98.57231 C428.66583,116.5937,353.62402,134.61508,353.62402,152.63646 C353.62402,176.65538,444.47464,200.67432,489.89996,224.69324" fill="none" stroke="#9803CE" stroke-width="1"/>
<polygon fill="#9803CE" points="489.89996,224.69324 482.7765,216.61511 479.17047,223.75629 489.89996,224.69324" stroke="#9803CE" stroke-width="1"/>
<rect fill="transparent" height="43.239998" stroke="transparent" stroke-width="1" width="93.19999" x="363.624" y="131.01646"/>
<path d="M386.53024,160.39647 L384.8115,155.9746 L379.13962,155.9746 L377.4365,160.39647 L375.624,160.39647 L381.20212,146.05272 L382.82712,146.05272 L388.38962,160.39647 ZM382.67087,150.05272 Q382.60837,149.89647,382.46774,149.4746 Q382.32712,149.05272,382.20212,148.61522 Q382.0615,148.1621,381.98337,147.9121 Q381.88962,148.31834,381.78024,148.7246 Q381.67087,149.13084,381.5615,149.4746 Q381.4365,149.81834,381.35837,150.05272 L379.749,154.38084 L384.26462,154.38084 ZM399.604,160.5996 Q398.18213,160.5996,397.07275,160.02147 Q395.96338,159.44334,395.33838,158.2246 Q394.69775,156.99022,394.69775,155.0996 Q394.69775,153.11522,395.354,151.88084 Q396.02588,150.63084,397.15088,150.05272 Q398.2915,149.4746,399.729,149.4746 Q400.5415,149.4746,401.2915,149.64647 Q402.05713,149.81834,402.5415,150.05272 L402.01025,151.52147 Q401.52588,151.33397,400.88525,151.17772 Q400.24463,151.02147,399.68213,151.02147 Q398.604,151.02147,397.90088,151.4746 Q397.19775,151.94334,396.86963,152.83397 Q396.52588,153.74022,396.52588,155.08397 Q396.52588,156.3496,396.854,157.25584 Q397.19775,158.1621,397.86963,158.61522 Q398.55713,159.08397,399.58838,159.08397 Q400.46338,159.08397,401.13525,158.89647 Q401.80713,158.70897,402.36963,158.45897 L402.36963,160.02147 Q401.82275,160.30272,401.18213,160.44334 Q400.52588,160.5996,399.604,160.5996 ZM403.21964,149.67772 L405.11026,149.67772 L407.42276,155.77147 Q407.6259,156.31834,407.79776,156.81834 Q407.96964,157.31834,408.11026,157.7871 Q408.2509,158.25584,408.329,158.69334 L408.40714,158.69334 Q408.5165,158.19334,408.78214,157.39647 Q409.04776,156.58397,409.329,155.75584 L411.5009,149.67772 L413.40714,149.67772 L408.78214,161.88084 Q408.40714,162.88084,407.90714,163.63084 Q407.3915,164.38084,406.65714,164.7871 Q405.92276,165.19334,404.8915,165.19334 Q404.40714,165.19334,404.04776,165.14647 Q403.6884,165.0996,403.42276,165.0371 L403.42276,163.63084 Q403.6415,163.67772,403.954,163.70897 Q404.2665,163.75584,404.61026,163.75584 Q405.21964,163.75584,405.67276,163.5371 Q406.1259,163.30272,406.4384,162.88084 Q406.7665,162.44334,406.98526,161.8496 L407.54776,160.44334 ZM419.40402,160.5996 Q417.98215,160.5996,416.87277,160.02147 Q415.7634,159.44334,415.1384,158.2246 Q414.49777,156.99022,414.49777,155.0996 Q414.49777,153.11522,415.15402,151.88084 Q415.8259,150.63084,416.9509,150.05272 Q418.09152,149.4746,419.52902,149.4746 Q420.34152,149.4746,421.09152,149.64647 Q421.85715,149.81834,422.34152,150.05272 L421.81027,151.52147 Q421.3259,151.33397,420.68527,151.17772 Q420.04465,151.02147,419.48215,151.02147 Q418.40402,151.02147,417.7009,151.4746 Q416.99777,151.94334,416.66965,152.83397 Q416.3259,153.74022,416.3259,155.08397 Q416.3259,156.3496,416.65402,157.25584 Q416.99777,158.1621,417.66965,158.61522 Q418.35715,159.08397,419.3884,159.08397 Q420.2634,159.08397,420.93527,158.89647 Q421.60715,158.70897,422.16965,158.45897 L422.16965,160.02147 Q421.62277,160.30272,420.98215,160.44334 Q420.3259,160.5996,419.40402,160.5996 ZM426.45715,160.39647 L424.70715,160.39647 L424.70715,145.19334 L426.45715,145.19334 ZM434.00778,149.4746 Q435.38278,149.4746,436.36716,150.06834 Q437.36716,150.67772,437.8984,151.75584 Q438.42966,152.8496,438.42966,154.31834 L438.42966,155.38084 L431.0859,155.38084 Q431.11716,157.19334,432.00778,158.14647 Q432.8984,159.0996,434.50778,159.0996 Q435.5234,159.0996,436.30466,158.9121 Q437.10153,158.70897,437.94528,158.3496 L437.94528,159.89647 Q437.11716,160.25584,436.32028,160.42772 Q435.5234,160.5996,434.42966,160.5996 Q432.8984,160.5996,431.74216,159.9746 Q430.57028,159.3496,429.91403,158.13084 Q429.25778,156.89647,429.25778,155.11522 Q429.25778,153.3496,429.85153,152.0996 Q430.44528,150.83397,431.50778,150.1621 Q432.5859,149.4746,434.00778,149.4746 ZM433.97653,150.9121 Q432.72653,150.9121,431.99216,151.7246 Q431.25778,152.5371,431.11716,153.9746 L436.5859,153.9746 Q436.5859,153.05272,436.30466,152.38084 Q436.0234,151.69334,435.4609,151.30272 Q434.88278,150.9121,433.97653,150.9121 ZM442.70966,156.38084 L441.56903,156.38084 L441.06903,146.11522 L443.20966,146.11522 ZM440.88153,159.31834 Q440.88153,158.58397,441.2409,158.2871 Q441.60028,157.9746,442.13153,157.9746 Q442.63153,157.9746,442.9909,158.27147 Q443.3659,158.58397,443.3659,159.31834 Q443.3659,160.0371,443.00653,160.3496 Q442.63153,160.67772,442.13153,160.67772 Q441.60028,160.67772,441.2409,160.36522 Q440.88153,160.0371,440.88153,159.31834 Z" fill="#9803CEAA"/>
</a>
</g>
</g>
<g class="edge" id="edge-4">
<title>Qux -&gt; Foo</title>
<g id="a-edge-4">
<a title="Qux -&gt; Foo" xlink:title="Qux -&gt; Foo">
<path d="M544.748,224.69324 C590.17334,200.67432,681.02405,176.65538,681.02405,152.63646 C681.02405,134.61507,605.9821,116.59368,568.4612,98.57229" fill="none" stroke="#66DF48" stroke-dasharray="5, 5" stroke-width="1"/>
<rect fill="transparent" height="37.792" stroke="transparent" stroke-dasharray="5, 5" stroke-width="1" width="139.2" x="531.82404" y="133.74046"/>
<path d="M554.4334,158.84447 L552.7459,158.84447 L546.63654,149.36009 L546.57404,149.36009 Q546.6053,149.71947,546.6209,150.21947 Q546.65216,150.73509,546.6678,151.29759 Q546.69904,151.87572,546.69904,152.45384 L546.69904,158.84447 L545.3709,158.84447 L545.3709,147.42259 L547.0428,147.42259 L553.13654,156.87572 L553.19904,156.87572 Q553.1834,156.62572,553.1678,156.11009 Q553.13654,155.59447,553.1209,154.98509 Q553.08966,154.37572,553.08966,153.87572 L553.08966,147.42259 L554.4334,147.42259 ZM564.7965,154.54759 Q564.7965,155.61009,564.51526,156.43822 Q564.234,157.26634,563.7184,157.82884 Q563.20276,158.40697,562.4684,158.70384 Q561.7184,159.00072,560.7965,159.00072 Q559.95276,159.00072,559.234,158.70384 Q558.51526,158.40697,557.984,157.84447 Q557.45276,157.26634,557.1559,156.43822 Q556.859,155.61009,556.859,154.54759 Q556.859,153.11009,557.3434,152.12572 Q557.82776,151.14134,558.7184,150.62572 Q559.609,150.11009,560.8434,150.11009 Q562.01526,150.11009,562.9059,150.62572 Q563.7965,151.14134,564.2965,152.12572 Q564.7965,153.11009,564.7965,154.54759 ZM558.32776,154.54759 Q558.32776,155.54759,558.57776,156.28197 Q558.8434,157.03197,559.4059,157.42259 Q559.9684,157.82884,560.82776,157.82884 Q561.70276,157.82884,562.24963,157.43822 Q562.81213,157.03197,563.07776,156.29759 Q563.3434,155.54759,563.3434,154.54759 Q563.3434,153.51634,563.07776,152.79759 Q562.7965,152.07884,562.24963,151.68822 Q561.70276,151.29759,560.81213,151.29759 Q559.49963,151.29759,558.9215,152.15697 Q558.32776,153.01634,558.32776,154.54759 ZM574.43335,150.12572 Q575.99585,150.12572,576.74585,150.81322 Q577.5115,151.50072,577.5115,153.00072 L577.5115,158.84447 L576.4802,158.84447 L576.2146,157.62572 L576.1365,157.62572 Q575.7771,158.09447,575.3865,158.40697 Q574.99585,158.71947,574.49585,158.86009 Q573.9802,159.00072,573.2615,159.00072 Q572.49585,159.00072,571.8865,158.73509 Q571.2615,158.45384,570.9177,157.89134 Q570.55835,157.32884,570.55835,156.45384 Q570.55835,155.18822,571.55835,154.48509 Q572.574,153.78197,574.6677,153.71947 L576.12085,153.67259 L576.12085,153.15697 Q576.12085,152.09447,575.6677,151.68822 Q575.199,151.26634,574.3552,151.26634 Q573.68335,151.26634,573.074,151.45384 Q572.4646,151.65697,571.93335,151.92259 L571.5115,150.86009 Q572.05835,150.56322,572.824,150.34447 Q573.6052,150.12572,574.43335,150.12572 ZM574.8552,154.70384 Q573.24585,154.76634,572.6365,155.20384 Q572.0115,155.65697,572.0115,156.46947 Q572.0115,157.20384,572.449,157.53197 Q572.9021,157.87572,573.5896,157.87572 Q574.6677,157.87572,575.3865,157.28197 Q576.1052,156.67259,576.1052,155.42259 L576.1052,154.65697 ZM584.15936,150.11009 Q584.39374,150.11009,584.675,150.12572 Q584.95624,150.15697,585.175,150.20384 L584.9875,151.50072 Q584.78436,151.45384,584.53436,151.42259 Q584.28436,151.39134,584.0656,151.39134 Q583.5656,151.39134,583.1281,151.59447 Q582.675,151.79759,582.33124,152.17259 Q581.97186,152.56322,581.76874,153.07884 Q581.5656,153.61009,581.5656,154.26634 L581.5656,158.84447 L580.15936,158.84447 L580.15936,150.26634 L581.3156,150.26634 L581.47186,151.82884 L581.53436,151.82884 Q581.8156,151.36009,582.1906,150.96947 Q582.58124,150.57884,583.0656,150.34447 Q583.5656,150.11009,584.15936,150.11009 ZM590.76733,150.11009 Q591.0017,150.11009,591.28296,150.12572 Q591.5642,150.15697,591.78296,150.20384 L591.59546,151.50072 Q591.39233,151.45384,591.14233,151.42259 Q590.89233,151.39134,590.6736,151.39134 Q590.1736,151.39134,589.7361,151.59447 Q589.28296,151.79759,588.9392,152.17259 Q588.57983,152.56322,588.3767,153.07884 Q588.1736,153.61009,588.1736,154.26634 L588.1736,158.84447 L586.76733,158.84447 L586.76733,150.26634 L587.9236,150.26634 L588.07983,151.82884 L588.14233,151.82884 Q588.4236,151.36009,588.7986,150.96947 Q589.1892,150.57884,589.6736,150.34447 Q590.1736,150.11009,590.76733,150.11009 ZM600.5085,154.54759 Q600.5085,155.61009,600.22723,156.43822 Q599.946,157.26634,599.43036,157.82884 Q598.91473,158.40697,598.18036,158.70384 Q597.43036,159.00072,596.5085,159.00072 Q595.66473,159.00072,594.946,158.70384 Q594.22723,158.40697,593.696,157.84447 Q593.16473,157.26634,592.86786,156.43822 Q592.571,155.61009,592.571,154.54759 Q592.571,153.11009,593.05536,152.12572 Q593.53973,151.14134,594.43036,150.62572 Q595.321,150.11009,596.55536,150.11009 Q597.72723,150.11009,598.61786,150.62572 Q599.5085,151.14134,600.0085,152.12572 Q600.5085,153.11009,600.5085,154.54759 ZM594.03973,154.54759 Q594.03973,155.54759,594.28973,156.28197 Q594.55536,157.03197,595.11786,157.42259 Q595.68036,157.82884,596.53973,157.82884 Q597.41473,157.82884,597.9616,157.43822 Q598.5241,157.03197,598.78973,156.29759 Q599.05536,155.54759,599.05536,154.54759 Q599.05536,153.51634,598.78973,152.79759 Q598.5085,152.07884,597.9616,151.68822 Q597.41473,151.29759,596.5241,151.29759 Q595.2116,151.29759,594.6335,152.15697 Q594.03973,153.01634,594.03973,154.54759 ZM607.9466,154.00072 Q607.85284,153.65697,607.7591,153.32884 Q607.66534,153.00072,607.60284,152.70384 Q607.5247,152.40697,607.4622,152.15697 Q607.3997,151.90697,607.35284,151.71947 L607.29034,151.71947 Q607.2591,151.90697,607.2122,152.15697 Q607.1497,152.40697,607.0872,152.70384 Q607.0091,153.01634,606.93097,153.34447 Q606.8372,153.67259,606.7122,154.01634 L605.18097,158.82884 L603.5872,158.82884 L601.22784,150.25072 L602.68097,150.25072 L603.86847,154.82884 Q603.99347,155.29759,604.10284,155.76634 Q604.22784,156.23509,604.30597,156.65697 Q604.3997,157.07884,604.43097,157.39134 L604.49347,157.39134 Q604.54034,157.20384,604.60284,156.92259 Q604.66534,156.62572,604.74347,156.31322 Q604.8216,155.98509,604.8997,155.67259 Q604.99347,155.34447,605.0716,155.07884 L606.5872,150.25072 L608.1341,150.25072 L609.60284,155.07884 Q609.7122,155.45384,609.8216,155.86009 Q609.9466,156.28197,610.04034,156.67259 Q610.1497,157.06322,610.18097,157.37572 L610.24347,157.37572 Q610.2747,157.09447,610.35284,156.68822 Q610.4466,156.28197,610.55597,155.79759 Q610.68097,155.31322,610.8216,154.82884 L612.0091,150.25072 L613.4622,150.25072 L611.0716,158.82884 L609.43097,158.82884 ZM616.3976,150.25072 Q616.3976,150.56322,616.38196,150.87572 Q616.3507,151.20384,616.31946,151.45384 L616.4132,151.45384 Q616.69446,151.00072,617.1007,150.71947 Q617.5226,150.42259,618.0226,150.28197 Q618.5382,150.12572,619.0851,150.12572 Q620.13196,150.12572,620.81946,150.45384 Q621.5226,150.78197,621.86633,151.46947 Q622.2257,152.15697,622.2257,153.26634 L622.2257,158.84447 L620.8351,158.84447 L620.8351,153.36009 Q620.8351,152.31322,620.36633,151.81322 Q619.8976,151.29759,618.9132,151.29759 Q617.94446,151.29759,617.4132,151.65697 Q616.86633,152.01634,616.63196,152.70384 Q616.3976,153.40697,616.3976,154.40697 L616.3976,158.84447 L614.99133,158.84447 L614.99133,146.68822 L616.3976,146.68822 ZM628.19183,150.11009 Q629.3012,150.11009,630.08246,150.57884 Q630.87933,151.06322,631.3012,151.93822 Q631.7231,152.81322,631.7231,153.98509 L631.7231,154.82884 L625.8637,154.82884 Q625.89496,156.28197,626.5981,157.03197 Q627.31683,157.79759,628.5981,157.79759 Q629.4106,157.79759,630.0356,157.65697 Q630.6762,157.50072,631.3481,157.21947 L631.3481,158.43822 Q630.69183,158.73509,630.0512,158.86009 Q629.4106,159.00072,628.5356,159.00072 Q627.31683,159.00072,626.37933,158.51634 Q625.44183,158.01634,624.9262,157.03197 Q624.39496,156.04759,624.39496,154.62572 Q624.39496,153.21947,624.8637,152.21947 Q625.3481,151.20384,626.19183,150.65697 Q627.0512,150.11009,628.19183,150.11009 ZM628.1762,151.26634 Q627.1606,151.26634,626.58246,151.90697 Q626.00433,152.56322,625.89496,153.70384 L630.25433,153.70384 Q630.25433,152.96947,630.0356,152.43822 Q629.8012,151.89134,629.3481,151.57884 Q628.89496,151.26634,628.1762,151.26634 ZM637.1533,150.12572 Q638.7158,150.12572,639.4658,150.81322 Q640.23145,151.50072,640.23145,153.00072 L640.23145,158.84447 L639.2002,158.84447 L638.9346,157.62572 L638.85645,157.62572 Q638.4971,158.09447,638.10645,158.40697 Q637.7158,158.71947,637.2158,158.86009 Q636.7002,159.00072,635.98145,159.00072 Q635.2158,159.00072,634.60645,158.73509 Q633.98145,158.45384,633.6377,157.89134 Q633.2783,157.32884,633.2783,156.45384 Q633.2783,155.18822,634.2783,154.48509 Q635.29395,153.78197,637.3877,153.71947 L638.8408,153.67259 L638.8408,153.15697 Q638.8408,152.09447,638.3877,151.68822 Q637.91895,151.26634,637.0752,151.26634 Q636.4033,151.26634,635.79395,151.45384 Q635.1846,151.65697,634.6533,151.92259 L634.23145,150.86009 Q634.7783,150.56322,635.54395,150.34447 Q636.3252,150.12572,637.1533,150.12572 ZM637.5752,154.70384 Q635.9658,154.76634,635.35645,155.20384 Q634.73145,155.65697,634.73145,156.46947 Q634.73145,157.20384,635.16895,157.53197 Q635.6221,157.87572,636.3096,157.87572 Q637.3877,157.87572,638.10645,157.28197 Q638.8252,156.67259,638.8252,155.42259 L638.8252,154.65697 ZM645.9262,159.00072 Q644.31683,159.00072,643.3637,157.89134 Q642.39496,156.78197,642.39496,154.57884 Q642.39496,152.36009,643.3637,151.23509 Q644.33246,150.11009,645.94183,150.11009 Q646.6137,150.11009,647.0981,150.26634 Q647.5981,150.43822,647.95746,150.71947 Q648.33246,151.01634,648.5981,151.37572 L648.69183,151.37572 Q648.6762,151.15697,648.64496,150.75072 Q648.5981,150.34447,648.5981,150.11009 L648.5981,146.68822 L650.00433,146.68822 L650.00433,158.84447 L648.8637,158.84447 L648.6606,157.68822 L648.5981,157.68822 Q648.33246,158.06322,647.9731,158.36009 Q647.5981,158.65697,647.0981,158.82884 Q646.5981,159.00072,645.9262,159.00072 ZM646.14496,157.82884 Q647.50433,157.82884,648.0512,157.09447 Q648.6137,156.34447,648.6137,154.84447 L648.6137,154.59447 Q648.6137,152.98509,648.08246,152.14134 Q647.5512,151.28197,646.12933,151.28197 Q644.9887,151.28197,644.4262,152.17259 Q643.8637,153.07884,643.8637,154.61009 Q643.8637,156.14134,644.4262,156.98509 Q644.9887,157.82884,646.14496,157.82884 ZM658.2975,156.46947 Q658.2975,157.31322,657.89124,157.86009 Q657.46936,158.42259,656.70374,158.70384 Q655.9381,159.00072,654.8756,159.00072 Q653.985,159.00072,653.34436,158.86009 Q652.6881,158.71947,652.1881,158.45384 L652.1881,157.18822 Q652.70374,157.43822,653.4225,157.65697 Q654.15686,157.87572,654.90686,157.87572 Q655.985,157.87572,656.45374,157.53197 Q656.9381,157.18822,656.9381,156.61009 Q656.9381,156.28197,656.76624,156.03197 Q656.59436,155.76634,656.14124,155.51634 Q655.6725,155.26634,654.82874,154.93822 Q654.0006,154.62572,653.40686,154.31322 Q652.8131,153.98509,652.5006,153.53197 Q652.1725,153.07884,652.1725,152.37572 Q652.1725,151.29759,653.0631,150.70384 Q653.95374,150.11009,655.39124,150.11009 Q656.1725,150.11009,656.84436,150.25072 Q657.53186,150.40697,658.1256,150.68822 L657.64124,151.79759 Q657.11,151.57884,656.51624,151.42259 Q655.9225,151.26634,655.2975,151.26634 Q654.4381,151.26634,653.985,151.53197 Q653.51624,151.81322,653.51624,152.29759 Q653.51624,152.65697,653.71936,152.89134 Q653.9381,153.14134,654.4225,153.37572 Q654.90686,153.61009,655.735,153.93822 Q656.5475,154.23509,657.1256,154.54759 Q657.70374,154.87572,658.0006,155.32884 Q658.2975,155.78197,658.2975,156.46947 Z" fill="#66DF48"/>
</a>
</g>
</g>
<g class="node" id="node-0">
<title>Foo</title>
<g id="a-node-0">
<a title="Foo" xlink:title="Foo">
<polygon fill="#FF2F8EAA" points="517.324,10, 461.88885,106.01646, 572.7591,106.01646" stroke="#FF2F8E" stroke-dasharray="5, 5" stroke-width="1"/>
<path d="M506.47635,80.21897 L505.03885,80.21897 L505.03885,68.7971 L511.42947,68.7971 L511.42947,70.06272 L506.47635,70.06272 L506.47635,74.1096 L511.11697,74.1096 L511.11697,75.37522 L506.47635,75.37522 ZM520.60846,75.9221 Q520.60846,76.9846,520.3272,77.81272 Q520.04596,78.64085,519.53033,79.20335 Q519.0147,79.78147,518.28033,80.07835 Q517.53033,80.37522,516.60846,80.37522 Q515.7647,80.37522,515.04596,80.07835 Q514.3272,79.78147,513.79596,79.21897 Q513.2647,78.64085,512.96783,77.81272 Q512.67096,76.9846,512.67096,75.9221 Q512.67096,74.4846,513.15533,73.50022 Q513.6397,72.51585,514.53033,72.00022 Q515.42096,71.4846,516.65533,71.4846 Q517.8272,71.4846,518.71783,72.00022 Q519.60846,72.51585,520.10846,73.50022 Q520.60846,74.4846,520.60846,75.9221 ZM514.1397,75.9221 Q514.1397,76.9221,514.3897,77.65647 Q514.65533,78.40647,515.21783,78.7971 Q515.78033,79.20335,516.6397,79.20335 Q517.5147,79.20335,518.0616,78.81272 Q518.6241,78.40647,518.8897,77.6721 Q519.15533,76.9221,519.15533,75.9221 Q519.15533,74.89085,518.8897,74.1721 Q518.60846,73.45335,518.0616,73.06272 Q517.5147,72.6721,516.6241,72.6721 Q515.3116,72.6721,514.73346,73.53147 Q514.1397,74.39085,514.1397,75.9221 ZM530.28845,75.9221 Q530.28845,76.9846,530.0072,77.81272 Q529.72595,78.64085,529.2103,79.20335 Q528.6947,79.78147,527.9603,80.07835 Q527.2103,80.37522,526.28845,80.37522 Q525.4447,80.37522,524.72595,80.07835 Q524.0072,79.78147,523.47595,79.21897 Q522.9447,78.64085,522.6478,77.81272 Q522.35095,76.9846,522.35095,75.9221 Q522.35095,74.4846,522.8353,73.50022 Q523.3197,72.51585,524.2103,72.00022 Q525.10095,71.4846,526.3353,71.4846 Q527.5072,71.4846,528.3978,72.00022 Q529.28845,72.51585,529.78845,73.50022 Q530.28845,74.4846,530.28845,75.9221 ZM523.8197,75.9221 Q523.8197,76.9221,524.0697,77.65647 Q524.3353,78.40647,524.8978,78.7971 Q525.4603,79.20335,526.3197,79.20335 Q527.1947,79.20335,527.7416,78.81272 Q528.3041,78.40647,528.5697,77.6721 Q528.8353,76.9221,528.8353,75.9221 Q528.8353,74.89085,528.5697,74.1721 Q528.28845,73.45335,527.7416,73.06272 Q527.1947,72.6721,526.3041,72.6721 Q524.9916,72.6721,524.41345,73.53147 Q523.8197,74.39085,523.8197,75.9221 Z" fill="black"/>
</a>
</g>
</g>
<g class="node" id="node-1">
<title>Bar</title>
<g id="a-node-1">
<a title="Bar" xlink:title="Bar">
<polygon fill="#FF9E4CAA" name="diamond" points="96.20799,199.25645 56.2706,239.19385 96.20799,279.13123 136.14539,239.19385" stroke="#FF9E4C" stroke-width="2"/>
<path d="M85.98361,232.6726 Q88.67111,232.6726,90.03049,233.45386 Q91.40549,234.25073,91.40549,236.21948 Q91.40549,237.0476,91.09299,237.70386 Q90.78049,238.3601,90.17111,238.78198 Q89.56174,239.21948,88.68674,239.37573 L88.68674,239.46948 Q89.59299,239.6101,90.31174,239.9851 Q91.04611,240.37573,91.46799,241.06323 Q91.88986,241.76636,91.88986,242.89136 Q91.88986,244.18823,91.29611,245.09448 Q90.68674,246.01636,89.57736,246.4851 Q88.46799,246.95386,86.92111,246.95386 L81.90549,246.95386 L81.90549,232.6726 ZM86.34299,238.75073 Q88.18674,238.75073,88.85861,238.1726 Q89.54611,237.57886,89.54611,236.40698 Q89.54611,235.2351,88.71799,234.7351 Q87.88986,234.21948,86.06174,234.21948 L83.70236,234.21948 L83.70236,238.75073 ZM83.70236,240.25073 L83.70236,245.43823 L86.59299,245.43823 Q88.48361,245.43823,89.21799,244.70386 Q89.96799,243.95386,89.96799,242.75073 Q89.96799,242.00073,89.63986,241.43823 Q89.31174,240.87573,88.54611,240.56323 Q87.76486,240.25073,86.45236,240.25073 ZM98.73361,236.0476 Q100.68674,236.0476,101.62424,236.90698 Q102.56174,237.76636,102.56174,239.65698 L102.56174,246.95386 L101.28049,246.95386 L100.95236,245.43823 L100.87424,245.43823 Q100.40549,246.01636,99.92111,246.40698 Q99.42111,246.7976,98.79611,246.96948 Q98.17111,247.15698,97.26486,247.15698 Q96.31174,247.15698,95.54611,246.81323 Q94.76486,246.46948,94.32736,245.76636 Q93.88986,245.0476,93.88986,243.96948 Q93.88986,242.37573,95.13986,241.51636 Q96.40549,240.64136,99.03049,240.5476 L100.84299,240.50073 L100.84299,239.8601 Q100.84299,238.51636,100.26486,238.00073 Q99.68674,237.46948,98.62424,237.46948 Q97.78049,237.46948,97.03049,237.71948 Q96.26486,237.96948,95.60861,238.2976 L95.06174,236.96948 Q95.76486,236.59448,96.71799,236.32886 Q97.68674,236.0476,98.73361,236.0476 ZM99.24924,241.76636 Q97.24924,241.8601,96.48361,242.40698 Q95.70236,242.96948,95.70236,244.00073 Q95.70236,244.89136,96.24924,245.31323 Q96.81174,245.7351,97.67111,245.7351 Q99.03049,245.7351,99.92111,244.9851 Q100.82736,244.2351,100.82736,242.6726 L100.82736,241.71948 ZM110.89111,236.03198 Q111.18799,236.03198,111.53174,236.06323 Q111.89111,236.09448,112.14111,236.15698 L111.92236,237.76636 Q111.67236,237.71948,111.35986,237.68823 Q111.04736,237.64136,110.76611,237.64136 Q110.14111,237.64136,109.59424,237.89136 Q109.03174,238.15698,108.59424,238.62573 Q108.14111,239.09448,107.89111,239.75073 Q107.64111,240.40698,107.64111,241.2351 L107.64111,246.95386 L105.89111,246.95386 L105.89111,236.2351 L107.32861,236.2351 L107.53174,238.18823 L107.60986,238.18823 Q107.95361,237.59448,108.42236,237.1101 Q108.90674,236.6101,109.51611,236.32886 Q110.14111,236.03198,110.89111,236.03198 Z" fill="black"/>
</a>
</g>
</g>
<g class="node" id="node-2">
<title>Baz</title>
<g id="a-node-2">
<a title="Baz" xlink:title="Baz">
<circle cx="474.546" cy="402.9432" fill="#FFD600AA" r="36.02" stroke="#FFD600" stroke-width="2"/>
<path d="M463.75162,396.42197 Q466.43912,396.42197,467.7985,397.20322 Q469.1735,398.0001,469.1735,399.96884 Q469.1735,400.79697,468.861,401.45322 Q468.5485,402.10947,467.93912,402.53134 Q467.32974,402.96884,466.45474,403.1251 L466.45474,403.21884 Q467.361,403.35947,468.07974,403.73447 Q468.81412,404.1251,469.236,404.8126 Q469.65787,405.51572,469.65787,406.64072 Q469.65787,407.9376,469.06412,408.84384 Q468.45474,409.76572,467.34537,410.23447 Q466.236,410.70322,464.68912,410.70322 L459.6735,410.70322 L459.6735,396.42197 ZM464.111,402.5001 Q465.95474,402.5001,466.62662,401.92197 Q467.31412,401.32822,467.31412,400.15634 Q467.31412,398.98447,466.486,398.48447 Q465.65787,397.96884,463.82974,397.96884 L461.47037,397.96884 L461.47037,402.5001 ZM461.47037,404.0001 L461.47037,409.1876 L464.361,409.1876 Q466.25162,409.1876,466.986,408.45322 Q467.736,407.70322,467.736,406.5001 Q467.736,405.7501,467.40787,405.1876 Q467.07974,404.6251,466.31412,404.3126 Q465.53287,404.0001,464.22037,404.0001 ZM476.50162,399.79697 Q478.45474,399.79697,479.39224,400.65634 Q480.32974,401.51572,480.32974,403.40634 L480.32974,410.70322 L479.0485,410.70322 L478.72037,409.1876 L478.64224,409.1876 Q478.1735,409.76572,477.68912,410.15634 Q477.18912,410.54697,476.56412,410.71884 Q475.93912,410.90634,475.03287,410.90634 Q474.07974,410.90634,473.31412,410.5626 Q472.53287,410.21884,472.09537,409.51572 Q471.65787,408.79697,471.65787,407.71884 Q471.65787,406.1251,472.90787,405.26572 Q474.1735,404.39072,476.7985,404.29697 L478.611,404.2501 L478.611,403.60947 Q478.611,402.26572,478.03287,401.7501 Q477.45474,401.21884,476.39224,401.21884 Q475.5485,401.21884,474.7985,401.46884 Q474.03287,401.71884,473.37662,402.04697 L472.82974,400.71884 Q473.53287,400.34384,474.486,400.07822 Q475.45474,399.79697,476.50162,399.79697 ZM477.01724,405.51572 Q475.01724,405.60947,474.25162,406.15634 Q473.47037,406.71884,473.47037,407.7501 Q473.47037,408.64072,474.01724,409.0626 Q474.57974,409.48447,475.43912,409.48447 Q476.7985,409.48447,477.68912,408.73447 Q478.59537,407.98447,478.59537,406.42197 L478.59537,405.46884 ZM490.581,410.70322 L482.73724,410.70322 L482.73724,409.54697 L488.50287,401.34384 L483.081,401.34384 L483.081,399.98447 L490.44037,399.98447 L490.44037,401.29697 L484.75287,409.34384 L490.581,409.34384 Z" fill="black"/>
</a>
</g>
</g>
<g class="node" id="node-3">
<title>Qux</title>
<g id="a-node-3">
<a title="Qux" xlink:title="Qux">
<rect fill="#66DF48AA" height="54.848003" stroke="#66DF48" stroke-width="1" width="54.848003" x="489.89996" y="211.76985"/>
<path d="M513.4156,239.66748 Q513.4156,241.0581,513.0406,242.19873 Q512.6656,243.33936,511.9312,244.1206 Q511.19684,244.90186,510.08746,245.27686 L512.82184,248.1206 L510.75934,248.1206 L508.5562,245.54248 Q508.46246,245.54248,508.3687,245.54248 Q508.25934,245.5581,508.14996,245.5581 Q506.8062,245.5581,505.82184,245.13623 Q504.82184,244.71436,504.1656,243.94873 Q503.50934,243.16748,503.19684,242.07373 Q502.8687,240.97998,502.8687,239.65186 Q502.8687,237.90186,503.44684,236.58936 Q504.02496,235.27686,505.19684,234.54248 Q506.38434,233.8081,508.1656,233.8081 Q509.88434,233.8081,511.0406,234.52686 Q512.21246,235.26123,512.8062,236.57373 Q513.4156,237.90186,513.4156,239.66748 ZM504.39996,239.66748 Q504.39996,241.1206,504.7906,242.15186 Q505.19684,243.19873,506.02496,243.7456 Q506.8687,244.3081,508.14996,244.3081 Q509.44684,244.3081,510.27496,243.76123 Q511.1031,243.19873,511.4937,242.16748 Q511.89996,241.1206,511.89996,239.66748 Q511.89996,237.51123,511.00934,236.29248 Q510.1031,235.0581,508.1656,235.0581 Q506.8687,235.0581,506.0406,235.60498 Q505.19684,236.16748,504.8062,237.19873 Q504.39996,238.22998,504.39996,239.66748 ZM522.9272,236.82373 L522.9272,245.40186 L521.77094,245.40186 L521.5678,244.26123 L521.5053,244.26123 Q521.22406,244.71436,520.8022,244.9956 Q520.3647,245.29248,519.84906,245.41748 Q519.33344,245.5581,518.78656,245.5581 Q517.7553,245.5581,517.0678,245.22998 Q516.3647,244.90186,516.02094,244.21436 Q515.66156,243.52686,515.66156,242.44873 L515.66156,236.82373 L517.08344,236.82373 L517.08344,242.33936 Q517.08344,243.3706,517.53656,243.8706 Q518.0053,244.38623,518.9897,244.38623 Q519.9428,244.38623,520.4897,244.02686 Q521.0522,243.66748,521.28656,242.97998 Q521.52094,242.27686,521.52094,241.29248 L521.52094,236.82373 ZM527.67456,241.01123 L524.72144,236.82373 L526.3152,236.82373 L528.5183,240.0581 L530.72144,236.82373 L532.29956,236.82373 L529.34644,241.01123 L532.4558,245.40186 L530.86206,245.40186 L528.5183,241.97998 L526.15894,245.40186 L524.5652,245.40186 Z" fill="black"/>
</a>
</g>
</g>
</svg>