<svg height="184.37599" viewBox="0 0 102.80801 184.37599" width="102.80801" xmlns="http://www.w3.org/2000/svg" xmlns:ev="http://www.w3.org/2001/xml-events" xmlns:xlink="http://www.w3.org/1999/xlink">
<g class="graph" id="graph-0">
<g id="a-graph-0">
<a>
<rect fill="transparent" height="184.37599" stroke="transparent" width="102.80801" x="0" y="0"/>
</a>
</g>
</g>
<defs>
<filter height="300%" id="red-glow" width="300%" x="-100%" y="-100%">
<feFlood flood-color="red" flood-opacity="0.5" in="SourceGraphic"/>
<feComposite in2="SourceGraphic" operator="in"/>
<feGaussianBlur stdDeviation="5"/>
<feComponentTransfer result="glow1">
<feFuncA intercept="0" slope="4" type="linear"/>
</feComponentTransfer>
<feMerge>
<feMergeNode in="glow1"/>
<feMergeNode in="SourceGraphic"/>
</feMerge>
</filter>
<filter height="300%" id="green-glow" width="300%" x="-100%" y="-100%">
<feFlood flood-color="green" flood-opacity="0.5" in="SourceGraphic"/>
<feComposite in2="SourceGraphic" operator="in"/>
<feGaussianBlur stdDeviation="5"/>
<feComponentTransfer result="glow1">
<feFuncA intercept="0" slope="4" type="linear"/>
</feComponentTransfer>
<feMerge>
<feMergeNode in="glow1"/>
<feMergeNode in="SourceGraphic"/>
</feMerge>
</filter>
<filter height="300%" id="orange-glow" width="300%" x="-100%" y="-100%">
<feFlood flood-color="orange" flood-opacity="0.5" in="SourceGraphic"/>
<feComposite in2="SourceGraphic" operator="in"/>
<feGaussianBlur stdDeviation="5"/>
<feComponentTransfer result="glow1">
<feFuncA intercept="0" slope="4" type="linear"/>
</feComponentTransfer>
<feMerge>
<feMergeNode in="glow1"/>
<feMergeNode in="SourceGraphic"/>
</feMerge>
</filter>
</defs>
<g class="edge" id="edge-0">
<title>Hello -&gt; World!</title>
<g id="a-edge-0">
<a title="Hello -&gt; World!" xlink:title="Hello -&gt; World!">
<path d="M50.904003,47.792 C50.904003,62.424,50.904003,77.056,50.904003,91.688 C50.904003,106.32,50.904003,120.952,50.904003,135.584" fill="none" stroke="black" stroke-width="1"/>
<polygon fill="black" points="50.904003,135.584 54.904003,125.584 46.904003,125.584 50.904003,135.584" stroke="black" stroke-width="1"/>
<rect fill="transparent" height="37.792" stroke="transparent" stroke-width="1" width="81.80801" x="10" y="72.79201"/>
<path d="M24.984375,97.89601 L23.546875,97.89601 L23.546875,86.47414 L29.9375,86.47414 L29.9375,87.73976 L24.984375,87.73976 L24.984375,91.78664 L29.625,91.78664 L29.625,93.05226 L24.984375,93.05226 ZM39.1165,93.59914 Q39.1165,94.66164,38.83525,95.48976 Q38.554,96.31789,38.038376,96.89601 Q37.52275,97.45851,36.77275,97.75539 Q36.038376,98.05226,35.1165,98.05226 Q34.27275,98.05226,33.554,97.75539 Q32.83525,97.45851,32.304,96.89601 Q31.77275,96.31789,31.475876,95.48976 Q31.179,94.66164,31.179,93.59914 Q31.179,92.16164,31.663376,91.17726 Q32.14775,90.19289,33.038376,89.67726 Q33.929,89.16164,35.163376,89.16164 Q36.33525,89.16164,37.225876,89.67726 Q38.1165,90.19289,38.6165,91.17726 Q39.1165,92.16164,39.1165,93.59914 ZM32.64775,93.59914 Q32.64775,94.59914,32.89775,95.34914 Q33.163376,96.08351,33.725876,96.48976 Q34.288376,96.88039,35.14775,96.88039 Q36.02275,96.88039,36.569626,96.48976 Q37.132126,96.08351,37.39775,95.34914 Q37.663376,94.59914,37.663376,93.59914 Q37.663376,92.56789,37.382126,91.84914 Q37.1165,91.13039,36.569626,90.73976 Q36.02275,90.34914,35.132126,90.34914 Q33.819626,90.34914,33.225876,91.20851 Q32.64775,92.06789,32.64775,93.59914 ZM48.7965,93.59914 Q48.7965,94.66164,48.51525,95.48976 Q48.234,96.31789,47.718376,96.89601 Q47.20275,97.45851,46.45275,97.75539 Q45.718376,98.05226,44.7965,98.05226 Q43.95275,98.05226,43.234,97.75539 Q42.51525,97.45851,41.984,96.89601 Q41.45275,96.31789,41.155876,95.48976 Q40.859,94.66164,40.859,93.59914 Q40.859,92.16164,41.343376,91.17726 Q41.82775,90.19289,42.718376,89.67726 Q43.609,89.16164,44.843376,89.16164 Q46.01525,89.16164,46.905876,89.67726 Q47.7965,90.19289,48.2965,91.17726 Q48.7965,92.16164,48.7965,93.59914 ZM42.32775,93.59914 Q42.32775,94.59914,42.57775,95.34914 Q42.843376,96.08351,43.405876,96.48976 Q43.968376,96.88039,44.82775,96.88039 Q45.70275,96.88039,46.249626,96.48976 Q46.812126,96.08351,47.07775,95.34914 Q47.343376,94.59914,47.343376,93.59914 Q47.343376,92.56789,47.062126,91.84914 Q46.7965,91.13039,46.249626,90.73976 Q45.70275,90.34914,44.812126,90.34914 Q43.499626,90.34914,42.905876,91.20851 Q42.32775,92.06789,42.32775,93.59914 ZM58.6365,86.47414 Q60.777126,86.47414,61.870876,87.11476 Q62.98025,87.73976,62.98025,89.30226 Q62.98025,89.97414,62.73025,90.50539 Q62.48025,91.02101,61.995876,91.36476 Q61.5115,91.70851,60.79275,91.83351 L60.79275,91.91164 Q61.527126,92.02101,62.10525,92.33351 Q62.683376,92.63039,63.0115,93.19289 Q63.35525,93.75539,63.35525,94.64601 Q63.35525,95.69289,62.870876,96.42726 Q62.402126,97.14601,61.5115,97.52101 Q60.620876,97.89601,59.3865,97.89601 L55.370876,97.89601 L55.370876,86.47414 ZM58.933376,91.33351 Q60.402126,91.33351,60.933376,90.86476 Q61.48025,90.39601,61.48025,89.45851 Q61.48025,88.52101,60.824,88.11476 Q60.16775,87.70851,58.699,87.70851 L56.808376,87.70851 L56.808376,91.33351 ZM56.808376,92.53664 L56.808376,96.67726 L59.120876,96.67726 Q60.6365,96.67726,61.23025,96.08351 Q61.824,95.48976,61.824,94.53664 Q61.824,93.92726,61.558376,93.48976 Q61.29275,93.03664,60.66775,92.78664 Q60.058376,92.53664,59.0115,92.53664 ZM68.833374,89.17726 Q70.395874,89.17726,71.145874,89.86476 Q71.9115,90.55226,71.9115,92.05226 L71.9115,97.89601 L70.88025,97.89601 L70.614624,96.67726 L70.5365,96.67726 Q70.177124,97.14601,69.7865,97.45851 Q69.395874,97.77101,68.88025,97.91164 Q68.38025,98.05226,67.6615,98.05226 Q66.895874,98.05226,66.270874,97.78664 Q65.6615,97.50539,65.302124,96.94289 Q64.958374,96.38039,64.958374,95.50539 Q64.958374,94.23976,65.958374,93.53664 Q66.974,92.83351,69.06775,92.77101 L70.520874,92.72414 L70.520874,92.20851 Q70.520874,91.14601,70.052124,90.73976 Q69.599,90.31789,68.75525,90.31789 Q68.083374,90.31789,67.474,90.52101 Q66.864624,90.70851,66.333374,90.97414 L65.9115,89.91164 Q66.458374,89.61476,67.224,89.39601 Q68.00525,89.17726,68.833374,89.17726 ZM69.25525,93.75539 Q67.645874,93.81789,67.020874,94.27101 Q66.4115,94.70851,66.4115,95.52101 Q66.4115,96.25539,66.849,96.59914 Q67.302124,96.92726,67.989624,96.92726 Q69.06775,96.92726,69.7865,96.33351 Q70.50525,95.72414,70.50525,94.47414 L70.50525,93.70851 ZM78.55937,89.16164 Q78.79375,89.16164,79.075,89.19289 Q79.35625,89.20851,79.575,89.25539 L79.3875,90.55226 Q79.18437,90.50539,78.93437,90.47414 Q78.68437,90.44289,78.46562,90.44289 Q77.96562,90.44289,77.5125,90.64601 Q77.075,90.84914,76.71562,91.23976 Q76.37187,91.61476,76.16875,92.14601 Q75.96562,92.66164,75.96562,93.31789 L75.96562,97.89601 L74.55937,97.89601 L74.55937,89.31789 L75.71562,89.31789 L75.87187,90.88039 L75.93437,90.88039 Q76.21562,90.41164,76.59062,90.02101 Q76.98125,89.63039,77.46562,89.39601 Q77.96562,89.16164,78.55937,89.16164 Z" fill="black"/>
</a>
</g>
</g>
<g class="node" id="node-0">
<title>Hello</title>
<g id="a-node-0">
<a title="Hello" xlink:title="Hello">
<rect fill="white" height="37.792" stroke="black" stroke-width="1" width="62.816" x="19.496002" y="10"/>
<path d="M41.777252,35.104 L40.339752,35.104 L40.339752,29.775875 L34.480377,29.775875 L34.480377,35.104 L33.042877,35.104 L33.042877,23.682125 L34.480377,23.682125 L34.480377,28.51025 L40.339752,28.51025 L40.339752,23.682125 L41.777252,23.682125 ZM48.02388,26.369625 Q49.133255,26.369625,49.914505,26.854 Q50.71138,27.32275,51.133255,28.19775 Q51.55513,29.07275,51.55513,30.244625 L51.55513,31.088375 L45.695755,31.088375 Q45.727005,32.5415,46.43013,33.307125 Q47.14888,34.057125,48.43013,34.057125 Q49.24263,34.057125,49.86763,33.9165 Q50.508255,33.76025,51.18013,33.479 L51.18013,34.69775 Q50.52388,34.994625,49.883255,35.119625 Q49.24263,35.26025,48.36763,35.26025 Q47.14888,35.26025,46.21138,34.775875 Q45.27388,34.275875,44.74263,33.2915 Q44.227005,32.307125,44.227005,30.88525 Q44.227005,29.479,44.695755,28.479 Q45.18013,27.463375,46.02388,26.9165 Q46.883255,26.369625,48.02388,26.369625 ZM48.008255,27.525875 Q46.99263,27.525875,46.414505,28.182125 Q45.83638,28.82275,45.727005,29.963375 L50.08638,29.963375 Q50.08638,29.229,49.852005,28.69775 Q49.633255,28.150875,49.18013,27.838375 Q48.727005,27.525875,48.008255,27.525875 ZM55.141632,35.104 L53.735382,35.104 L53.735382,22.94775 L55.141632,22.94775 ZM59.26963,35.104 L57.86338,35.104 L57.86338,22.94775 L59.26963,22.94775 ZM69.4445,30.807125 Q69.4445,31.869625,69.16325,32.69775 Q68.882,33.525875,68.36638,34.104 Q67.85075,34.6665,67.10075,34.963375 Q66.36638,35.26025,65.4445,35.26025 Q64.60075,35.26025,63.882004,34.963375 Q63.163254,34.6665,62.632004,34.104 Q62.100754,33.525875,61.80388,32.69775 Q61.507004,31.869625,61.507004,30.807125 Q61.507004,29.369625,61.99138,28.38525 Q62.475754,27.400875,63.36638,26.88525 Q64.257,26.369625,65.49138,26.369625 Q66.66325,26.369625,67.55388,26.88525 Q68.4445,27.400875,68.9445,28.38525 Q69.4445,29.369625,69.4445,30.807125 ZM62.975754,30.807125 Q62.975754,31.807125,63.225754,32.557125 Q63.49138,33.2915,64.05388,33.69775 Q64.61638,34.088375,65.47575,34.088375 Q66.35075,34.088375,66.89763,33.69775 Q67.46013,33.2915,67.72575,32.557125 Q67.99138,31.807125,67.99138,30.807125 Q67.99138,29.775875,67.71013,29.057125 Q67.4445,28.338375,66.89763,27.94775 Q66.35075,27.557125,65.46013,27.557125 Q64.14763,27.557125,63.55388,28.4165 Q62.975754,29.275875,62.975754,30.807125 Z" fill="black"/>
</a>
</g>
</g>
<g class="node" id="node-1">
<title>World!</title>
<g id="a-node-1">
<a title="World!" xlink:title="World!">
<rect fill="white" height="37.792" stroke="black" stroke-width="1" width="73.12001" x="14.343998" y="135.584"/>
<path d="M41.015873,149.26613 L37.968998,160.688 L36.515873,160.688 L34.297123,153.20363 Q34.203373,152.85988,34.093998,152.51613 Q34.000248,152.15675,33.922123,151.84425 Q33.843998,151.51613,33.781498,151.29738 Q33.734623,151.063,33.718998,150.938 Q33.703373,151.063,33.656498,151.29738 Q33.625248,151.51613,33.547123,151.84425 Q33.468998,152.15675,33.375248,152.51613 Q33.281498,152.8755,33.172123,153.2505 L31.015873,160.688 L29.562748,160.688 L26.531498,149.26613 L28.047123,149.26613 L29.812748,156.23488 Q29.906498,156.60988,29.984623,156.96925 Q30.078373,157.32863,30.140873,157.67238 Q30.218998,158.01613,30.265873,158.34425 Q30.312748,158.65675,30.359623,158.95363 Q30.406498,158.64113,30.453373,158.313 Q30.515873,157.96925,30.593998,157.60988 Q30.687748,157.2505,30.781498,156.89113 Q30.875248,156.51613,30.968998,156.15675 L32.984623,149.26613 L34.468998,149.26613 L36.562748,156.20363 Q36.687748,156.57863,36.781498,156.95363 Q36.875248,157.32863,36.953373,157.688 Q37.031498,158.03175,37.078373,158.35988 Q37.140873,158.688,37.187748,158.95363 Q37.234623,158.563,37.312748,158.1255 Q37.406498,157.67238,37.515873,157.20363 Q37.625248,156.71925,37.750248,156.21925 L39.515873,149.26613 ZM49.7165,156.39113 Q49.7165,157.45363,49.43525,158.28175 Q49.154,159.10988,48.638374,159.688 Q48.12275,160.2505,47.37275,160.54738 Q46.638374,160.84425,45.7165,160.84425 Q44.87275,160.84425,44.154,160.54738 Q43.43525,160.2505,42.904,159.688 Q42.37275,159.10988,42.075874,158.28175 Q41.779,157.45363,41.779,156.39113 Q41.779,154.95363,42.263374,153.96925 Q42.74775,152.98488,43.638374,152.46925 Q44.529,151.95363,45.763374,151.95363 Q46.93525,151.95363,47.825874,152.46925 Q48.7165,152.98488,49.2165,153.96925 Q49.7165,154.95363,49.7165,156.39113 ZM43.24775,156.39113 Q43.24775,157.39113,43.49775,158.14113 Q43.763374,158.8755,44.325874,159.28175 Q44.888374,159.67238,45.74775,159.67238 Q46.62275,159.67238,47.169624,159.28175 Q47.732124,158.8755,47.99775,158.14113 Q48.263374,157.39113,48.263374,156.39113 Q48.263374,155.35988,47.982124,154.64113 Q47.7165,153.92238,47.169624,153.53175 Q46.62275,153.14113,45.732124,153.14113 Q44.419624,153.14113,43.825874,154.0005 Q43.24775,154.85988,43.24775,156.39113 ZM55.943375,151.95363 Q56.17775,151.95363,56.459,151.98488 Q56.74025,152.0005,56.959,152.04738 L56.7715,153.34425 Q56.568375,153.29738,56.318375,153.26613 Q56.068375,153.23488,55.849625,153.23488 Q55.349625,153.23488,54.8965,153.438 Q54.459,153.64113,54.099625,154.03175 Q53.755875,154.40675,53.55275,154.938 Q53.349625,155.45363,53.349625,156.10988 L53.349625,160.688 L51.943375,160.688 L51.943375,152.10988 L53.099625,152.10988 L53.255875,153.67238 L53.318375,153.67238 Q53.599625,153.20363,53.974625,152.813 Q54.36525,152.42238,54.849625,152.188 Q55.349625,151.95363,55.943375,151.95363 ZM59.957626,160.688 L58.551376,160.688 L58.551376,148.53175 L59.957626,148.53175 ZM65.72625,160.84425 Q64.116875,160.84425,63.148125,159.73488 Q62.195,158.6255,62.195,156.42238 Q62.195,154.20363,63.16375,153.07863 Q64.1325,151.95363,65.741875,151.95363 Q66.41375,151.95363,66.898125,152.1255 Q67.398125,152.28175,67.7575,152.57863 Q68.1325,152.85988,68.398125,153.21925 L68.491875,153.21925 Q68.47625,153.0005,68.429375,152.59425 Q68.398125,152.188,68.398125,151.95363 L68.398125,148.53175 L69.804375,148.53175 L69.804375,160.688 L68.66375,160.688 L68.460625,159.53175 L68.398125,159.53175 Q68.1325,159.90675,67.7575,160.20363 Q67.398125,160.5005,66.898125,160.67238 Q66.398125,160.84425,65.72625,160.84425 ZM65.945,159.67238 Q67.304375,159.67238,67.85125,158.938 Q68.41375,158.188,68.41375,156.688 L68.41375,156.438 Q68.41375,154.82863,67.8825,153.98488 Q67.35125,153.1255,65.929375,153.1255 Q64.78875,153.1255,64.22625,154.03175 Q63.66375,154.92238,63.66375,156.45363 Q63.66375,157.98488,64.22625,158.82863 Q64.78875,159.67238,65.945,159.67238 ZM73.76938,157.46925 L72.86313,157.46925 L72.45688,149.26613 L74.17563,149.26613 ZM72.31625,159.82863 Q72.31625,159.23488,72.5975,159.0005 Q72.89438,158.7505,73.30063,158.7505 Q73.70688,158.7505,74.00375,159.0005 Q74.30063,159.23488,74.30063,159.82863 Q74.30063,160.40675,74.00375,160.65675 Q73.70688,160.90675,73.30063,160.90675 Q72.89438,160.90675,72.5975,160.65675 Q72.31625,160.40675,72.31625,159.82863 Z" fill="black"/>
</a>
</g>
</g>
</svg>